<svg id="twitter" xmlns="http://www.w3.org/2000/svg" width="19.638" height="15.956" viewBox="0 0 19.638 15.956">
  <g id="Group_67" data-name="Group 67">
    <path id="Path_59" data-name="Path 59" d="M19.638,80.358a8.394,8.394,0,0,1-2.32.636,4,4,0,0,0,1.771-2.225,8.046,8.046,0,0,1-2.553.975A4.026,4.026,0,0,0,9.572,82.5a4.146,4.146,0,0,0,.093.918,11.4,11.4,0,0,1-8.3-4.211A4.027,4.027,0,0,0,2.6,84.584a3.976,3.976,0,0,1-1.819-.5v.044a4.044,4.044,0,0,0,3.226,3.956,4.018,4.018,0,0,1-1.056.133,3.559,3.559,0,0,1-.762-.069,4.064,4.064,0,0,0,3.762,2.8A8.089,8.089,0,0,1,.963,92.673,7.542,7.542,0,0,1,0,92.618a11.334,11.334,0,0,0,6.176,1.807A11.38,11.38,0,0,0,17.635,82.968c0-.178-.006-.35-.015-.52A8.032,8.032,0,0,0,19.638,80.358Z" transform="translate(0 -78.469)" fill="#fff"/>
  </g>
</svg>
