<svg xmlns="http://www.w3.org/2000/svg" xmlns:xlink="http://www.w3.org/1999/xlink" width="799.493" height="497.985" viewBox="0 0 799.493 497.985">
  <defs>
    <clipPath id="clip-path">
      <rect id="Rectangle_3082" data-name="Rectangle 3082" width="571.214" height="413.769" fill="none"/>
    </clipPath>
  </defs>
  <g id="Layer_2" data-name="Layer 2" transform="translate(0.005)">
    <g id="OBJECTS" transform="translate(0.98)">
      <line id="Line_64" data-name="Line 64" x2="621.088" transform="translate(86.9 153.441)" fill="none" stroke="#ded8d5" stroke-miterlimit="10" stroke-width="1.97"/>
      <rect id="Rectangle_3070" data-name="Rectangle 3070" width="621.088" height="384.267" rx="6.52" transform="translate(86.9 112.733)" fill="none" stroke="#ded8d5" stroke-miterlimit="10" stroke-width="1.97"/>
      <path id="Path_11455" data-name="Path 11455" d="M105.988,108.454a5.684,5.684,0,1,1-5.684-5.684,5.684,5.684,0,0,1,5.684,5.684Z" transform="translate(21.844 25.05)" fill="#e64560"/>
      <path id="Path_11456" data-name="Path 11456" d="M123.738,108.454a5.684,5.684,0,1,1-5.671-5.684A5.684,5.684,0,0,1,123.738,108.454Z" transform="translate(26.171 25.05)" fill="#68c3ea"/>
      <path id="Path_11457" data-name="Path 11457" d="M141.5,108.454a5.684,5.684,0,1,1-5.684-5.684A5.684,5.684,0,0,1,141.5,108.454Z" transform="translate(30.5 25.05)" fill="#112152"/>
      <rect id="Rectangle_3071" data-name="Rectangle 3071" width="160.866" height="149.896" rx="5.99" transform="translate(635.255 140.68)" fill="#fff"/>
      <rect id="Rectangle_3072" data-name="Rectangle 3072" width="160.866" height="149.896" rx="5.99" transform="translate(635.255 140.68)" fill="none" stroke="#ded8d5" stroke-miterlimit="10" stroke-width="1.97"/>
      <rect id="Rectangle_3073" data-name="Rectangle 3073" width="90.843" height="77.149" rx="6.02" transform="translate(761.358 251.585) rotate(180)" fill="#112152"/>
      <path id="Path_11458" data-name="Path 11458" d="M601.474,187.091H559.56V158.97h41.914v28.121Z" transform="translate(135.17 38.748)" fill="none" stroke="#fff" stroke-linecap="round" stroke-linejoin="round" stroke-width="1.65"/>
      <path id="Path_11459" data-name="Path 11459" d="M559.56,158.97l20.957,16.517,20.957-16.517" transform="translate(135.17 38.748)" fill="none" stroke="#fff" stroke-linecap="round" stroke-linejoin="round" stroke-width="1.65"/>
      <rect id="Rectangle_3074" data-name="Rectangle 3074" width="153.416" height="135.581" rx="5.71" transform="translate(0 268.039)" fill="#ededed"/>
      <rect id="Rectangle_3075" data-name="Rectangle 3075" width="153.416" height="135.581" rx="5.71" transform="translate(0 268.039)" fill="none" stroke="#ded8d5" stroke-miterlimit="10" stroke-width="1.97"/>
      <rect id="Rectangle_3076" data-name="Rectangle 3076" width="88.716" height="86.241" rx="6.64" transform="translate(32.002 291.26)" fill="#e64560"/>
      <path id="Path_11460" data-name="Path 11460" d="M49.989,256.672a25.074,25.074,0,1,0,35.459,0A25.074,25.074,0,0,0,49.989,256.672Zm35.385,3.607H77.4a49.491,49.491,0,0,0-3.109-7.537,22.736,22.736,0,0,1,11.082,7.537ZM58.509,272.94a40.036,40.036,0,0,1,1.244-9.726H75.8a40.647,40.647,0,0,1,1.182,9.726Zm18.32,2.935a48.27,48.27,0,0,1-1.716,9.714H60.325a48.271,48.271,0,0,1-1.716-9.714Zm-9.1-24.1a22.074,22.074,0,0,1,3.532.286,45.683,45.683,0,0,1,3.644,8.221H60.5a45.682,45.682,0,0,1,3.731-8.221A22.113,22.113,0,0,1,67.725,251.772Zm-6.579.97a49.493,49.493,0,0,0-3.109,7.537h-8a22.736,22.736,0,0,1,11.107-7.537ZM48.062,263.214h9.154a43.532,43.532,0,0,0-1.244,9.726H45.139a22.475,22.475,0,0,1,2.923-9.726Zm0,22.387a22.387,22.387,0,0,1-2.91-9.714H55.984A46.952,46.952,0,0,0,57.5,285.6Zm1.99,2.935h8.321a62.328,62.328,0,0,0,3.072,7.637,22.623,22.623,0,0,1-11.405-7.649Zm17.686,8.507a23.4,23.4,0,0,1-2.973-.187,67.824,67.824,0,0,1-3.507-8.321H74.18a67.824,67.824,0,0,1-3.507,8.321,23.348,23.348,0,0,1-2.948.174Zm6.219-.883a62.322,62.322,0,0,0,3.084-7.624h8.333a22.624,22.624,0,0,1-11.38,7.637Zm13.4-10.559h-9.44a47.822,47.822,0,0,0,1.53-9.714H90.349a22.388,22.388,0,0,1-2.96,9.7Zm3-12.661H79.516a44.228,44.228,0,0,0-1.244-9.726h9.154A22.474,22.474,0,0,1,90.349,272.94Z" transform="translate(9.176 60.781)" fill="#fff"/>
      <path id="Path_11461" data-name="Path 11461" d="M137.652,63.98H11.474A4.714,4.714,0,0,1,6.76,59.266h0a4.726,4.726,0,0,1,4.714-4.726H137.652a4.726,4.726,0,0,1,4.726,4.726h0a4.726,4.726,0,0,1-4.726,4.714Z" transform="translate(0.429 13.294)" fill="#112152"/>
      <path id="Path_11462" data-name="Path 11462" d="M652.141,311.658H590.924a4.714,4.714,0,0,1-4.714-4.714h0a4.7,4.7,0,0,1,4.714-4.714h61.2a4.714,4.714,0,0,1,4.714,4.689h0a4.726,4.726,0,0,1-4.7,4.739Z" transform="translate(141.666 73.667)" fill="#68c3ea"/>
      <rect id="Rectangle_3077" data-name="Rectangle 3077" width="14.602" height="14.141" rx="2.86" transform="translate(739.903 425.758)" fill="#112152"/>
      <rect id="Rectangle_3078" data-name="Rectangle 3078" width="14.602" height="14.141" rx="2.86" transform="translate(30.907 458.444)" fill="#e64560"/>
      <rect id="Rectangle_3079" data-name="Rectangle 3079" width="131.974" height="37.884" rx="3.01" transform="translate(486.192 34.514)" fill="#e64560"/>
      <line id="Line_65" data-name="Line 65" x2="88.53" transform="translate(504.164 48.009)" fill="none" stroke="#fff" stroke-miterlimit="10" stroke-width="1.18"/>
      <line id="Line_66" data-name="Line 66" x2="36.056" transform="translate(504.164 57.1)" fill="none" stroke="#fff" stroke-miterlimit="10" stroke-width="1.18"/>
      <path id="Path_11463" data-name="Path 11463" d="M403.44,54.76V69.536L422.009,54.76Z" transform="translate(97.117 13.347)" fill="#e64560"/>
      <path id="Path_11464" data-name="Path 11464" d="M200.155,0h62.821a8.035,8.035,0,0,1,8.035,8.035v58.58a8.035,8.035,0,0,1-8.035,8.01H202.717a10.6,10.6,0,0,1-10.6-10.6V8.059A8.035,8.035,0,0,1,200.155,0Z" transform="translate(45.609)" fill="#68c3ea"/>
      <path id="Path_11465" data-name="Path 11465" d="M245.565,39.605l-4.527-4.49a3.918,3.918,0,0,0-2.885-1.368,4.191,4.191,0,0,0-2.885,1.244L232.7,37.565l-.485-.249a6.751,6.751,0,0,1-.8-.4,27.636,27.636,0,0,1-6.666-6.094,14.727,14.727,0,0,1-2.077-3.283c.634-.572,1.244-1.244,1.754-1.766l.721-.721a4.254,4.254,0,0,0,1.368-2.973,4.254,4.254,0,0,0-1.368-2.973l-2.239-2.239a7.875,7.875,0,0,1-.721-.808l-1.53-1.517A4.117,4.117,0,0,0,217.78,13.3a3.968,3.968,0,0,0-2.886,1.244l-2.81,2.8a6.467,6.467,0,0,0-1.841,3.93,14.651,14.651,0,0,0,1.045,6.107,32.811,32.811,0,0,0,6.219,10.51,39.152,39.152,0,0,0,12.835,10.025,21.38,21.38,0,0,0,7.214,2.164h.56a6.355,6.355,0,0,0,4.813-2.089l.087-.075a11.283,11.283,0,0,1,1.5-1.405l1.045-1.045a4.03,4.03,0,0,0,0-5.858Zm-1.853,4.167-.958.97c-.56.473-1.045,1.045-1.6,1.6a3.843,3.843,0,0,1-2.885,1.244h-.4a16.84,16.84,0,0,1-6.219-1.915,36.616,36.616,0,0,1-11.952-9.39,34.75,34.75,0,0,1-5.846-9.7,9.95,9.95,0,0,1-.97-4.975,3.408,3.408,0,0,1,1.132-2.326l2.724-2.724a1.629,1.629,0,0,1,1.119-.572,1.5,1.5,0,0,1,1.119.572l1.405,1.343a6.865,6.865,0,0,0,.8.8l2.251,2.251a1.89,1.89,0,0,1,.56,1.119,1.667,1.667,0,0,1-.56,1.119l-.721.721-2.015,2.015-.075.075a1.741,1.741,0,0,0-.485,2v.087a18.37,18.37,0,0,0,2.649,4.328,29.614,29.614,0,0,0,7.3,6.654,5.348,5.348,0,0,0,1.045.56,6.681,6.681,0,0,1,.8.41l.087.075a1.841,1.841,0,0,0,2.239-.4l2.811-2.811a1.7,1.7,0,0,1,1.119-.56,1.667,1.667,0,0,1,1.045.56l4.49,4.49a1.517,1.517,0,0,1,0,2.376Z" transform="translate(50.023 3.242)" fill="#fff"/>
      <g id="Group_4172" data-name="Group 4172" transform="translate(144.113 82.224)" clip-path="url(#clip-path)">
        <path id="Path_11466" data-name="Path 11466" d="M478.64,288.465l-45.409-6.045.361,4.5L394.775,292.1s-25.024,62.772-3,200.815h31.579l11.368-139.983h4.03l11.007,139.983h31.566C503.416,354.868,478.64,288.465,478.64,288.465Z" transform="translate(-52.049 -13.386)" fill="#8e716c"/>
        <line id="Line_67" data-name="Line 67" x2="32.947" transform="translate(368.26 339.542)" fill="none" stroke="#282828" stroke-linecap="round" stroke-linejoin="round" stroke-width="1.23"/>
        <path id="Path_11467" data-name="Path 11467" d="M486.761,235.2c-3.88-6.219-25.7-5.982-26.852-6.119-5.9-.7,3.731,46.242,16.057,87.273a13.781,13.781,0,0,0,18.569,8.706l.236-.112a13.781,13.781,0,0,0,8.184-15.124C497.122,278.831,491.251,242.414,486.761,235.2Z" transform="translate(-33.665 -26.389)" fill="#ffb1a5"/>
        <path id="Path_11468" data-name="Path 11468" d="M491.3,249.562,463.452,260.37l-2.612-13.209,28.842-7.2Z" transform="translate(-33.005 -23.735)" fill="#f3978e"/>
        <path id="Path_11469" data-name="Path 11469" d="M492.026,271.234s-13.2,17.723-12.562,16.9,10.348-28.606,10.348-28.606Z" transform="translate(-28.47 -18.965)" fill="#f3978e"/>
        <path id="Path_11470" data-name="Path 11470" d="M512.71,249.79l-37.822,49a13.905,13.905,0,0,0,3.445,20.161h0a13.893,13.893,0,0,0,19.8-4.975L529.612,255.9Z" transform="translate(-30.286 -21.339)" fill="#ffb1a5"/>
        <path id="Path_11471" data-name="Path 11471" d="M514.731,265.881a15.609,15.609,0,1,1,19.639-10.049,15.609,15.609,0,0,1-19.639,10.049Z" transform="translate(-22.507 -24.844)" fill="#ffb1a5"/>
        <path id="Path_11472" data-name="Path 11472" d="M530.75,242.2s4.266-4.44-3.308-7.537-16.94-2.4-22.922,12.114Z" transform="translate(-22.358 -25.39)" fill="#ffb1a5"/>
        <path id="Path_11473" data-name="Path 11473" d="M536.538,215.556l15.833,6.865a1.629,1.629,0,0,1,.721,2.326l-20.833,38.917a1.99,1.99,0,0,1-2.487.958l-15.845-6.865a1.629,1.629,0,0,1-.709-2.338L534.05,216.5a1.99,1.99,0,0,1,2.487-.945Z" transform="translate(-20.297 -29.716)" fill="#372f5f"/>
        <path id="Path_11474" data-name="Path 11474" d="M535.315,215.024l15.845,6.865a1.642,1.642,0,0,1,.709,2.338l-20.833,38.917a1.99,1.99,0,0,1-2.487.945l-15.833-6.865a1.617,1.617,0,0,1-.659-2.4l20.833-38.917a2,2,0,0,1,2.425-.883Z" transform="translate(-20.592 -29.843)" fill="#261b43"/>
        <path id="Path_11475" data-name="Path 11475" d="M532.587,218.16l13.917,6.032-16.977,31.715-13.918-6.032Z" transform="translate(-19.655 -29.049)" fill="#e6e6e6"/>
        <path id="Path_11476" data-name="Path 11476" d="M546.5,224.192,515.61,249.875l16.977-31.715Z" transform="translate(-19.655 -29.049)" fill="#fff"/>
        <path id="Path_11477" data-name="Path 11477" d="M521.8,233.33a25.172,25.172,0,0,1,6.7,2.487,3.582,3.582,0,0,1,1.729,3.98h0a3.532,3.532,0,0,1-3.01,2.662L518.99,243.5s-4.291,7.462-9.95,8.234l5.149-13Z" transform="translate(-21.256 -25.351)" fill="#ffb1a5"/>
        <path id="Path_11478" data-name="Path 11478" d="M448.8,184.427c-.908,0,58.394,8.2,68.17,75.868l-30.77,4.714L479.978,316H394.159L377.12,221.7s19.017-27.263,54.327-37.312Z" transform="translate(-53.411 -37.28)" fill="#68c3ea"/>
        <line id="Line_68" data-name="Line 68" y1="29.514" x2="2.674" transform="translate(432.786 198.153)" fill="none" stroke="#282828" stroke-linecap="round" stroke-linejoin="round" stroke-width="1.23"/>
        <path id="Path_11479" data-name="Path 11479" d="M446.134,189.792V166.31H418.622v23.768a51.926,51.926,0,0,0-7.462,3l21.467,12.786,21.94-12.786a35.922,35.922,0,0,0-8.433-3.283Z" transform="translate(-45.114 -41.687)" fill="#ffb1a5"/>
        <path id="Path_11480" data-name="Path 11480" d="M417,170.039s4.975,13.122,18.134,11.99c12.127-1.045,10.2-19.228,10.2-19.228Z" transform="translate(-43.69 -42.542)" fill="#282828"/>
        <path id="Path_11481" data-name="Path 11481" d="M409.419,157.821c-4.316,3.905-13.955-10.932-9.788-15.1s7.351,2.376,7.351,2.376l1.853,4.428,1.405,5.995.336,1.58Z" transform="translate(-48.173 -47.775)" fill="#f3978e"/>
        <path id="Path_11482" data-name="Path 11482" d="M401.05,146.722s3.259-1.468,6.219,3.259" transform="translate(-47.578 -46.514)" fill="none" stroke="#282828" stroke-linecap="round" stroke-linejoin="round" stroke-width="0.99"/>
        <path id="Path_11483" data-name="Path 11483" d="M448.512,157.336c3.968,4.254,14.838-9.714,11.032-14.216s-7.462,1.741-7.462,1.741l-2.226,4.254-1.915,5.858-.46,1.542Z" transform="translate(-36.261 -47.737)" fill="#f3978e"/>
        <path id="Path_11484" data-name="Path 11484" d="M456.468,146.935s-3.122-1.741-6.418,2.736" transform="translate(-35.635 -46.491)" fill="none" stroke="#282828" stroke-linecap="round" stroke-linejoin="round" stroke-width="0.99"/>
        <path id="Path_11485" data-name="Path 11485" d="M401.22,137.539c0,19.639,14.925,28.954,33.444,28.954s33.457-9.316,33.457-28.954S453.2,104.53,434.664,104.53,401.22,117.9,401.22,137.539Z" transform="translate(-47.537 -56.745)" fill="#282828"/>
        <path id="Path_11486" data-name="Path 11486" d="M404.874,138.012a134.175,134.175,0,0,0,3.408,29.85c1.667,7.226,6.355,12.288,12.972,16.355l1.244.734a22.773,22.773,0,0,0,23.171.261h0c7.176-4.179,12.2-9.7,13.743-17.412a194.708,194.708,0,0,0,3.122-29.738s2.674-30.447-28.395-29.85S404.874,138.012,404.874,138.012Z" transform="translate(-46.651 -55.85)" fill="#ffb1a5"/>
        <path id="Path_11487" data-name="Path 11487" d="M426.52,146.14v4.2A1.828,1.828,0,0,0,428.9,152.1l1.928-.522" transform="translate(-41.37 -46.603)" fill="none" stroke="#282828" stroke-linecap="round" stroke-linejoin="round" stroke-width="1.23"/>
        <path id="Path_11488" data-name="Path 11488" d="M425.577,133.414l-15.447,3.619s.709-3.93,7.027-5.361S425.577,133.414,425.577,133.414Z" transform="translate(-45.365 -50.22)" fill="#282828"/>
        <path id="Path_11489" data-name="Path 11489" d="M433.57,133.414l14.925,3.619s-.684-3.93-6.778-5.361S433.57,133.414,433.57,133.414Z" transform="translate(-39.651 -50.22)" fill="#282828"/>
        <circle id="Ellipse_358" data-name="Ellipse 358" cx="2.599" cy="2.599" r="2.599" transform="translate(371.743 91.938)" fill="#282828"/>
        <path id="Path_11490" data-name="Path 11490" d="M440.8,142.627a2.612,2.612,0,1,1-2.612-2.587A2.612,2.612,0,0,1,440.8,142.627Z" transform="translate(-39.162 -48.09)" fill="#282828"/>
        <path id="Path_11491" data-name="Path 11491" d="M419.93,154.87H440S431.111,165.691,419.93,154.87Z" transform="translate(-42.976 -44.475)" fill="#fff"/>
        <circle id="Ellipse_359" data-name="Ellipse 359" cx="11.069" cy="11.069" r="11.069" transform="translate(357.598 95.55) rotate(-45)" fill="none" stroke="#c98bd2" stroke-miterlimit="10" stroke-width="1.34"/>
        <circle id="Ellipse_360" data-name="Ellipse 360" cx="11.069" cy="11.069" r="11.069" transform="translate(384.813 95.548) rotate(-45)" fill="none" stroke="#c98bd2" stroke-miterlimit="10" stroke-width="1.34"/>
        <path id="Path_11492" data-name="Path 11492" d="M425.86,143.143a3.594,3.594,0,0,1,5.05,0" transform="translate(-41.531 -47.586)" fill="none" stroke="#c98bd2" stroke-miterlimit="10" stroke-width="1.34"/>
        <line id="Line_69" data-name="Line 69" x1="3.495" y1="0.099" transform="translate(358.683 95.457)" fill="none" stroke="#c98bd2" stroke-miterlimit="10" stroke-width="1.34"/>
        <line id="Line_70" data-name="Line 70" y1="0.099" x2="3.507" transform="translate(411.53 95.457)" fill="none" stroke="#c98bd2" stroke-miterlimit="10" stroke-width="1.34"/>
        <path id="Path_11493" data-name="Path 11493" d="M452.837,146.9s-12.437-16.791-9.552-33.8A24.477,24.477,0,0,1,454.9,129.716C457.3,141.694,452.837,146.9,452.837,146.9Z" transform="translate(-37.389 -54.656)" fill="#282828"/>
        <path id="Path_11494" data-name="Path 11494" d="M405.2,148.269s14.427-19.079,11.567-36.069a28.407,28.407,0,0,0-12.437,17.761C401.955,141.913,405.2,148.269,405.2,148.269Z" transform="translate(-46.99 -54.876)" fill="#282828"/>
        <path id="Path_11495" data-name="Path 11495" d="M461.68,121.25s-15.945,17.412-59.6,14.465c0,0,6.691-25.621,27.835-28.357C429.965,107.357,454.392,104.472,461.68,121.25Z" transform="translate(-47.327 -56.102)" fill="#282828"/>
        <circle id="Ellipse_361" data-name="Ellipse 361" cx="20.845" cy="20.845" r="20.845" transform="translate(389.384 61.989) rotate(-80.83)" fill="#282828"/>
        <path id="Path_11496" data-name="Path 11496" d="M263.359,289.136l-38.817-5.174.361-4.5L179.494,285.5s-24.775,66.4-2.7,204.447h31.579L219.381,349.98h4.03l11.343,139.971h31.591C288.383,351.908,263.359,289.136,263.359,289.136Z" transform="translate(-104.471 -14.107)" fill="#282828"/>
        <path id="Path_11497" data-name="Path 11497" d="M261.755,143.187a71.565,71.565,0,0,1-13.034-23.519c-3.843-10.858-16.4-6.443-16.4-6.443s-10.472-13.47-26.231-8.781-21.231,15.858-21.579,29.24-10.808,15.41-18.88,30.832c-14.253,27.226,9.751,50.16,53.481,43.8v-.435a45.732,45.732,0,0,0,16.007,1.5C287.637,206.27,282.575,167.676,261.755,143.187Z" transform="translate(-105.963 -57.008)" fill="#282828"/>
        <path id="Path_11498" data-name="Path 11498" d="M228.514,154.861c4.316,3.905,13.967-10.933,9.8-15.1s-7.351,2.376-7.351,2.376l-1.866,4.428-1.405,5.995-.323,1.58Z" transform="translate(-89.911 -48.496)" fill="#f3978e"/>
        <path id="Path_11499" data-name="Path 11499" d="M235.769,143.762s-3.271-1.468-6.219,3.259" transform="translate(-89.38 -47.235)" fill="none" stroke="#282828" stroke-linecap="round" stroke-linejoin="round" stroke-width="0.99"/>
        <path id="Path_11500" data-name="Path 11500" d="M189.6,154.376c-3.968,4.254-14.825-9.714-11.032-14.216s7.525,1.741,7.525,1.741l2.226,4.254,1.9,5.858.473,1.542Z" transform="translate(-102 -48.459)" fill="#f3978e"/>
        <path id="Path_11501" data-name="Path 11501" d="M180.38,143.975s3.134-1.729,6.418,2.736" transform="translate(-101.365 -47.211)" fill="none" stroke="#282828" stroke-linecap="round" stroke-linejoin="round" stroke-width="0.99"/>
        <path id="Path_11502" data-name="Path 11502" d="M247.493,134.579c0,19.651-14.925,28.954-33.457,28.954s-33.457-9.3-33.457-28.954S195.5,101.57,214.037,101.57,247.493,114.94,247.493,134.579Z" transform="translate(-101.316 -57.467)" fill="#282828"/>
        <rect id="Rectangle_3080" data-name="Rectangle 3080" width="27.524" height="35.633" transform="translate(98.828 120.942)" fill="#ffb1a5"/>
        <path id="Path_11503" data-name="Path 11503" d="M193.09,161.57s7.649,15.286,17.077,17.674a13.221,13.221,0,0,0,7.637-.448c3.545-1.244,8.047-6.542,8.806-12.437l.361-3.346S210.191,172.192,193.09,161.57Z" transform="translate(-98.267 -42.842)" fill="#282828"/>
        <path id="Path_11504" data-name="Path 11504" d="M242.019,135.052a134.074,134.074,0,0,1-3.408,29.85c-1.654,7.239-6.343,12.288-12.972,16.355l-1.244.734a22.748,22.748,0,0,1-23.171.261h0c-7.176-4.179-12.2-9.7-13.681-17.412a196.51,196.51,0,0,1-3.122-29.738s-2.674-30.447,28.407-29.85S242.019,135.052,242.019,135.052Z" transform="translate(-100.394 -56.572)" fill="#ffb1a5"/>
        <path id="Path_11505" data-name="Path 11505" d="M205.81,144.5v2.487a1.829,1.829,0,0,0,.137.7,1.891,1.891,0,0,0,2.239,1.032l1.928-.51" transform="translate(-95.167 -47.003)" fill="none" stroke="#282828" stroke-linecap="round" stroke-linejoin="round" stroke-width="1.23"/>
        <path id="Path_11506" data-name="Path 11506" d="M211,131.689l16.529,3.905s-.746-4.241-7.462-5.8S211,131.689,211,131.689Z" transform="translate(-93.902 -50.684)" fill="#282828"/>
        <path id="Path_11507" data-name="Path 11507" d="M207.281,131.689l-16.741,3.905s.759-4.241,7.612-5.8S207.281,131.689,207.281,131.689Z" transform="translate(-98.889 -50.684)" fill="#282828"/>
        <path id="Path_11508" data-name="Path 11508" d="M200.244,140a2.6,2.6,0,1,1-.766-1.842,2.612,2.612,0,0,1,.766,1.842Z" transform="translate(-97.797 -48.734)" fill="#282828"/>
        <path id="Path_11509" data-name="Path 11509" d="M220.094,140a2.6,2.6,0,1,1-.766-1.842A2.612,2.612,0,0,1,220.094,140Z" transform="translate(-92.958 -48.734)" fill="#282828"/>
        <path id="Path_11510" data-name="Path 11510" d="M197.83,151.39h22.86s-1.617,6.281-11.977,6.281A12.126,12.126,0,0,1,197.83,151.39Z" transform="translate(-97.112 -45.324)" fill="#fff"/>
        <path id="Path_11511" data-name="Path 11511" d="M185.254,143.945s12.437-16.791,9.564-33.8a24.514,24.514,0,0,0-11.629,16.616C180.788,138.734,185.254,143.945,185.254,143.945Z" transform="translate(-100.853 -55.378)" fill="#282828"/>
        <path id="Path_11512" data-name="Path 11512" d="M233.081,143.622s-14.44-17.412-11.567-34.4a28.407,28.407,0,0,1,12.437,17.761C236.327,138.958,233.081,143.622,233.081,143.622Z" transform="translate(-91.431 -55.602)" fill="#282828"/>
        <path id="Path_11513" data-name="Path 11513" d="M185.55,118.289s14.253,19.154,57.909,16.169c0,0-4.975-27.362-26.119-30.049C217.315,104.409,192.888,101.461,185.55,118.289Z" transform="translate(-100.105 -56.823)" fill="#282828"/>
        <path id="Path_11514" data-name="Path 11514" d="M155.89,386.044c-.634.995,36.33-160.829,25.36-158.378-1.007.224-20.223,2-23.084,7.811C149.9,252.329,144,384.8,144,384.8Z" transform="translate(-110.232 -26.739)" fill="#ffb1a5"/>
        <path id="Path_11515" data-name="Path 11515" d="M144.14,354.651s-5.958,27.648,16.567,30.671a3.171,3.171,0,0,0,3.333-2.065v-.187a3.172,3.172,0,0,0-1.754-3.905c-3.669-1.642-9.365-5.8-6.542-15.211,0,0,3.259-.4,5.05,5.671a2.612,2.612,0,0,0,3.669,1.617h0a2.612,2.612,0,0,0,1.418-2.674c-.535-4.254-2.674-14.49-10.883-17.238Z" transform="translate(-110.372 3.411)" fill="#ffb1a5"/>
        <path id="Path_11516" data-name="Path 11516" d="M150.05,269.9s21.305,29.987,21.417,29.4,7.462-42.1,7.462-42.1L153.085,246.01Z" transform="translate(-108.758 -22.26)" fill="#f3978e"/>
        <path id="Path_11517" data-name="Path 11517" d="M209.861,187.361c.908,0-52.635.958-62.411,68.555l30.77,4.714,6.219,50.994h85.818l17.039-94.3S275.182,196.95,239.873,187Z" transform="translate(-109.391 -36.644)" fill="#112152"/>
        <path id="Path_11518" data-name="Path 11518" d="M176.59,196.587s7.562,10.049,38.556,10.049c30.72,0,38.556-10.572,38.556-10.572s-18.109-10.124-39.116-13.4a139.413,139.413,0,0,0-38,13.918Z" transform="translate(-102.289 -37.699)" fill="#ffb1a5"/>
        <path id="Path_11519" data-name="Path 11519" d="M261.29,366.06l.075,134.834h66.7l5.124-134.834Z" transform="translate(-81.644 7.001)" fill="#005683"/>
        <path id="Path_11520" data-name="Path 11520" d="M391.821,366.06l-.075,134.834h-66.7L319.92,366.06Z" transform="translate(-67.353 7.001)" fill="#005683"/>
        <rect id="Rectangle_3081" data-name="Rectangle 3081" width="68.966" height="46.839" transform="translate(219.073 373.061)" fill="#005683"/>
        <line id="Line_71" data-name="Line 71" x2="47.561" transform="translate(228.712 419.9)" fill="none" stroke="#282828" stroke-linecap="round" stroke-linejoin="round" stroke-width="1.4"/>
        <path id="Path_11521" data-name="Path 11521" d="M420.38,271.46c4.129,45.683-.224,78.978.983,163.042l-39.8,1.667L375.63,278.811Z" transform="translate(-53.774 -16.057)" fill="#ffb1a5"/>
        <path id="Path_11522" data-name="Path 11522" d="M379.57,304.658s24.651-2.251,41.5-13.37l-.448-9.788-41.044,5.6Z" transform="translate(-52.814 -13.61)" fill="#f3978e"/>
        <path id="Path_11523" data-name="Path 11523" d="M347.77,186.88s78.356,19.7,92.485,119.088c0,0-38.32,16.616-76.727,9.465l8.644-33.233Z" transform="translate(-60.565 -36.673)" fill="#e64560"/>
        <path id="Path_11524" data-name="Path 11524" d="M164.368,220.11l58.307,68.854-17.848,50.247s-44.315-61.6-64.227-109.226Z" transform="translate(-111.061 -28.573)" fill="#ffb1a5"/>
        <path id="Path_11525" data-name="Path 11525" d="M169.54,230.062s-20.472,11.567-25.683,7.388c-9.1-7.313-16.616-34.079-16.616-34.079s38.258-14.49,37.922-13.868S169.54,230.062,169.54,230.062Z" transform="translate(-114.317 -36.038)" fill="#ffb1a5"/>
        <path id="Path_11526" data-name="Path 11526" d="M162.61,229.44c-.361-2.065,7.587-24.29,10.311-32.636a3.657,3.657,0,0,0-2.91-4.627h0a4.229,4.229,0,0,0-4.726,1.94l-9.614,16.4Z" transform="translate(-107.388 -35.416)" fill="#ffb1a5"/>
        <path id="Path_11527" data-name="Path 11527" d="M163.485,209.861l-6.592-32.8a4.117,4.117,0,0,0-4.764-3.271h0a3.545,3.545,0,0,0-2.923,4l2.873,24.427Z" transform="translate(-108.972 -39.879)" fill="#ffb1a5"/>
        <path id="Path_11528" data-name="Path 11528" d="M153.369,198.177l-8.955-23.432a4.1,4.1,0,0,0-5.087-2.487h0a3.557,3.557,0,0,0-2.338,4.2l6.642,27.064Z" transform="translate(-111.965 -40.284)" fill="#ffb1a5"/>
        <path id="Path_11529" data-name="Path 11529" d="M146.22,203.618,134.889,180.6a4.515,4.515,0,0,0-5.746-2.2h0a3.918,3.918,0,0,0-2.027,5.186l9.03,21.766Z" transform="translate(-114.43 -38.822)" fill="#ffb1a5"/>
        <path id="Path_11530" data-name="Path 11530" d="M129.042,204.308l-8.893-14.1a3.184,3.184,0,0,1,1.555-4.254h0a3.632,3.632,0,0,1,4.44,1.244l11.691,16.169Z" transform="translate(-116.12 -36.975)" fill="#ffb1a5"/>
        <path id="Path_11531" data-name="Path 11531" d="M162.123,200.805s-13.345-1.393-14.714,16.393" transform="translate(-109.401 -33.285)" fill="none" stroke="#282828" stroke-linecap="round" stroke-linejoin="round" stroke-width="1.53"/>
        <path id="Path_11532" data-name="Path 11532" d="M182.73,316.3s10.97,37.947,32.822,32.9,55.906-51.715,55.906-51.715L263.835,217.8l-61.329,75.483Z" transform="translate(-100.792 -29.137)" fill="#ffb1a5"/>
        <path id="Path_11533" data-name="Path 11533" d="M213.93,260.956s20.7,31.23,38.37,42.287l11.554-14.6-44.6-34.5Z" transform="translate(-93.187 -20.279)" fill="#f3978e"/>
        <path id="Path_11534" data-name="Path 11534" d="M305.034,185.5s-60.794,13.681-93.194,84.351c0,0,19.577,29.5,50.994,42.611l21.007-25.745Z" transform="translate(-93.697 -37.009)" fill="#e64560"/>
        <path id="Path_11535" data-name="Path 11535" d="M294.35,186.353A152.224,152.224,0,0,0,255.67,214.7l4.689,206.536H410.006L409.521,215.8s-18.855-18.457-39.3-27.462C352.856,180.657,311.228,177.7,294.35,186.353Z" transform="translate(-83.013 -38.086)" fill="#e64560"/>
        <path id="Path_11536" data-name="Path 11536" d="M327,232.77h41.628v20.808a20.82,20.82,0,0,1-20.82,20.82h0A20.82,20.82,0,0,1,327,253.578Z" transform="translate(-65.627 -25.488)" fill="none" stroke="#282828" stroke-linecap="round" stroke-linejoin="round" stroke-width="1.4"/>
        <line id="Line_72" data-name="Line 72" y1="67.56" x2="1.94" transform="translate(326.756 211.971)" fill="none" stroke="#282828" stroke-linecap="round" stroke-linejoin="round" stroke-width="1.4"/>
        <line id="Line_73" data-name="Line 73" x1="3.234" y1="58.568" transform="translate(171.724 209.708)" fill="none" stroke="#282828" stroke-linecap="round" stroke-linejoin="round" stroke-width="1.4"/>
        <path id="Path_11537" data-name="Path 11537" d="M289.538,135.363l-6.219-30.857c-.348-2.487-1.331-6.405-.137-10.049,1.978-6.02,9.241-17.611,21.654-12.3l2.686,12.214s-12.885,2.6-18.059,19.465Z" transform="translate(-76.447 -62.529)" fill="#282828"/>
        <path id="Path_11538" data-name="Path 11538" d="M303.371,87c-.224,4.055-3.806,21.8-16.393,28.258C286.979,115.27,275.959,91.639,303.371,87Z" transform="translate(-75.916 -61.018)" fill="#282828"/>
        <path id="Path_11539" data-name="Path 11539" d="M347.507,191.019h0v-52.4H299.2v52.4l-14.39,6.53s3.383,21.728,39.054,22.213,39.253-21.144,39.253-21.144Z" transform="translate(-75.911 -48.436)" fill="#ffb1a5"/>
        <path id="Path_11540" data-name="Path 11540" d="M300.46,84.751s8.868-23.395,36.205-10.957c16.554,7.462,21.144,17.611,23.159,24.763a28.791,28.791,0,0,1,.746,8.346L353.953,138l-25.82-43.009-24.987,1.978Z" transform="translate(-72.096 -65.125)" fill="#282828"/>
        <path id="Path_11541" data-name="Path 11541" d="M344.038,125.325s3.259-5.186,9.95-2.637,3.731,18.868-6.405,20.945a8,8,0,0,1-6.443-1.679S343.64,129.9,344.038,125.325Z" transform="translate(-62.181 -52.491)" fill="#f3978e"/>
        <path id="Path_11542" data-name="Path 11542" d="M352.307,127.216s-5.634-1.878-9.627,6.405" transform="translate(-61.805 -51.26)" fill="none" stroke="#282828" stroke-linecap="round" stroke-linejoin="round" stroke-width="1.4"/>
        <path id="Path_11543" data-name="Path 11543" d="M290.834,125.325s-3.259-5.186-9.95-2.637-3.731,18.868,6.393,20.945a8,8,0,0,0,6.443-1.679S291.219,129.9,290.834,125.325Z" transform="translate(-77.743 -52.491)" fill="#f3978e"/>
        <path id="Path_11544" data-name="Path 11544" d="M281.23,127.216s5.622-1.878,9.614,6.405" transform="translate(-76.783 -51.26)" fill="none" stroke="#282828" stroke-linecap="round" stroke-linejoin="round" stroke-width="1.4"/>
        <path id="Path_11545" data-name="Path 11545" d="M357.757,119.069c0,9.838-.97,30.41-7.015,42.623-5.672,11.467-15.062,17.649-27.362,18.009s-21.479-4.378-28.83-19.253-6.99-41.193-6.99-41.193,0-35.136,34.725-35.136C358.852,84.12,357.757,119.069,357.757,119.069Z" transform="translate(-75.241 -61.72)" fill="#ffb1a5"/>
        <path id="Path_11546" data-name="Path 11546" d="M296.67,151.38s4.042,20.534,21.915,22.9c20.559,2.711,26.032-22.387,26.032-22.387s-9.079,11.393-23.457,11.405A31.417,31.417,0,0,1,296.67,151.38Z" transform="translate(-73.02 -45.326)" fill="#282828"/>
        <path id="Path_11547" data-name="Path 11547" d="M313.79,124v8.134a2.562,2.562,0,0,0,.187.983,2.624,2.624,0,0,0,3.122,1.455l2.7-.721" transform="translate(-68.847 -52)" fill="none" stroke="#282828" stroke-linecap="round" stroke-linejoin="round" stroke-width="1.4"/>
        <path id="Path_11548" data-name="Path 11548" d="M306.793,121.449a3.172,3.172,0,1,1-3.172-3.159,3.172,3.172,0,0,1,3.172,3.159Z" transform="translate(-72.099 -53.391)" fill="#282828"/>
        <path id="Path_11549" data-name="Path 11549" d="M330.623,121.449a3.172,3.172,0,1,1-3.172-3.159A3.172,3.172,0,0,1,330.623,121.449Z" transform="translate(-66.29 -53.391)" fill="#282828"/>
        <path id="Path_11550" data-name="Path 11550" d="M320.33,108.807l21.256,5.5s-.97-5.97-9.664-8.134S320.33,108.807,320.33,108.807Z" transform="translate(-67.253 -56.482)" fill="#282828"/>
        <path id="Path_11551" data-name="Path 11551" d="M313.876,108.807l-21.256,5.5s.97-5.97,9.664-8.134S313.876,108.807,313.876,108.807Z" transform="translate(-74.007 -56.482)" fill="#282828"/>
        <path id="Path_11552" data-name="Path 11552" d="M306.31,137.08s3.134,2.4,11.38,2.4a28.8,28.8,0,0,0,12.176-2.4" transform="translate(-70.67 -48.812)" fill="none" stroke="#282828" stroke-linecap="round" stroke-linejoin="round" stroke-width="1.4"/>
        <circle id="Ellipse_362" data-name="Ellipse 362" cx="13.432" cy="13.432" r="13.432" transform="translate(217.245 55.546)" fill="none" stroke="#fff" stroke-miterlimit="10" stroke-width="1.95"/>
        <circle id="Ellipse_363" data-name="Ellipse 363" cx="13.432" cy="13.432" r="13.432" transform="translate(250.241 55.546)" fill="none" stroke="#fff" stroke-miterlimit="10" stroke-width="1.95"/>
        <path id="Path_11553" data-name="Path 11553" d="M313.12,121.829s3.184-2.973,6.132,0" transform="translate(-69.01 -52.851)" fill="none" stroke="#fff" stroke-miterlimit="10" stroke-width="1.95"/>
        <line id="Line_74" data-name="Line 74" x1="4.502" y1="0.112" transform="translate(212.742 68.866)" fill="none" stroke="#fff" stroke-miterlimit="10" stroke-width="1.95"/>
        <line id="Line_75" data-name="Line 75" y1="0.075" x2="5.025" transform="translate(277.106 68.903)" fill="none" stroke="#fff" stroke-miterlimit="10" stroke-width="1.95"/>
        <path id="Path_11554" data-name="Path 11554" d="M296.67,89.176s6.455,18.333,35.559,17.773c19.776-.386,24.5,13.93,24.5,13.93s-3.445-32-4.341-31.7-30.1-7.786-30.1-7.786Z" transform="translate(-73.02 -62.386)" fill="#282828"/>
      </g>
    </g>
  </g>
</svg>
