<svg xmlns="http://www.w3.org/2000/svg" width="2097.74" height="1324.638" viewBox="0 0 2097.74 1324.638">
  <g id="Group_4147" data-name="Group 4147" transform="translate(61.027 -68.362)" opacity="0.7">
    <g id="Group_2774" data-name="Group 2774" transform="translate(-91.027 45)">
      <g id="Group_2748" data-name="Group 2748" transform="translate(-3982.024)">
        <circle id="Ellipse_337" data-name="Ellipse 337" cx="15.5" cy="15.5" r="15.5" transform="translate(4168.024 547)" fill="#29abe2"/>
        <circle id="Ellipse_352" data-name="Ellipse 352" cx="15.5" cy="15.5" r="15.5" transform="translate(4316.024 1124)" fill="#29abe2"/>
        <circle id="Ellipse_340" data-name="Ellipse 340" cx="13" cy="13" r="13" transform="translate(5627.024 610)" fill="#29abe2"/>
        <circle id="Ellipse_354" data-name="Ellipse 354" cx="13" cy="13" r="13" transform="translate(5728.024 1155)" fill="#29abe2"/>
        <circle id="Ellipse_342" data-name="Ellipse 342" cx="8.5" cy="8.5" r="8.5" transform="translate(5684.024 861)" fill="#2e3192"/>
        <circle id="Ellipse_338" data-name="Ellipse 338" cx="4" cy="4" r="4" transform="translate(4744.024 144)" fill="#e64560"/>
        <circle id="Ellipse_341" data-name="Ellipse 341" cx="8.5" cy="8.5" r="8.5" transform="translate(5754.024 282)" fill="#e64560"/>
        <circle id="Ellipse_339" data-name="Ellipse 339" cx="8.5" cy="8.5" r="8.5" transform="translate(4338.024 754)" fill="#2e3192"/>
        <circle id="Ellipse_353" data-name="Ellipse 353" cx="8.5" cy="8.5" r="8.5" transform="translate(4160.024 1331)" fill="#2e3192"/>
        <circle id="Ellipse_349" data-name="Ellipse 349" cx="7" cy="7" r="7" transform="translate(5178.024 115)" fill="#29abe2"/>
        <g id="Polygon_1" data-name="Polygon 1" transform="translate(4418.051 255.51) rotate(-30)" fill="none">
          <path d="M10.5,0,21,18H0Z" stroke="none"/>
          <path d="M 10.5 5.953907012939453 L 5.223112106323242 15 L 15.77688789367676 15 L 10.5 5.953907012939453 M 10.5 0 L 21 18 L 0 18 L 10.5 0 Z" stroke="none" fill="#e64560"/>
        </g>
        <g id="Polygon_11" data-name="Polygon 11" transform="translate(4473.051 920.51) rotate(-30)" fill="none">
          <path d="M10.5,0,21,18H0Z" stroke="none"/>
          <path d="M 10.5 5.953907012939453 L 5.223112106323242 15 L 15.77688789367676 15 L 10.5 5.953907012939453 M 10.5 0 L 21 18 L 0 18 L 10.5 0 Z" stroke="none" fill="#e64560"/>
        </g>
        <g id="Polygon_6" data-name="Polygon 6" transform="translate(4247.051 145.51) rotate(-30)" fill="none">
          <path d="M10.5,0,21,18H0Z" stroke="none"/>
          <path d="M 10.5 5.953907012939453 L 5.223112106323242 15 L 15.77688789367676 15 L 10.5 5.953907012939453 M 10.5 0 L 21 18 L 0 18 L 10.5 0 Z" stroke="none" fill="#29abe2"/>
        </g>
        <g id="Polygon_2" data-name="Polygon 2" transform="translate(5411.757 809.51) rotate(-30)" fill="none">
          <path d="M10.5,0,21,18H0Z" stroke="none"/>
          <path d="M 10.5 5.953907012939453 L 5.223112106323242 15 L 15.77688789367676 15 L 10.5 5.953907012939453 M 10.5 0 L 21 18 L 0 18 L 10.5 0 Z" stroke="none" fill="#2e3192"/>
        </g>
        <g id="Polygon_12" data-name="Polygon 12" transform="translate(5839.757 1296.51) rotate(-30)" fill="none">
          <path d="M10.5,0,21,18H0Z" stroke="none"/>
          <path d="M 10.5 5.953907012939453 L 5.223112106323242 15 L 15.77688789367676 15 L 10.5 5.953907012939453 M 10.5 0 L 21 18 L 0 18 L 10.5 0 Z" stroke="none" fill="#2e3192"/>
        </g>
        <g id="Polygon_3" data-name="Polygon 3" transform="translate(5465.753 346.51) rotate(-30)" fill="none">
          <path d="M10.5,0,21,18H0Z" stroke="none"/>
          <path d="M 10.5 5.953907012939453 L 5.223112106323242 15 L 15.77688789367676 15 L 10.5 5.953907012939453 M 10.5 0 L 21 18 L 0 18 L 10.5 0 Z" stroke="none" fill="#29abe2"/>
        </g>
        <g id="Polygon_13" data-name="Polygon 13" transform="translate(4874.753 646.51) rotate(-30)" fill="none">
          <path d="M10.5,0,21,18H0Z" stroke="none"/>
          <path d="M 10.5 5.953907012939453 L 5.223112106323242 15 L 15.77688789367676 15 L 10.5 5.953907012939453 M 10.5 0 L 21 18 L 0 18 L 10.5 0 Z" stroke="none" fill="#29abe2"/>
        </g>
      </g>
      <g id="Polygon_5" data-name="Polygon 5" transform="matrix(-0.978, 0.208, -0.208, -0.978, 2109.949, 912.941)" fill="none">
        <path d="M86,0l86,147H0Z" stroke="none"/>
        <path d="M 86 39.60666656494141 L 34.87193298339844 127 L 137.1280822753906 127 L 86 39.60666656494141 M 86 0 L 172 147 L 0 147 L 86 0 Z" stroke="none" fill="#3a4ace"/>
      </g>
      <g id="Polygon_10" data-name="Polygon 10" transform="matrix(-0.978, 0.208, -0.208, -0.978, 914.553, 1104.033)" fill="none">
        <path d="M56.5,0,113,97H0Z" stroke="none"/>
        <path d="M 56.50000381469727 29.80229949951172 L 26.09619140625 82 L 86.90381622314453 82 L 56.50000381469727 29.80229949951172 M 56.50000381469727 0 L 113 97 L 7.62939453125e-06 97 L 56.50000381469727 0 Z" stroke="none" fill="#e64560"/>
      </g>
      <g id="Polygon_14" data-name="Polygon 14" transform="matrix(-0.978, 0.208, -0.208, -0.978, 1537.553, 136.033)" fill="none">
        <path d="M56.5,0,113,97H0Z" stroke="none"/>
        <path d="M 56.50000381469727 29.80229949951172 L 26.09619140625 82 L 86.90381622314453 82 L 56.50000381469727 29.80229949951172 M 56.50000381469727 0 L 113 97 L 7.62939453125e-06 97 L 56.50000381469727 0 Z" stroke="none" fill="#d9e9fe"/>
      </g>
      <g id="Ellipse_351" data-name="Ellipse 351" transform="translate(45 237)" fill="none" stroke="#d9e9fe" stroke-width="20">
        <circle cx="61" cy="61" r="61" stroke="none"/>
        <circle cx="61" cy="61" r="51" fill="none"/>
      </g>
      <g id="Ellipse_355" data-name="Ellipse 355" transform="translate(1925 160)" fill="none" stroke="#e64560" stroke-width="20">
        <circle cx="30" cy="30" r="30" stroke="none"/>
        <circle cx="30" cy="30" r="20" fill="none"/>
      </g>
      <g id="Ellipse_356" data-name="Ellipse 356" transform="translate(76 1194)" fill="none" stroke="#3a4ace" stroke-width="20">
        <circle cx="30" cy="30" r="30" stroke="none"/>
        <circle cx="30" cy="30" r="20" fill="none"/>
      </g>
    </g>
  </g>
</svg>
