<svg xmlns="http://www.w3.org/2000/svg" width="1200.484" height="750.863" viewBox="0 0 1200.484 750.863">
  <g id="Layer_2" data-name="Layer 2" transform="translate(0 -0.004)">
    <g id="_Layer_" data-name="&lt;Layer&gt;" transform="translate(0 0.004)">
      <path id="Path_11400" data-name="Path 11400" d="M1049.49,946.958s86.214,20.437,128.658-72.192c55.064-120.178-22.219-234.335-155.53-242.56C830.344,620.349,936.9,313.357,633.5,396.666c-85.316,23.419-270.877-97.479-380.112,107.371-18.574,34.833-74.1,33.133-148.077,92.548-130.493,104.826-83.515,351.5,26.411,352.606S1049.49,946.958,1049.49,946.958Z" transform="translate(-13.674 -198.684)" fill="#d9e9fe"/>
      <path id="Path_11401" data-name="Path 11401" d="M285.91,1464.958s4.01-26.262,55.145-33.33,98.694-63.712,183.031-55.506,154.315,59.808,250.315,44,156.111,4.322,177.643,20.23,110.646-3.726,117.23,25.388Z" transform="translate(-148.618 -714.898)" fill="#3a4ace"/>
      <path id="Path_11402" data-name="Path 11402" d="M684.659,258.809s-57.719-2.8-27.1,173.091c0,0,20.6,59.712-5.4,98.2h382.777V258.79Z" transform="translate(-337.148 -134.522)" fill="#afcdfb"/>
      <path id="Path_11403" data-name="Path 11403" d="M792.149,1141.233s-26.742-31.213-1.647-51.016c0,0,18.324-11.1,33.273-10.194,0,0-21.177,35.534-14.324,39.045s20.74-41.273,20.74-41.273,41.71-4.043,55.131,2.4c0,0-35.659,29.182-28.149,30.92s46.022-26.891,46.022-26.891,38.824,6.608,36.754,30.286-15.448,31-21.326,30.367-40.269-13.758-41.018-8.941,19.952,20.562,34.449,21.3c0,0-27.371,30.18-45.561,21.474s-19.741-22.521-31.083-27.7-21.018-5.162-16.327.115,25.205,10.42,31.693,21.887,12.3,19.208-6.516,16.375-49.412-16.6-50.752-32.37Z" transform="translate(-405.324 -559.595)" fill="#3566c9"/>
      <path id="Path_11404" data-name="Path 11404" d="M908.878,1156.731s-105.436-4.067-128.721,26.089c0,0-5.148,15.424-20.994,29.465l-2.473,6.723s18.247-19.265,24.812-20.427C781.5,1198.59,771.273,1161.231,908.878,1156.731Z" transform="translate(-393.332 -601.183)" fill="#3566c9"/>
      <path id="Path_11405" data-name="Path 11405" d="M735.637,1269.751s-22.632,16.74-24.207,46.646l4.11.365s7.2-30.92,20.293-43.011S735.637,1269.751,735.637,1269.751Z" transform="translate(-369.806 -658.649)" fill="#3566c9"/>
      <path id="Path_11406" data-name="Path 11406" d="M441.973,1010.3s42.54-23.818,22.689-56.149c0,0-15.885-19.851-32.9-24.97,0,0,9.076,48.211,0,49.345s-6.238-54.444-6.238-54.444-44.807-21.556-62.392-19.851c0,0,27.794,47.059,18.728,45.94s-40.274-48.778-40.274-48.778-45.94-8.509-53.3,18.728,4.538,40.816,11.347,42.54,50.478,1.133,49.345,6.8-30.627,14.747-47.059,9.642c0,0,18.151,44.807,41.974,42.54s31.213-17.018,45.94-18.151,25.527,2.838,18.151,6.8-32.331,1.3-44.24,11.429-21.58,16.365.509,20.9,61.825,1.7,69.763-15.313Z" transform="translate(-148.647 -467.895)" fill="#6d89d0"/>
      <path id="Path_11407" data-name="Path 11407" d="M334.46,959.47s119.088,38.569,132.721,81.671c0,0-.567,19.285,11.342,41.407v8.509s-12.485-28.927-19.285-32.9C459.238,1058.164,485.9,1020.709,334.46,959.47Z" transform="translate(-173.854 -498.74)" fill="#6d89d0"/>
      <path id="Path_11408" data-name="Path 11408" d="M628.313,1210.076s18.372,27.895,7.9,61.849l-4.725-1.272s4.586-37.4-5.023-56.183S628.313,1210.076,628.313,1210.076Z" transform="translate(-323.645 -626.268)" fill="#6d89d0"/>
      <path id="Path_11409" data-name="Path 11409" d="M711.882,903.954s-56.082-31.4-29.906-74.017c0,0,20.932-26.166,43.362-32.893,0,0-11.962,63.549,0,65.042s8.226-71.775,8.226-71.775,59.064-28.408,82.243-26.166c0,0-36.634,62.055-24.672,60.557s53.081-64.3,53.081-64.3,60.562-11.212,70.281,24.672-5.978,53.834-14.953,56.077-66.55,1.489-65.047,8.951,40.375,19.438,62.055,12.711c0,0-23.923,59.064-55.323,56.077s-41.124-22.43-60.562-23.928-33.642,3.741-23.923,8.975,42.612,1.714,58.315,15.059,28.413,21.575-.744,27.554-81.5,2.247-91.967-20.168Z" transform="translate(-350.877 -394.403)" fill="#3a4ace"/>
      <path id="Path_11410" data-name="Path 11410" d="M910.552,836.93S753.529,887.768,735.6,944.594c0,0,.744,25.421-14.953,54.579v11.213s16.447-38.128,25.417-43.362C746.067,967.024,710.926,917.675,910.552,836.93Z" transform="translate(-374.598 -435.043)" fill="#6d89d0"/>
      <path id="Path_11411" data-name="Path 11411" d="M704.776,1167.241s-24.216,36.768-10.411,81.527l6.243-1.676s-6.046-49.3,6.622-74.094S704.776,1167.241,704.776,1167.241Z" transform="translate(-358.724 -603.111)" fill="#6d89d0"/>
      <path id="Path_11412" data-name="Path 11412" d="M628.95,1427.8a109.839,109.839,0,0,0,109.839-109.84H519.11A109.839,109.839,0,0,0,628.95,1427.8Z" transform="translate(-269.837 -685.086)" fill="#d22744"/>
      <path id="Path_11413" data-name="Path 11413" d="M670.477,1427A109.911,109.911,0,0,1,547,1318h27.285A109.873,109.873,0,0,0,670.477,1427Z" transform="translate(-284.334 -685.107)" fill="#e64560"/>
      <path id="Path_11414" data-name="Path 11414" d="M738.69,1543.671H516a13.551,13.551,0,0,1,13.551-13.551H725.139a13.551,13.551,0,0,1,13.551,13.551Z" transform="translate(-268.22 -795.368)" fill="#e64560"/>
      <rect id="Rectangle_3055" data-name="Rectangle 3055" width="225.792" height="3.371" transform="translate(245.662 632.874)" fill="#e64560"/>
      <path id="Path_11415" data-name="Path 11415" d="M1568.766,389.635s-19.241-36.3,9.6-50.132c0,0,20.317-6.8,34.7-2.641,0,0-28.456,30-22.569,34.949S1619.8,336.1,1619.8,336.1s41.58,5.21,53.258,14.444c0,0-41.191,20.648-34.247,23.986s50.8-16.144,50.8-16.144,36.423,14.968,29.205,37.614-21.873,26.852-27.467,24.946-36.269-22.262-38.055-17.724,14.953,24.437,28.932,28.331c0,0-33.325,23.438-49.162,10.948s-14.315-26.305-24.24-33.844-19.371-9.652-15.966-3.472,22.305,15.693,26.113,28.3,7.784,21.441-9.954,14.545-44.557-27.04-42.406-42.737Z" transform="translate(-812.187 -174.405)" fill="#3566c9"/>
      <path id="Path_11416" data-name="Path 11416" d="M1673.472,440.062s-101.979-27.107-131.314-2.8c0,0-8.408,13.926-26.948,24.144l-3.89,6.022s22.055-14.785,28.692-14.483C1540.026,452.946,1538.249,414.252,1673.472,440.062Z" transform="translate(-785.594 -222.032)" fill="#3566c9"/>
      <path id="Path_11417" data-name="Path 11417" d="M1482.8,496.993s-25.753,11.361-33.854,40.192l3.928,1.258s13.863-28.581,29.229-37.513S1482.8,496.993,1482.8,496.993Z" transform="translate(-753.173 -257.619)" fill="#3566c9"/>
      <path id="Path_11418" data-name="Path 11418" d="M1270.176,149.75s-56.984-29.7-32.1-73.1c0,0,20.168-26.78,42.367-34.175,0,0-10.084,63.866,1.921,65.018s6.1-71.962,6.1-71.962,58.19-30.18,81.427-28.629c0,0-34.771,63.117-22.857,61.268s51.145-65.849,51.145-65.849,60.2-13.013,70.982,22.569-4.375,53.983-13.277,56.495-66.469,3.472-64.749,10.905,40.932,18.247,62.425,10.857c0,0-22.156,59.751-53.633,57.7s-41.777-21.2-61.249-22.089-33.517,4.74-23.645,9.681,42.651.447,58.742,13.321,29.037,20.716.072,27.563-81.393,4.667-92.524-17.441Z" transform="translate(-640.291 -0.004)" fill="#3a4ace"/>
      <path id="Path_11419" data-name="Path 11419" d="M1468.98,76.9s-155.424,55.491-171.669,112.846c0,0,1.5,25.388-13.321,55l.331,11.208s15.308-38.6,24.12-44.1C1308.441,211.83,1271.846,163.551,1468.98,76.9Z" transform="translate(-667.426 -39.975)" fill="#6d89d0"/>
      <path id="Path_11420" data-name="Path 11420" d="M1269.8,418.61s-23.107,37.455-7.976,81.8l6.175-1.858s-7.51-49.1,4.413-74.257S1269.8,418.61,1269.8,418.61Z" transform="translate(-653.236 -213.862)" fill="#6d89d0"/>
      <rect id="Rectangle_3056" data-name="Rectangle 3056" width="399.632" height="521.173" transform="translate(371.78 228.412)" fill="#9abcef"/>
      <rect id="Rectangle_3057" data-name="Rectangle 3057" width="392.914" height="521.173" transform="translate(384.846 228.412)" fill="#f8fbff"/>
      <path id="Path_11421" data-name="Path 11421" d="M2109.564,1463.231H2030.39c-4.245-3.6,2.934-11.77,10.435-12.322,3.26-.245,7.376.437,12.086,1.441,1.09-14.473,7.309-79.525,30.761-76.913,26.367,2.929,0,28.648-7.453,43.88-5.522,11.28-11.347,27.453-14.007,35.088,2.137.48,4.355.917,6.617,1.335,3.5-10.727,16.5-46.824,33.037-44.72,19.415,2.463,11.611,16.936-2.151,25.522-10.084,6.319-22.492,15.3-28.385,19.635a84.224,84.224,0,0,0,15.486,1.239C2100.378,1457.085,2107,1461.08,2109.564,1463.231Z" transform="translate(-1054.751 -714.923)" fill="#3a4ace"/>
      <path id="Path_11422" data-name="Path 11422" d="M1157.78,362.94H764.861c2.171-29.71-1.1-51.285-6.348-66.8-10.084-29.834-27.443-37.321-27.443-37.321h370.556c31.626,0,56.149,19.054,62.824,44.346.25.96.48,1.9.682,2.843C1171.47,334.95,1158.039,362.412,1157.78,362.94Z" transform="translate(-380.015 -134.538)" fill="#f8fbff"/>
      <path id="Path_11423" data-name="Path 11423" d="M1187.487,403.34H794.568c2.17-29.71-1.1-51.285-6.348-66.8,40.154,7.352,139.6,23.021,246.051,20.379,68.85-1.7,123.29-6.31,160.567-10.507C1201.177,375.349,1187.746,402.812,1187.487,403.34Z" transform="translate(-409.722 -174.937)" fill="#f8fbff"/>
      <rect id="Rectangle_3058" data-name="Rectangle 3058" width="216.15" height="9.772" rx="0.35" transform="translate(461.711 338.813)" fill="#bbd5fc"/>
      <rect id="Rectangle_3059" data-name="Rectangle 3059" width="134.68" height="9.772" rx="0.35" transform="translate(461.711 355.255)" fill="#bbd5fc"/>
      <path id="Path_11424" data-name="Path 11424" d="M913.469,730.214V710.252h-2.636q-2.4,0-2.4-2,0-1.441,1.878-2.036a13.929,13.929,0,0,1,3.054-.48q2.1-.158,3.361-.158c.826,0,1.345.168,1.556.48a5.891,5.891,0,0,1,.322,2.535V730.2h2.713q2.636,0,2.636,2.276,0,2.4-2.636,2.4H910.4a3.021,3.021,0,0,1-1.921-.619,2.093,2.093,0,0,1-.778-1.738q0-2.315,2.675-2.315Z" transform="translate(-471.825 -366.767)" fill="#bbd5fc"/>
      <rect id="Rectangle_3060" data-name="Rectangle 3060" width="216.15" height="9.772" rx="0.35" transform="translate(461.711 441.743)" fill="#d2e4fd"/>
      <rect id="Rectangle_3061" data-name="Rectangle 3061" width="134.68" height="9.772" rx="0.35" transform="translate(461.711 458.189)" fill="#d2e4fd"/>
      <path id="Path_11425" data-name="Path 11425" d="M924.189,944.151q0,1.993-2.79,1.993H909.827c-1.671,0-2.507-.667-2.507-2.012a2.536,2.536,0,0,1,.672-1.479q.989-1.128,2.881-3.39,2.881-3.63,4.836-6.281.672-.879,1.921-2.68a6.5,6.5,0,0,0,1.023-3.035,3.112,3.112,0,0,0-.884-2.276,3.015,3.015,0,0,0-2.257-.9,3.453,3.453,0,0,0-2.329.845,4.014,4.014,0,0,0-1.061,2.118,22.9,22.9,0,0,1-.634,2.329,1.782,1.782,0,0,1-1.729,1.128,1.974,1.974,0,0,1-1.657-.778,2.627,2.627,0,0,1-.567-1.762,8.517,8.517,0,0,1,.389-2.507,7.559,7.559,0,0,1,3-4.163,8.729,8.729,0,0,1,4.98-1.378,7.712,7.712,0,0,1,5.359,1.954,6.814,6.814,0,0,1,2.233,5.22,9.124,9.124,0,0,1-1.6,4.864q-.884,1.383-3.635,4.879-1.412,1.8-4.447,5.229h7.621Q924.194,942.087,924.189,944.151Z" transform="translate(-471.631 -478.183)" fill="#d2e4fd"/>
      <rect id="Rectangle_3062" data-name="Rectangle 3062" width="216.15" height="9.772" rx="0.35" transform="translate(461.711 527.606)" fill="#d2e4fd"/>
      <rect id="Rectangle_3063" data-name="Rectangle 3063" width="134.68" height="9.772" rx="0.35" transform="translate(461.711 544.053)" fill="#d2e4fd"/>
      <path id="Path_11426" data-name="Path 11426" d="M923.705,1115.6a7.548,7.548,0,0,1-2.636,6.022,9.279,9.279,0,0,1-6.31,2.166,8.821,8.821,0,0,1-5.052-1.407q-3.318-2.233-3.318-5.373a2.256,2.256,0,0,1,.576-1.551,1.892,1.892,0,0,1,1.479-.648,2.216,2.216,0,0,1,1.767,1.263c.893,1.393,1.407,2.166,1.551,2.31a4.033,4.033,0,0,0,3.068,1.258,3.837,3.837,0,0,0,3.606-1.873,5,5,0,0,0,.48-2.4q0-3.534-4.149-3.933c-1.561-.144-2.343-.8-2.343-1.983a1.887,1.887,0,0,1,1.364-1.839q2.54-.936,2.579-.96a3.488,3.488,0,0,0,1.359-3.136,2.843,2.843,0,0,0-.787-2.113,2.914,2.914,0,0,0-2.122-.773,3.879,3.879,0,0,0-2.588.792,5.19,5.19,0,0,0-1.33,2.343,1.643,1.643,0,0,1-1.652,1.263,1.69,1.69,0,0,1-1.441-.754,2.766,2.766,0,0,1-.557-1.661,4.59,4.59,0,0,1,.615-2.238,6.89,6.89,0,0,1,3.1-2.92,9.073,9.073,0,0,1,4.182-.96,7.294,7.294,0,0,1,5.1,1.858,6.3,6.3,0,0,1,2.036,4.888,6.694,6.694,0,0,1-3.03,5.762A6.531,6.531,0,0,1,923.705,1115.6Z" transform="translate(-471.147 -569.966)" fill="#d2e4fd"/>
      <rect id="Rectangle_3064" data-name="Rectangle 3064" width="137.883" height="11.357" rx="0.41" transform="translate(515.858 251.673)" fill="#bbd5fc"/>
      <path id="Path_11427" data-name="Path 11427" d="M1002.066,560.57h207.021a.192.192,0,0,1,.192.192V571.73a.2.2,0,0,1-.2.2H1002.066a.2.2,0,0,1-.2-.2V560.776a.192.192,0,0,1,.2-.206Z" transform="translate(-520.778 -291.39)" fill="#bbd5fc"/>
      <path id="Path_11428" data-name="Path 11428" d="M1012.109,726.515c-42.8,0-83.419-5.373-113.7-13.052-30.593-7.755-47.059-20.432-47.059-31.693,0-10.194,13.445-19.563,38.838-27.107h0c-24.346,7.2-37.369,17.839-37.369,27.107,0,10.281,16.879,20.456,46.31,27.918,30.171,7.65,70.3,11.861,112.994,11.861s82.824-4.211,113-11.861c29.426-7.462,46.305-17.637,46.305-27.918,0-10.891-17.767-24.423-46.382-35.313-32.533-12.389-72.634-16.984-112.922-16.984-75.63,0-106.766,8.831-133.782,19.894h0c27.131-11.112,57.883-23.707,133.782-23.707,40.447,0,80.725,6.852,113.408,19.3,29.215,11.126,47.366,25.229,47.366,36.812,0,11.241-16.85,21.7-47.443,29.46C1095.159,718.928,1054.914,726.515,1012.109,726.515Z" transform="translate(-442.537 -325.224)" fill="#d22744"/>
      <path id="Path_11429" data-name="Path 11429" d="M1708.736,1041.593s-1.407,13.7-2.953,16.293-8.135,10.877-10.939,12.485,1.714-10.915,1.143-13.354-2.31,4.456-3.544,4.615-.917-6.041-.96-8.3,6.017-7.832,8.163-12.639S1708.736,1041.593,1708.736,1041.593Z" transform="translate(-879.24 -539.961)" fill="#fc9490"/>
      <path id="Path_11430" data-name="Path 11430" d="M1351.976,755.784l-3.15-5.94s1.561-10.588-11.707-17.287c0,0-4.845-1.974-7.582,1.978-2.521,3.645,4.8,2.987,4.408,9.22s2.564,9.887,6.684,11.914l3.4,3.942Z" transform="translate(-690.827 -380.533)" fill="#fc9490"/>
      <path id="Path_11431" data-name="Path 11431" d="M1488.418,749.669s-11.4,55.919-74.089,74.19c-19.573,5.7-64.039-58.733-64.039-58.733s1.565-5.94,11.357-4.576c0,0,43.294,28.663,48.745,31.779,4.835,2.761,36.643-35.534,51.141-41.69A37.119,37.119,0,0,1,1488.418,749.669Z" transform="translate(-701.889 -388.623)" fill="#e64560"/>
      <rect id="Rectangle_3065" data-name="Rectangle 3065" width="11.712" height="58.905" transform="matrix(0.152, -0.988, 0.988, 0.152, 617.898, 361.614)" fill="#e64560"/>
      <path id="Path_11432" data-name="Path 11432" d="M1260.47,732.687l12.648,7.866,1.777-11.573Z" transform="translate(-655.2 -378.93)" fill="#d22744"/>
      <path id="Path_11433" data-name="Path 11433" d="M1416.007,752.479l-.562,3.659a4.125,4.125,0,0,1-4.7,3.453l-2.694-.418,1.781-11.573,2.929.451a3.885,3.885,0,0,1,3.246,4.427Z" transform="translate(-731.913 -388.609)" fill="#d22744"/>
      <path id="Path_11434" data-name="Path 11434" d="M1763.285,1480.3s7.779,7.1,6.243,12.144-8.538,8.4-9.489,14.569-4.739,9.527-8.163,9.527h-16.283s-2.511-4.322,3.558-5.647,8.36-8.552,7.981-15.275a118.429,118.429,0,0,1,.571-15.693l12.9-2.987Z" transform="translate(-901.904 -767.724)" fill="#293eb7"/>
      <path id="Path_11435" data-name="Path 11435" d="M1545.614,1515.372s1.4,16.154-2.017,17.834l-43.7-.086s0-5.047,7.02-6.166,19.352-5.229,21.436-14.406S1545.614,1515.372,1545.614,1515.372Z" transform="translate(-779.658 -784.438)" fill="#293eb7"/>
      <path id="Path_11436" data-name="Path 11436" d="M1518.27,1042.774s2.305,28.331,5.013,62.358c3.683,46.238,8.111,103.03,8.547,113.806.759,18.684,3.8,48.567,3.8,48.567s7.2,7.1,21.609,4.11c0,0,12.85-42.665,16.519-87.8l.173-2.228c3.414-45.954,8.725-142.714,8.725-142.714Z" transform="translate(-789.206 -540.013)" fill="#3a4ace"/>
      <path id="Path_11437" data-name="Path 11437" d="M1518.27,1042.758s2.305,28.331,5.013,62.358l50.493,78.665.173-2.228c3.414-45.955,8.725-142.714,8.725-142.714Z" transform="translate(-789.206 -539.997)" fill="#293eb7"/>
      <path id="Path_11438" data-name="Path 11438" d="M1540.19,1033.972s41.546,102.55,68.865,150.742,35.856,61.642,35.856,61.642,15.65-6.166,17.071-10.367c0,0-10.444-93.037-28.74-115.727-10.339-12.816-22.483-51.275-23.049-64.725s-3.7-40.067-3.7-40.067Z" transform="translate(-800.6 -527.85)" fill="#3a4ace"/>
      <path id="Path_11439" data-name="Path 11439" d="M1606.032,687.991s-28.106,13.565-44.312,8.533a38.2,38.2,0,0,1,10.968-8.778c-.562-3.251-.994-6.074-1.248-8.471a78.648,78.648,0,0,1-.682-8.643L1581.6,662.1l10.286-8.163C1591.084,676.884,1606.032,687.991,1606.032,687.991Z" transform="translate(-811.792 -339.924)" fill="#fc9490"/>
      <path id="Path_11440" data-name="Path 11440" d="M1595.742,862.769c.062,1.719-3.611,3.683-5.234,4.423-12,5.282-23.246,8.961-35.962,10.185-15.025,1.537-32.788-1.839-38.9-1.719a2.535,2.535,0,0,1-1.681-.672c-.437-.307-.749-18.411-.437-41.181,0-.922,0-1.844.063-2.761v-.307c.125-8.9.432-18.247.869-27.558.874-20.5,2.5-40.259,5.239-51.184,3.3-12.888,10.78-21.421,17.575-27.616l5.609-4.893a26.988,26.988,0,0,0,17.455-2.084c6.483-3.131,13.445-6.507,14.583-5.647,8.476,6.194,14.209,20.13,17.287,37.935a197.6,197.6,0,0,1,2.555,33.758c0,4.418-.125,8.96-.375,13.445-1.5,24.3,0,45.412.874,57.623C1595.493,858.044,1595.68,860.805,1595.742,862.769Z" transform="translate(-786.678 -369.905)" fill="#d22744"/>
      <path id="Path_11441" data-name="Path 11441" d="M1630.786,902.836c-98.44-.2-18.156-106.814-18.156-106.814l15.947-5.181a310.987,310.987,0,0,1,1.849,36.067c0,4.72-.091,9.57-.274,14.358C1629.072,867.229,1630.153,889.789,1630.786,902.836Z" transform="translate(-822.217 -411.085)" fill="#e64560"/>
      <path id="Path_11442" data-name="Path 11442" d="M1601.91,671.54s-7.107,12.965-20.648,16.571a78.621,78.621,0,0,1-.682-8.643l10.843-8.528Z" transform="translate(-821.596 -348.761)" fill="#f48484"/>
      <path id="Path_11443" data-name="Path 11443" d="M1564.574,640.615s26.814,4.389,29.335-12.1,7.683-27.025-9.345-30.521-21.311,2.3-23.529,7.6S1557.664,639.05,1564.574,640.615Z" transform="translate(-810.545 -310.292)" fill="#fc9490"/>
      <path id="Path_11444" data-name="Path 11444" d="M1594.293,585.144c.245-.279.807-.48,2.055-.576a5.076,5.076,0,0,0-2.334-.658c-.259-1.733-1.186-4.8-4.178-5.556a3.745,3.745,0,0,1,1.82,2.7c-3.467-3.558-10.886-6.146-31.438-4.523-27.088,2.137-18.156,19.477-14.651,21.546s12.331-3.6,18.862-3.083,7.779,9.959,9.993,11.256,1.344-1,4.322-2.353,3.285,3.611,2.4,6.843,3.256,7.5,3.256,7.5l4.163-4.485c4.163-4.485,8.086-23.477,6.194-27.529C1594.629,585.888,1594.466,585.528,1594.293,585.144Z" transform="translate(-801.186 -299.43)" fill="#2c3a64"/>
      <path id="Path_11445" data-name="Path 11445" d="M1627.594,711.57s16.965,8.034,25.1,20.389c12.62,19.16,27.246,88.985,27.515,95.453s-10.675,52.115-10.675,52.115-11.1-.73-13.964-6.334c0,0,2.219-46.905.812-49.94s-46.281-62.905-41.239-75.7S1627.594,711.57,1627.594,711.57Z" transform="translate(-839.356 -369.88)" fill="#d22744"/>
      <path id="Path_11446" data-name="Path 11446" d="M1361.2,756.78s.922-3.645-1.6-5.282-4.855-6.094-5.921-5.489c-2.209,1.249,1.205,5.133.581,9.983C1354.04,757.692,1357.991,762.139,1361.2,756.78Z" transform="translate(-703.257 -387.753)" fill="#fc9490"/>
      <path id="Path_11447" data-name="Path 11447" d="M432.653,1392.5s-39.856-102.055-67.808-85.806S432.653,1392.5,432.653,1392.5Z" transform="translate(-186.991 -678.317)" fill="#3a4ace"/>
      <path id="Path_11448" data-name="Path 11448" d="M383.506,1446.039s-52.653-45.5-76.7-37.052S383.506,1446.039,383.506,1446.039Z" transform="translate(-157.551 -731.858)" fill="#3a4ace"/>
      <path id="Path_11449" data-name="Path 11449" d="M1631.53,1477.168s12.135-42.19,26.368-37.21S1631.53,1477.168,1631.53,1477.168Z" transform="translate(-848.08 -748.289)" fill="#3a4ace"/>
      <path id="Path_11450" data-name="Path 11450" d="M1654.59,1496.58s30.972-20.331,37.781-14.046S1654.59,1496.58,1654.59,1496.58Z" transform="translate(-860.067 -770.006)" fill="#3a4ace"/>
      <path id="Path_11451" data-name="Path 11451" d="M1169.428,1318.632H927.814a2.953,2.953,0,0,1-2.944-2.943h0a2.953,2.953,0,0,1,2.944-2.939h241.609a2.953,2.953,0,0,1,2.939,2.939h0A2.953,2.953,0,0,1,1169.428,1318.632Z" transform="translate(-480.753 -682.378)" fill="#d2e4fd"/>
      <path id="Path_11452" data-name="Path 11452" d="M1169.428,1343.123H927.814a2.953,2.953,0,0,1-2.944-2.944h0a2.953,2.953,0,0,1,2.944-2.939h241.609a2.953,2.953,0,0,1,2.939,2.939h0A2.953,2.953,0,0,1,1169.428,1343.123Z" transform="translate(-480.753 -695.108)" fill="#d2e4fd"/>
      <path id="Path_11453" data-name="Path 11453" d="M1169.428,1370.282H927.814a2.953,2.953,0,0,1-2.944-2.944h0a2.948,2.948,0,0,1,2.944-2.939h241.609a2.949,2.949,0,0,1,2.939,2.939h0A2.953,2.953,0,0,1,1169.428,1370.282Z" transform="translate(-480.753 -709.226)" fill="#d2e4fd"/>
      <rect id="Rectangle_3066" data-name="Rectangle 3066" width="215.578" height="5.882" rx="0.21" transform="translate(444.121 668.217)" fill="#d2e4fd"/>
      <rect id="Rectangle_3067" data-name="Rectangle 3067" width="1200.484" height="2.555" rx="0.09" transform="translate(0 748.308)" fill="#1c468a"/>
    </g>
  </g>
</svg>
