<svg xmlns="http://www.w3.org/2000/svg" width="1107.821" height="582.318" viewBox="0 0 1107.821 582.318">
  <g id="Layer_2" data-name="Layer 2" transform="translate(-38.422 -70.34)">
    <g id="_Layer_" data-name="&lt;Layer&gt;">
      <path id="Path_12252" data-name="Path 12252" d="M172.963,750.941s-128.907-138.4-21.8-288.248C246.2,329.74,356.994,338.829,438.286,392.774c34.62,22.978,134.459,2.83,219.4-132.453,115.842-184.487,517.49-72.6,444.262,211.246-35.439,137.355,107.849,142.353,34.839,279.675Z" transform="translate(-63.682 -99.678)" fill="#e64560" opacity="0.1"/>
      <path id="Path_12253" data-name="Path 12253" d="M2457.508,1506.188h-40.843c-2.188-1.858,1.518-6.073,5.378-6.359a24.016,24.016,0,0,1,6.235.741c.559-7.447,3.769-41.025,15.866-39.676,13.6,1.51,0,14.778-3.844,22.635a186.186,186.186,0,0,0-7.228,18.1c1.1.24,2.246.472,3.417.687,1.8-5.531,8.51-24.153,17.037-23.065,10.016,1.266,5.991,8.734-1.109,13.165-5.2,3.256-11.584,7.89-14.642,10.128a43.76,43.76,0,0,0,7.989.641C2452.771,1503.015,2456.188,1505.08,2457.508,1506.188Z" transform="translate(-1416.458 -856.468)" fill="#82b378"/>
      <path id="Path_12254" data-name="Path 12254" d="M341.63,1524.448c-1.622-2.549-6.5-9.16-13.007-8.274-7.083.956,7.828,5.626,12.391,8.307a7.61,7.61,0,0,1-2.524-.294c-3.053-1.088-8.274,1-9.929,1.729h29.051a4.6,4.6,0,0,0-2.069-2.656,5.165,5.165,0,0,0-2.677-.24c1.729-2.036,2.929-8.539-1.882-6.868-3.512,1.241-3.5,5.2-3.157,7.551-.749.116-1.506.236-2.255.343-1.444-7.372-6.562-28.96-16.929-29.552-10.513-.583,8.916,22.4,15.382,29.759C343.169,1524.34,342.371,1524.415,341.63,1524.448Z" transform="translate(-190.883 -876.184)" fill="#82b378"/>
      <path id="Path_12255" data-name="Path 12255" d="M2120.9,1448.9l-3.157,13.289-4.2,17.62h-13.094l-.782-16.88-.6-13.024Z" transform="translate(-1230.641 -849.46)" fill="#ffb27d"/>
      <path id="Path_12256" data-name="Path 12256" d="M2225.772,741.711s10.364-11.088,17.1-2.4,14.208,14.567,24.546,21.253-9.139,59.108-22.089,58.033S2179.53,776.195,2225.772,741.711Z" transform="translate(-1294.006 -431.495)" fill="#bc3f3f"/>
      <path id="Path_12257" data-name="Path 12257" d="M2127.43,729.218c2.586-1.932,26.408-10.107,49.646-2.069s-17.989,30.45-17.989,30.45l-13.355.575Z" transform="translate(-1247.267 -424.277)" fill="#4a75cb"/>
      <path id="Path_12258" data-name="Path 12258" d="M2089.9,1542.968s0-6.413.914-8.547,4.261-10.811,4.261-10.811h13.1s2.437,7.919,2.59,10.509,0,8.849,0,8.849Z" transform="translate(-1225.264 -893.26)" fill="#233862"/>
      <path id="Path_12259" data-name="Path 12259" d="M2261.248,1542.968s0-6.413-.915-8.547-4.265-10.811-4.265-10.811h-13.094s-2.437,7.919-2.59,10.509,0,8.849,0,8.849Z" transform="translate(-1313.45 -893.26)" fill="#233862"/>
      <path id="Path_12260" data-name="Path 12260" d="M2140.313,689.926s-.464,14.278-2.292,20.686l-14.48,31.178,54.45-12.941L2165,710.91s-3.918-19.147-1.866-26.23S2140.313,689.926,2140.313,689.926Z" transform="translate(-1244.987 -400.127)" fill="#ffb27d"/>
      <path id="Path_12261" data-name="Path 12261" d="M2163.88,705.23s4.307,10.343,12.412,10.136,9.979-9.4,9.979-9.4Z" transform="translate(-1268.637 -413.462)" fill="#ed985f"/>
      <path id="Path_12262" data-name="Path 12262" d="M2144.479,626.571s-2.619-13.078-4.443-17.037-3.351-21.625,16.9-22.54c0,0,7.765.914,12.031-1.655,0,0,0,2.59-1.068,3.5a13.467,13.467,0,0,1,12.494,4.373c5.482,6.094-3.653,27.417-3.2,32.44Z" transform="translate(-1254.077 -343.173)" fill="#2c3a64"/>
      <path id="Path_12263" data-name="Path 12263" d="M2167.993,664.541c-5.879-.1-16.694-7.927-16.694-17.616V631.8c0-3.541,2.482-6.433,5.482-6.433H2179.2c3.016,0,5.486,2.9,5.486,6.433v14.265C2184.687,656.246,2174.733,664.661,2167.993,664.541Z" transform="translate(-1261.262 -366.641)" fill="#ffb27d"/>
      <path id="Path_12264" data-name="Path 12264" d="M2150.24,635.018s.033-9.1,7.228-10.484,23.3,4.431,25.589-2.2-31.133-6.508-32.816-2.284S2150.24,635.018,2150.24,635.018Z" transform="translate(-1260.202 -361.784)" fill="#2c3a64"/>
      <path id="Path_12265" data-name="Path 12265" d="M2132.8,1036.656c3.6-11.22,3.533,46.444-10.939,111.291-2.209,9.9-7.153,33.768-10.7,56.87H2081.5c-.414-18.655-2.408-44.682-3.666-64.2-3.951-61.144,6.1-107.026,6.1-107.026Z" transform="translate(-1217.652 -605.972)" fill="#2b478b"/>
      <path id="Path_12266" data-name="Path 12266" d="M2224.493,1140.491c-.327,18.7-4.137,43.532-4.464,61.736h-30.078c-2.023-13.214-5.233-26.822-7.538-37.8-1.655-7.794-2.826-14.261-2.809-18.324.037-7.939-4.99-30.835-7.977-51.024a.585.585,0,0,1,0-.083c-.116-.774-.228-1.551-.335-2.317a335.437,335.437,0,0,1-2.594-56.159l50.751-3.169S2225.362,1090.634,2224.493,1140.491Z" transform="translate(-1271.321 -605.831)" fill="#2b478b"/>
      <path id="Path_12267" data-name="Path 12267" d="M2084.15,1090.48s11.419,13.835,42.439,11.837,45.82-7.393,45.82-7.393Z" transform="translate(-1221.893 -639.326)" fill="#233862"/>
      <path id="Path_12268" data-name="Path 12268" d="M2169.457,895.213c-10.132,1.378-79.07,4.965-88.259-4.443s15-137.678,15-137.678,2.739-.79,7.364-1.655c2.354-.443,5.2-.9,8.419-1.291.037,1,.827,16.135,13.388,22.37,0,0,15.08-6.04,13.6-22.126a3.524,3.524,0,0,0-.066-.55q3.024.323,6.1.827a86.376,86.376,0,0,1,12.478,3.091S2179.6,893.84,2169.457,895.213Z" transform="translate(-1218.942 -439.615)" fill="#739af0"/>
      <path id="Path_12269" data-name="Path 12269" d="M2049.564,833.7c-.414.534,2.342,4.481,6.206,9.557,7.977,10.426,20.736,25.6,20.736,25.6a52.083,52.083,0,0,1-.889,8.461c-17.525-8.274-29.374-16.028-37.235-22.25-11.042-8.746-14.211-14.48-14.211-14.48,17.707-74.883,40.429-82.707,40.429-82.707l7.43,45.145S2050.806,832.077,2049.564,833.7Z" transform="translate(-1186.729 -444.329)" fill="#739af0"/>
      <path id="Path_12270" data-name="Path 12270" d="M2179.676,750.668l-4.551,13.893-6.086,8.94-8.738,4.737-8.225-4.737-13.827-22.084c2.354-.443,5.2-.9,8.419-1.291.037,1,.827,16.135,13.388,22.37,0,0,15.08-6.04,13.6-22.126a3.5,3.5,0,0,0-.066-.55Q2176.6,750.143,2179.676,750.668Z" transform="translate(-1253.611 -439.604)" fill="#ee9849"/>
      <path id="Path_12271" data-name="Path 12271" d="M2096.685,989.806a2.573,2.573,0,0,1-.021.414c-.037.952-.095,1.837-.161,2.644a14.343,14.343,0,0,1-1.456,1.713,15.257,15.257,0,0,1-2.565,2.069c-.443-.211-.885-.414-1.32-.645-15.014-7.447-25.456-14.348-32.6-20,4.551-1.4,10.885-4.584,17.376-11.816C2083.921,974.635,2096.685,989.806,2096.685,989.806Z" transform="translate(-1206.891 -565.278)" fill="#ffb27d"/>
      <path id="Path_12272" data-name="Path 12272" d="M2287.707,836.286s-3.053,5.792-13.93,14.757c-7.732,6.371-19.445,14.34-36.8,22.957a52.3,52.3,0,0,1-1.051-8.444s12.466-15.415,20.239-25.99c3.781-5.151,6.454-9.147,6.036-9.673-.989-1.241-14.29-18.737-20.227-26.54l-2.817-3.724,7.509-44.38S2268.572,761.729,2287.707,836.286Z" transform="translate(-1310.879 -442.787)" fill="#739af0"/>
      <path id="Path_12273" data-name="Path 12273" d="M2274.61,970.5c-7.058,5.792-17.414,12.949-32.361,20.686-.372.19-.745.385-1.125.575a20.842,20.842,0,0,1-3.773-7.5c.248-.31.571-.716.968-1.2C2241.9,978.59,2250.9,967.3,2257,959,2263.634,966.124,2270.05,969.186,2274.61,970.5Z" transform="translate(-1311.711 -562.242)" fill="#ffb27d"/>
      <path id="Path_12274" data-name="Path 12274" d="M2185.484,740.362a120.649,120.649,0,0,0-26.925.306.493.493,0,0,1,0-.054S2183.477,725.2,2185.484,740.362Z" transform="translate(-1265.517 -430.146)" fill="#ffb27d"/>
      <path id="Path_12275" data-name="Path 12275" d="M2161.965,821.155h-.509l-.376-24.025h1.291Z" transform="translate(-1266.996 -467.341)" fill="#bbd4ff"/>
      <path id="Path_12276" data-name="Path 12276" d="M2160.369,853.324c-.463.7-1.51,3.024-.827,3.268a2.963,2.963,0,0,0,2.242-.066C2162.115,856.2,2161.254,852,2160.369,853.324Z" transform="translate(-1265.962 -500.134)" fill="#ee9849"/>
      <path id="Path_12277" data-name="Path 12277" d="M2219,821.155h-.509l-.376-24.025h1.291Z" transform="translate(-1300.431 -467.341)" fill="#bbd4ff"/>
      <path id="Path_12278" data-name="Path 12278" d="M2217.4,853.324c-.463.7-1.514,3.024-.828,3.268a2.949,2.949,0,0,0,2.238-.066C2219.134,856.2,2218.27,852,2217.4,853.324Z" transform="translate(-1299.395 -500.134)" fill="#ee9849"/>
      <path id="Path_12279" data-name="Path 12279" d="M2139.492,765.419,2118.3,745s-4.77-3.384,2.772-8.448S2139.492,765.419,2139.492,765.419Z" transform="translate(-1241.043 -431.522)" fill="#4a75cb"/>
      <path id="Path_12280" data-name="Path 12280" d="M2212.62,765.419,2233.811,745s4.77-3.384-2.772-8.448S2212.62,765.419,2212.62,765.419Z" transform="translate(-1297.213 -431.522)" fill="#4a75cb"/>
      <path id="Path_12281" data-name="Path 12281" d="M2180.369,1021.231a13.073,13.073,0,0,1-10.227-3.062,13.288,13.288,0,0,1-1.241-1.274,20.288,20.288,0,0,1-3.93-8.125,27.526,27.526,0,0,1-.827-5.354v-.6H2129.9v.637a19.11,19.11,0,0,1-1.775,9.433,13.39,13.39,0,0,1-2.482,3.479,14.389,14.389,0,0,1-3.012,2.309,20.8,20.8,0,0,1-9.743,2.553l-.633-.025v14.48h68.777v-14.48Z" transform="translate(-1238.368 -587.932)" fill="#678fe5"/>
      <path id="Path_12282" data-name="Path 12282" d="M2285.564,889.625s-19.077-25.034-3.976-32.32c5.995-2.9,14.431,31.443,9.929,34.686s-11.969,7.306-11.969,7.306Z" transform="translate(-1334.237 -502.518)" fill="#678fe5"/>
      <path id="Path_12283" data-name="Path 12283" d="M2076.187,885.407s6.62-31.443.828-28.191-14.431,31.443-9.929,34.686,11.969,7.306,11.969,7.306Z" transform="translate(-1211.154 -502.429)" fill="#678fe5"/>
      <path id="Path_12284" data-name="Path 12284" d="M2276.616,832.311c-8.713-10.815-11.965-28.373-11.522-46.494a212.473,212.473,0,0,1,2.321-26.317l7.132,5.585c-.029.1-4.1,7.546-4.414,20.789-.29,12.106-.861,21.327,5.982,42.4Z" transform="translate(-1327.954 -445.279)" fill="#bc3f3f"/>
      <path id="Path_12285" data-name="Path 12285" d="M2104.812,1437.727h-15.349c-1.361.153-3.488-1.837-3.488-4.679,0,0-.029-6.818-.48-8.03-1.978-5.312.96-5.6,3.806-5.6h28c2.842,0-1.514,8.787-1.514,11.63l1.01,3.724C2116.8,1437.615,2107.667,1437.727,2104.812,1437.727Z" transform="translate(-1222.304 -832.176)" fill="#233862"/>
      <path id="Path_12286" data-name="Path 12286" d="M2118.6,1481l-4.2,17.625h-13.094l-.782-16.88C2102.483,1482.465,2109.053,1484.31,2118.6,1481Z" transform="translate(-1231.497 -868.279)" fill="#233862"/>
      <path id="Path_12287" data-name="Path 12287" d="M2229.03,1448.9l3.157,13.086,4.2,17.355h13.094l.782-16.623.6-12.825Z" transform="translate(-1306.833 -849.46)" fill="#ffb27d"/>
      <path id="Path_12288" data-name="Path 12288" d="M2228.7,1437.727h15.349c1.361.153,3.488-1.837,3.488-4.679,0,0,.033-6.818.48-8.03,1.978-5.312-.96-5.6-3.806-5.6h-28c-2.842,0,1.514,8.787,1.514,11.63l-1.01,3.724C2216.71,1437.615,2225.858,1437.727,2228.7,1437.727Z" transform="translate(-1298.75 -832.176)" fill="#233862"/>
      <path id="Path_12289" data-name="Path 12289" d="M2236.66,1481l4.191,17.625h13.1l.782-16.88C2252.779,1482.465,2246.208,1484.31,2236.66,1481Z" transform="translate(-1311.307 -868.279)" fill="#233862"/>
      <path id="Path_12290" data-name="Path 12290" d="M605.45,597.122c-1.03-1.121-3.335-2.4-6.371-3.43,5.333-2.4,9.867-5.225,6.731-6.951a5.574,5.574,0,0,0-4.683-.025c2.627-2.652,3.889-4.94,1.332-5.54-3.889-.91-7.939,4.1-10.757,8.721,1.833-3.959,2.776-7.89-.641-7.948-3.939-.066-4.708,5.163-4.638,9.681h-.98c-1.113-5-3.264-11.22-6.934-9.557-1.849.827-1.783,2.627-.827,4.7-1.734-1.328-3.45-1.791-4.816-.381-2.069,2.151.476,4.7,3.856,6.835a20.8,20.8,0,0,0-6.653,3.872c-11.468,10.016,1.034,32.684,1.034,32.684l32.746-.827C614.113,612.645,609.165,601.16,605.45,597.122Z" transform="translate(-331.38 -340.669)" fill="#2c3a64"/>
      <path id="Path_12291" data-name="Path 12291" d="M506.565,855.4l-19.552,2.462c-12.863,1.622-24.484-5.792-25.833-16.47l-7.455-59.021c-1.345-10.682,4.282-19.1,17.211-19.631a131.009,131.009,0,0,0,34.2-6.578c12.2-4.059,13.562,7.17,14.894,17.848l7.447,59.021C528.848,843.716,519.428,853.773,506.565,855.4Z" transform="translate(-265.895 -442.82)" fill="#2b478b"/>
      <path id="Path_12292" data-name="Path 12292" d="M519.22,1547.82s0-6.293.894-8.382,4.183-10.608,4.183-10.608h12.85s2.387,7.77,2.536,10.31,0,8.688,0,8.688Z" transform="translate(-304.408 -896.321)" fill="#233862"/>
      <path id="Path_12293" data-name="Path 12293" d="M687.283,1547.82s0-6.293-.9-8.382-4.183-10.608-4.183-10.608H669.356s-2.391,7.77-2.54,10.31,0,8.688,0,8.688Z" transform="translate(-390.902 -896.321)" fill="#233862"/>
      <path id="Path_12294" data-name="Path 12294" d="M568.7,711.107s-.451,14-2.242,20.272l-14.2,9.9,53.4,7.989-12.734-17.6s-3.848-18.779-1.829-25.725S568.7,711.107,568.7,711.107Z" transform="translate(-323.778 -412.624)" fill="#b56f40"/>
      <path id="Path_12295" data-name="Path 12295" d="M591.79,726.13s4.22,10.169,12.176,9.929,9.764-9.218,9.764-9.218Z" transform="translate(-346.954 -425.715)" fill="#99592e"/>
      <path id="Path_12296" data-name="Path 12296" d="M595.8,686.222c-5.763-.1-16.375-7.778-16.375-17.281V654.109c0-3.471,2.42-6.309,5.378-6.309h21.989c2.958,0,5.378,2.838,5.378,6.309V668.1C612.174,678.084,602.415,686.359,595.8,686.222Z" transform="translate(-339.702 -379.792)" fill="#b56f40"/>
      <path id="Path_12297" data-name="Path 12297" d="M519.426,1048.25s2.247,68.636-1.113,107.8.025,93.662.025,93.662,10.757,5.929,22.4,0c0,0,12.78-75.657,12.7-93.662-.083-19.18,13.909-104.812,13.909-104.812Z" transform="translate(-303.005 -614.567)" fill="#ee9849"/>
      <path id="Path_12298" data-name="Path 12298" d="M645.809,1249.569s-10.757,5.929-22.4,0c0,0-12.78-75.657-12.7-93.666.037-8.1-2.437-28.054-5.312-48.405-3.93-27.835-8.6-56.4-8.6-56.4L646.579,1048s-4.1,68.756-.745,107.915S645.809,1249.569,645.809,1249.569Z" transform="translate(-349.891 -614.42)" fill="#ee9849"/>
      <path id="Path_12299" data-name="Path 12299" d="M590.81,774.086v.029a141.532,141.532,0,0,0-18.154-3.351c-4.965,6.582-8.519,8.113-13.049,9.9-7.29-1.009-13.433-9.991-13.433-10.2-10.587,1.088-16.578,3.31-16.578,3.31-4.03,1.692-9.3,33.168-10.128,50.652-.1,2.2-.137,4.166-.087,5.833.414,15,1.034,29.569-.9,45.712-2.54,21.211,1.762,20.835,1.762,20.835s5.792,1.134,13.864,2.205a196.432,196.432,0,0,0,24.922,1.9c19.362,0,40.582-4.108,40.582-4.108,6.107.079-1.713-38.009-2.855-60.925-.265-5.32-.513-10.178-.741-14.617,7.335,6.322,28.923,17.84,29.416,19.308,0,0-4.712,8.6-6.144,13.181A96.2,96.2,0,0,1,604.342,883c1.287,4.878.927,7.033.927,7.033,14.952-11.746,24.592-21.737,30.744-29.4,8.651-10.757,10.426-16.963,10.426-16.963C613.13,775.919,590.81,774.086,590.81,774.086Z" transform="translate(-303.505 -451.71)" fill="#74acbe"/>
      <path id="Path_12300" data-name="Path 12300" d="M534.069,975.486c-8.076-1.072-13.864-2.205-13.864-2.205s-4.3.376-1.762-20.835c1.932-16.135,1.328-30.715.9-45.712-.05-1.655,0-3.637.087-5.833,1.241,1.978,15.022,24.244,18.733,40.789C540.866,953.761,536.791,967.964,534.069,975.486Z" transform="translate(-303.482 -528.179)" fill="#578e9b"/>
      <path id="Path_12301" data-name="Path 12301" d="M622.9,1206.417c.037-8.1-2.437-28.054-5.312-48.405,2.983-12.151,10.24-23.851,10.24-23.851C637.018,1159.935,622.9,1206.417,622.9,1206.417Z" transform="translate(-362.08 -664.934)" fill="#e58638"/>
      <path id="Path_12302" data-name="Path 12302" d="M706.888,1035.982s-8.068-7.472-11.352-3.31-3.885,10.757-1.345,10.31,7.77-2.838,8.514-1.655,4.1,3.479,5.109,1.655S706.888,1035.982,706.888,1035.982Z" transform="translate(-406.068 -604.695)" fill="#b56f40"/>
      <path id="Path_12303" data-name="Path 12303" d="M727.11,1001.016c1.287,4.878.927,7.033.927,7.033,14.948-11.746,24.587-21.737,30.744-29.4-4.642-.343-8.928-1.378-16.723-6.876C735.624,991.409,727.11,1001.016,727.11,1001.016Z" transform="translate(-426.289 -569.728)" fill="#b56f40"/>
      <path id="Path_12304" data-name="Path 12304" d="M734.428,908.38c-1.2-.993-20.367-11.551-27.628-17.856,0,0,7.244-5.432,11.729,2.482S734.428,908.38,734.428,908.38Z" transform="translate(-414.382 -521.029)" fill="#578e9b"/>
      <path id="Path_12305" data-name="Path 12305" d="M810.173,947.42s-1.775,6.181-10.426,16.963C789.735,964.242,810.173,947.42,810.173,947.42Z" transform="translate(-467.256 -555.453)" fill="#578e9b"/>
      <path id="Path_12306" data-name="Path 12306" d="M579.393,650.914s4-12.213,17.112-10.31,14.24,4.708,15.634,7.956,4.083-11.878,4.083-11.878l-15.461-4.592s-18.713,2.131-20.057,5.267l-1.345,3.136Z" transform="translate(-339.667 -370.581)" fill="#2c3a64"/>
      <path id="Path_12307" data-name="Path 12307" d="M522.27,862.649l.223-10.409c14.836-11.266,20.868-24.612,21.443-47.7a88.012,88.012,0,0,0-5.49-31.931s2.623-.629,3.517-.782c.964-.17,3.914-.5,3.914-.5a123.805,123.805,0,0,1,3.661,33.2C548.963,829.109,538.335,850.453,522.27,862.649Z" transform="translate(-306.196 -452.209)" fill="#2b478b"/>
      <path id="Path_12308" data-name="Path 12308" d="M525.063,862.627c-5.01.753-30.686,6.711-48.985,9.023-10.314,1.3-18.282,1.448-18.9-1.15-1.7-7.211,4.088-53.126,13.289-71.6a43.149,43.149,0,0,1,26.263-22.477l4.849,29.262-24.666,49.125,6.007.108,41.219.732Z" transform="translate(-267.86 -455.199)" fill="#74acbe"/>
      <rect id="Rectangle_3098" data-name="Rectangle 3098" width="13.363" height="20.872" rx="4.94" transform="translate(258.807 389.171)" fill="#233862"/>
      <rect id="Rectangle_3099" data-name="Rectangle 3099" width="13.363" height="20.872" rx="4.94" transform="translate(258.807 390.85)" fill="#2b478b"/>
      <path id="Path_12309" data-name="Path 12309" d="M607.8,962.207s13.562-9.346,18.009-6.1,4.8,10.976-13.653,11.617Z" transform="translate(-356.34 -560.144)" fill="#b56f40"/>
      <path id="Path_12310" data-name="Path 12310" d="M552.265,973.862c-5.01.753-30.686,6.711-48.985,9.023,1.605-7.807,4.137-13.119,6.843-16.735l41.219.732Z" transform="translate(-295.063 -566.433)" fill="#b56f40"/>
      <path id="Path_12311" data-name="Path 12311" d="M612.493,678.918a4,4,0,0,0-3.144-1.332h-6.6a2.929,2.929,0,0,0-2.606,1.072,2.424,2.424,0,0,0-.372,1.1,6.152,6.152,0,0,0-2.933.05,2.483,2.483,0,0,0-.376-1.146,2.919,2.919,0,0,0-2.606-1.072h-6.62a4,4,0,0,0-3.14,1.332,3.384,3.384,0,0,0-.616,2.9c.753,3.724,5.047,4.208,7.195,4.208.662,0,1.121-.046,1.2-.054,2.011,0,3.426-1.15,4.452-3.6a6.551,6.551,0,0,0,.5-2.031,5.685,5.685,0,0,1,2.9-.058,6.308,6.308,0,0,0,.5,2.069c1.026,2.453,2.441,3.6,4.448,3.6.087,0,.546.054,1.208.054,2.147,0,6.442-.476,7.195-4.208A3.384,3.384,0,0,0,612.493,678.918ZM595.944,682.2c-.952,2.28-2.242,3.339-4.063,3.339h-.025a13.153,13.153,0,0,1-3.661-.174c-2.449-.5-3.889-1.721-4.274-3.633a2.954,2.954,0,0,1,.525-2.544,3.562,3.562,0,0,1,2.805-1.175h6.62a2.512,2.512,0,0,1,2.242.877,2.069,2.069,0,0,1,.314,1.03,5.445,5.445,0,0,0-.583.211.269.269,0,0,0-.128.347.265.265,0,0,0,.24.149.261.261,0,0,0,.108-.021,3.54,3.54,0,0,1,.352-.136A6.205,6.205,0,0,1,595.944,682.2Zm16.739-.463c-.385,1.911-1.824,3.136-4.274,3.632a13.153,13.153,0,0,1-3.661.174h-.012c-1.816,0-3.107-1.059-4.063-3.339a6.369,6.369,0,0,1-.455-1.771,3.425,3.425,0,0,1,.376.174.261.261,0,0,0,.352-.108.265.265,0,0,0-.108-.352,4.291,4.291,0,0,0-.625-.265,2.027,2.027,0,0,1,.306-.985,2.525,2.525,0,0,1,2.247-.877h6.6a3.566,3.566,0,0,1,2.809,1.175A2.979,2.979,0,0,1,612.684,681.739Z" transform="translate(-342.023 -397.252)" fill="#2c3a64"/>
      <path id="Path_12312" data-name="Path 12312" d="M606.27,717s7.253-.79,10.628,0c0,0-1.8,2.942-4.741,2.942S606.986,718.864,606.27,717Z" transform="translate(-355.443 -420.158)" fill="#fff0e6"/>
      <path id="Path_12313" data-name="Path 12313" d="M1328.5,660.568a18.152,18.152,0,0,0-10,.1,4.783,4.783,0,0,1,1.837-1.374c-1.7.087-5.047,2.482-5.047,2.482-24.724-4.216-21.513,30.289-19.445,38.037s-9.88,30.2-18.117,41.174c-23.119,30.756,13.847,62.778,13.847,62.778,29.966,25.167,16.346-23.636,16.346-23.636-1.858-6.206,20.657-45.584,33.9-58.682,2.615-6.206,1.986-16.135,1.932-16.93.9,7.79.459,12.354-.224,15.01C1354.055,705.006,1337.874,663.651,1328.5,660.568Z" transform="translate(-744.644 -386.528)" fill="#163560"/>
      <path id="Path_12314" data-name="Path 12314" d="M1484.822,854.767c0,3.335-1.655,7.6-4.071,12-5.962,10.959-16.383,22.713-16.383,22.713l-6.04-8.6s3.67-9.1,6.106-16.623c1.465-4.518,2.482-8.452,1.986-9.491-1.32-2.755-27.492-33.685-27.492-33.685l-7.108-23.938s17.4.918,24.823,11.766S1484.822,845.785,1484.822,854.767Z" transform="translate(-839.446 -467.346)" fill="#bc3f3f"/>
      <path id="Path_12315" data-name="Path 12315" d="M1518.314,961.881c-5.962,10.959-16.383,22.713-16.383,22.713l-6.04-8.6s3.67-9.1,6.107-16.623C1504.926,961.1,1510,962.754,1518.314,961.881Z" transform="translate(-877.009 -562.458)" fill="#ffb27d"/>
      <path id="Path_12316" data-name="Path 12316" d="M1375.35,1457.92l6.26,26.358,9.375-.05.343-26.308Z" transform="translate(-806.339 -854.748)" fill="#ffb27d"/>
      <path id="Path_12317" data-name="Path 12317" d="M1565.96,1455.717l17.811,25.237,6.942-8.911-10.719-19.792Z" transform="translate(-918.089 -851.424)" fill="#ffb27d"/>
      <path id="Path_12318" data-name="Path 12318" d="M1403.63,783.127c.074.033-7.521,3.98-13.239,2.416-5.378-1.465-8.887-8.436-8.812-8.452,2.275-.451,2.933-3.579,2.9-17.02l1.03.2,17.3,3.426s-.393,5.449-.414,10.575C1402.38,778.58,1402.641,782.667,1403.63,783.127Z" transform="translate(-809.99 -445.613)" fill="#ffb27d"/>
      <path id="Path_12319" data-name="Path 12319" d="M1367.79,676.106s6.574-10.591,18.783-4.257C1386.573,671.865,1380.243,672.039,1367.79,676.106Z" transform="translate(-801.907 -392.707)" fill="#5fabb7"/>
      <path id="Path_12320" data-name="Path 12320" d="M1408.34,763.986s-.393,5.449-.414,10.575c-9.681-.273-14.8-9.1-16.9-14Z" transform="translate(-815.532 -445.9)" fill="#ef9e67"/>
      <path id="Path_12321" data-name="Path 12321" d="M1368.191,709.111s-6.557-6.855-9.1-13.334c-1.816-4.625-2.958-22.9,15.428-23.942a24.8,24.8,0,0,1,10.835,1.775c4.41,1.841,11.15,6.367,8.014,23.148l-.567,5.569Z" transform="translate(-796.246 -393.856)" fill="#163560"/>
      <path id="Path_12322" data-name="Path 12322" d="M1480.938,1203.3s-4.6.794-8.374,1.08c-.827.066-1.655.1-2.329.1a40.98,40.98,0,0,1-7.294-1.2l-.166-.037c-.964-.228-1.7-.414-1.974-.484l-.116-.033s-22.933-25.527-35.8-66.452c-.3-.952-.616-1.916-.947-2.9-7.033-20.525-21.633-46.287-29.325-69.609q-1.837-5.569-3.31-10.517c-.318-1.059-.625-2.1-.918-3.124-5.668-19.693-7.306-32.622-8.82-46.436l46.237,11.766S1447.223,1099.625,1480.938,1203.3Z" transform="translate(-809.985 -588.448)" fill="#a53d38"/>
      <path id="Path_12323" data-name="Path 12323" d="M1399.987,723.146s-22.382,4.894-25.237-9.1-7.633-22.755,6.537-26.478,18.038,1.055,20.119,5.49S1405.733,721.511,1399.987,723.146Z" transform="translate(-804.15 -402.322)" fill="#ffb27d"/>
      <path id="Path_12324" data-name="Path 12324" d="M1383.692,680.949s-2.838,17.649-11.787,21.977-13.545,2.627-13.545,2.627a27.271,27.271,0,0,0,5.556-17.55S1377.482,674.056,1383.692,680.949Z" transform="translate(-796.378 -398.104)" fill="#163560"/>
      <path id="Path_12325" data-name="Path 12325" d="M1416.56,682.589s5.329,2.739,7.166,6.073,3.819,10.566,5.908,9.888c0,0,2.383-12.089-4.1-17.347C1418.67,675.626,1416.56,682.589,1416.56,682.589Z" transform="translate(-830.499 -398.106)" fill="#163560"/>
      <path id="Path_12326" data-name="Path 12326" d="M1387.825,1518.07a25.471,25.471,0,0,1-1.192,10.811s-1.535,6.988,5.349,7.12,8.577-.521,7.795-4.807-2.263-11.7-2.263-11.7Z" transform="translate(-812.868 -890.013)" fill="#ffb27d"/>
      <path id="Path_12327" data-name="Path 12327" d="M1385.464,1543.942s-1.531,7.344-.749,10.852a24.263,24.263,0,0,0,7.331.827,29.043,29.043,0,0,0,7.53-.827s-.174-7.981-1.44-11.034C1398.136,1543.76,1393.258,1551.087,1385.464,1543.942Z" transform="translate(-811.699 -905.074)" fill="#c45446"/>
      <path id="Path_12328" data-name="Path 12328" d="M1629.019,1521.351s-12.693-14.091-16.59-21.261l-9.429,4.836,21.1,19.817,4.94-.65Z" transform="translate(-939.805 -879.471)" fill="#ffb27d"/>
      <path id="Path_12329" data-name="Path 12329" d="M1633.667,1536.48s-13.653,0-15.978-.261-4.224-3.637-6.756-8.688c-1.039-2.069-3.364-3.219-5.747-3.844l.041,12.387h-3.752l-3.31-13.123c-2.25-4.137-.182-7.861,1.4-11.142,1.841,0,6.789,1.241,16.168,11.824,3.082,3.467,6.483,4.708,9.863,4.6a.767.767,0,0,0,.141.074C1633.538,1531.805,1633.667,1536.48,1633.667,1536.48Z" transform="translate(-936.39 -886.342)" fill="#c45446"/>
      <path id="Path_12330" data-name="Path 12330" d="M1485.063,1261.393c-.827.066-1.655.1-2.329.1a40.983,40.983,0,0,1-7.294-1.2l-.165-.037-1.974-.484-.116-.033s-22.933-25.527-35.8-66.452c-.3-.952-.616-1.916-.948-2.9-7.033-20.525-21.633-46.287-29.324-69.609q-1.837-5.569-3.31-10.517c-.319-1.059-.625-2.1-.918-3.124l8.175-6.206s24.554,39.754,32.154,77.167C1449.521,1209.124,1476.644,1249.329,1485.063,1261.393Z" transform="translate(-822.485 -645.458)" fill="#912f2f"/>
      <path id="Path_12331" data-name="Path 12331" d="M1364.471,1166.7c.141,18.2-.782,60.023-3.148,77.341,0,0-2.246,1.986-7.819,2.011-5.709.025-8.274-2.069-8.274-2.069-5.949-30.111-10.173-55.025-13.239-76.493-2.524-17.612-4.77-32.717-6.5-45.72-1.531-11.522-2.652-21.4-3.19-29.908-.07-1.154-.137-2.288-.186-3.388q-.1-2.193-.149-4.253c-.025-1.382-.033-2.731,0-4.038h.2l11.485-1.121,36.3-3.537C1369.32,1107.368,1364.392,1156.121,1364.471,1166.7Z" transform="translate(-775.03 -630.555)" fill="#a53d38"/>
      <path id="Path_12332" data-name="Path 12332" d="M1353.493,1240.437a14.174,14.174,0,0,1-8.274-2.069c-5.949-30.111-10.173-55.025-13.239-76.493-2.524-17.612-4.77-32.717-6.5-45.72-1.531-11.522-2.652-21.4-3.19-29.908-.066-4.2-.108-8.212-.157-11.7s-.108-6.52-.207-8.6l11.692,7.48,12.3,7.861s-17.451,15.879-13.165,45.89S1347.523,1236.188,1353.493,1240.437Z" transform="translate(-775.02 -624.944)" fill="#912f2f"/>
      <path id="Path_12333" data-name="Path 12333" d="M1396.13,920.417c-13.922,3.616-78.892,10.757-79.434-5.511-.137-3.972,0-8.763.314-13.955.968-16.073,3.608-35.936,4.874-46.866.579-5.01-1.349-27.45.128-39.676a28.069,28.069,0,0,1,.9-4.675c2.809-9.226,15.415-11.729,21.89-11.948l19.532-.666s20.169,22.531,22.978,29.453,3.724,30.615,5.9,42.092S1402.9,918.659,1396.13,920.417Z" transform="translate(-771.92 -467.335)" fill="#bc3f3f"/>
      <path id="Path_12334" data-name="Path 12334" d="M1358.228,889.922s-10.856,33.35-40.768,35.53c.968-16.073,3.608-35.936,4.874-46.866.579-5.01-1.349-27.45.128-39.676.389.083.745.3,1.15.376C1356.573,845.65,1361.232,882.971,1358.228,889.922Z" transform="translate(-772.399 -491.835)" fill="#a53d38"/>
      <rect id="Rectangle_3100" data-name="Rectangle 3100" width="34.885" height="53.093" transform="translate(577.645 360.741) rotate(6.08)" fill="#2b478b"/>
      <path id="Path_12335" data-name="Path 12335" d="M1385.671,871.684l-2.222-.174-5.229,52.754,1.829.215Z" transform="translate(-808.021 -510.948)" fill="#163560"/>
      <path id="Path_12336" data-name="Path 12336" d="M1321.625,928.43s24.476,7.48,47.863,10.823c0,0,7.72,3.339,4.1,4.253-.927.236-47.768,10.446-54.715,3.819Z" transform="translate(-773.226 -544.319)" fill="#ffb27d"/>
      <path id="Path_12337" data-name="Path 12337" d="M1344.136,798.73s-12.867.07-18.361,6.338c-10.033,11.444-12,60.105-8.854,66.216,1.361,2.631,11.8,2.842,16.206-9.884C1335.415,854.8,1345.39,810.728,1344.136,798.73Z" transform="translate(-771.277 -468.279)" fill="#bc3f3f"/>
      <path id="Path_12338" data-name="Path 12338" d="M1434.741,945.719s2.875-.269,3.422-1.187c1.092-1.837,2.818-1.816,4.257-2.069s3.053-1.82,3.339-1.5-1.059,2.069-1.812,2.7a6.293,6.293,0,0,0,2.565-.389c1.022-.488,4.137-4.514,4.625-2.817,1.291,4.452-.05,8.729-3.624,9.077-3.852.372-13.413,2.218-13.413,2.218Z" transform="translate(-840.783 -551.125)" fill="#ffb27d"/>
      <path id="Path_12339" data-name="Path 12339" d="M1671.921,887.08c-18.282-4.65-38.381-33.015-38.381-33.015l5.155-4.464c5.329,6.284,27.488,17.107,27.488,17.107a156.253,156.253,0,0,1,.414-15.771c2.462-32.44,14.691-43.25,18.03-45.621a7.986,7.986,0,0,1,.828-.546s0,.236.029.683c.05.964.136,2.9.228,5.569C1686.385,830.88,1687.2,890.973,1671.921,887.08Z" transform="translate(-957.71 -471.82)" fill="#d9935c"/>
      <path id="Path_12340" data-name="Path 12340" d="M1625.152,886.453c-.079-.765-.592-11.911-2.809-14.033s-6.586-5.01-7.861-4.778-5.523,7.331-3.508,12.221,9.007,11.055,9.007,11.055Z" transform="translate(-944.167 -508.672)" fill="#d9935c"/>
      <path id="Path_12341" data-name="Path 12341" d="M1637.505,881.685l-12.039.5a.724.724,0,0,1-.757-.691l-.96-22.957a.728.728,0,0,1,.7-.757l12.039-.5a.724.724,0,0,1,.753.691l.96,22.957a.728.728,0,0,1-.691.757Z" transform="translate(-951.97 -502.604)" fill="#f1a34f"/>
      <path id="Path_12342" data-name="Path 12342" d="M1630.741,881.982l-10.922.459a1.287,1.287,0,0,1-1.336-1.241l-.914-21.836a1.283,1.283,0,0,1,1.241-1.336l10.922-.459a1.286,1.286,0,0,1,1.336,1.241l.914,21.84a1.287,1.287,0,0,1-1.241,1.332Z" transform="translate(-948.346 -502.774)" fill="#d86713"/>
      <path id="Path_12343" data-name="Path 12343" d="M1617.631,867s3.281-3.666,6.566-.865-.219,8.779-3.066,10.417a23.754,23.754,0,0,0-3.761,2.482Z" transform="translate(-948.23 -507.179)" fill="#d9935c"/>
      <path id="Path_12344" data-name="Path 12344" d="M1758.13,1226.749c-1.117,4.431-2.342,8.647-3.591,12.569q-.414,1.266-.8,2.482c-.132.414-.269.8-.414,1.192-.265.778-.521,1.543-.782,2.284-.335.972-.674,1.92-1.005,2.834-.244.683-.492,1.345-.732,2-3.724,9.929-6.814,16.243-6.814,16.243l-7.385-.509a200.052,200.052,0,0,0,3.31-32.088c.021-.674.037-1.353.054-2.044.025-1.465.046-2.958.046-4.48v-1.9c-.149-16.276-2.164-35.505-8.593-53.871a351.59,351.59,0,0,1-11.762-41.525c-8.845-40.752-6.764-67.524-6.764-67.524l41.554,4.861,1.936.228c.178,19.085.666,45,1.1,65.26.074,3.517.145,6.864.211,9.975.29,13.007.5,21.9.5,21.9C1766.218,1181.835,1763.314,1206.12,1758.13,1226.749Z" transform="translate(-1004.111 -622.869)" fill="#cb7d45"/>
      <path id="Path_12345" data-name="Path 12345" d="M1760.018,681.624s9.83,8.374.827,18.005c0,0,7.513.741,10.053-1.34a7.036,7.036,0,0,1-.96,1.469s8.394.3,11.861-2.317,1.241-45.584-22.068-40.78c0,0-19.755-1.494-17.914,21.369s-5.618,22.858-5.618,22.858a10.557,10.557,0,0,0,3.074,1.022s1.465-.559,1.754-1.369a5,5,0,0,1-.662,1.655s8.051.765,12.068-2.275S1761.164,686.34,1760.018,681.624Z" transform="translate(-1017.898 -384.766)" fill="#233862"/>
      <path id="Path_12346" data-name="Path 12346" d="M1779.473,871.066c-7.861-17.612-11.609-22.593-11.741-28.133-.1-4.385,2.069-9.1,6.255-20.686a42.918,42.918,0,0,0,2.069-8.382c3.31-22.341-9.607-46.511-17.637-48.157-2.218-.608-6.024-8.684-5.958-21.708l-1.005.2-16.917,3.351s.385,5.325.414,10.343c0,4.179-.215,8.432-1.163,8.928-1.216.112-2.325.335-2.325.335s-14.315,10.053-15.237,23.69c-1.241,18.2,11.584,39.8.215,76.212C1704.817,904.247,1783.813,880.8,1779.473,871.066Z" transform="translate(-1005.629 -436.192)" fill="#d9935c"/>
      <path id="Path_12347" data-name="Path 12347" d="M1761.84,747.867s.385,5.325.414,10.343c9.466-.269,14.48-8.9,16.52-13.69Z" transform="translate(-1032.93 -436.496)" fill="#cb7d45"/>
      <path id="Path_12348" data-name="Path 12348" d="M1765.458,690.809s4.965-7.836,6.152-14.538c.827-4.787-1.589-22.523-19.412-19.966a24.207,24.207,0,0,0-10.041,3.794c-3.868,2.615-9.453,8.274-3.21,23.735l1.622,5.225Z" transform="translate(-1017.864 -384.631)" fill="#233862"/>
      <path id="Path_12349" data-name="Path 12349" d="M1743.661,710.535s22.395.368,22.411-13.583,2.917-23.3-11.381-24.124-17.083,4.5-18.2,9.151S1737.835,710.084,1743.661,710.535Z" transform="translate(-1017.911 -394.415)" fill="#d9935c"/>
      <path id="Path_12350" data-name="Path 12350" d="M1756.2,668.112s6.131,16.367,15.543,18.783,13.491-.1,13.491-.1a26.637,26.637,0,0,1-8.717-15.721C1776.518,671.054,1760.825,660.322,1756.2,668.112Z" transform="translate(-1029.623 -390.038)" fill="#233862"/>
      <path id="Path_12351" data-name="Path 12351" d="M1743.785,671.557s-4.58,3.653-5.7,7.207-1.618,10.856-3.769,10.616c0,0-4.617-11.125.575-17.418C1740.413,665.289,1743.785,671.557,1743.785,671.557Z" transform="translate(-1015.686 -392.155)" fill="#233862"/>
      <path id="Path_12352" data-name="Path 12352" d="M1868.192,919.909l-6.723,2.015s-22.18-36.8-24.194-46.374c-.658-3.115-2.271-9.354-4.137-16.342-3.893-14.48-8.92-32.187-8.92-32.187l-1.655-7.17L1816.92,795.4s10.806,1.1,17.132,3.748c2.093.877,3.69,1.92,4.249,3.144,4.646,10.211,9.28,35.994,12.54,54.38,1.816,10.248,3.2,18.2,3.926,19.888C1856.77,881.264,1862.93,907.138,1868.192,919.909Z" transform="translate(-1065.222 -466.326)" fill="#d9935c"/>
      <path id="Path_12353" data-name="Path 12353" d="M1757.82,670.357s4.369,17.14,16.243,22.63c0,0-11.874-10.529-12.883-21.844S1757.82,670.357,1757.82,670.357Z" transform="translate(-1030.573 -390.404)" fill="#233862"/>
      <path id="Path_12354" data-name="Path 12354" d="M1810.7,1210.8c-2.387,25.5-12.908,41.989-12.908,41.989l-3.591,3.268s-3.273-18.671-5.635-40.044c-2.251-20.314-5.341-41.815-8.829-48.376-5.221-9.805-9.065-29.858-11.836-51.041-4.576-35.059-6.206-73.229-6.206-73.229l42.133-2.069c4.241,7.124,6.086,18.808,6.524,32.092.459,13.971-.637,29.709-2.164,43.776-2.131,19.689-5.1,36.105-5.792,39.792a2.18,2.18,0,0,0,.277,1.411C1811.051,1174.965,1812.292,1193.947,1810.7,1210.8Z" transform="translate(-1032.842 -610.492)" fill="#d9935c"/>
      <path id="Path_12355" data-name="Path 12355" d="M1717.579,844.469c-.947,23.144-4.41,46.064-14.48,44.587-12.35-1.8-15.568-13.33-16.222-21.9a49.084,49.084,0,0,1,.178-9.516s6.082-.025,7.066-.931c4.667-4.315,3.281-46.61,5.589-51s17.306-7.211,17.306-7.211S1718.522,821.594,1717.579,844.469Z" transform="translate(-988.892 -468.144)" fill="#ee9849"/>
      <path id="Path_12356" data-name="Path 12356" d="M1717.792,887.085c-.947,23.144-4.41,46.064-14.48,44.587-12.349-1.8-15.568-13.33-16.222-21.9,3.033-.153,8.37-.894,10.492-4.137,3.037-4.63,12.511-34.446,12.511-34.446S1713.812,877.892,1717.792,887.085Z" transform="translate(-989.105 -510.76)" fill="#e58638"/>
      <path id="Path_12357" data-name="Path 12357" d="M1768.018,1321.073c-1.117,4.431-2.342,8.647-3.591,12.569q-.414,1.266-.8,2.482c-.132.414-.269.8-.414,1.192-.265.778-.521,1.543-.782,2.284-.335.972-.674,1.92-1.005,2.834-.244.683-.492,1.344-.732,2-3.723,9.929-6.814,16.243-6.814,16.243l-7.385-.509a200.052,200.052,0,0,0,3.31-32.088c.021-.674.037-1.353.054-2.044.025-1.465.045-2.958.045-4.481v-1.9c-.149-16.276-2.164-35.505-8.593-53.871a351.611,351.611,0,0,1-11.762-41.525c4.394.906,8.274,0,19.478-.96,1.179-.1,6.818,6.88,12.412,16.135.285,13.007,6.669,19.536,6.669,19.536C1776.106,1276.16,1773.2,1300.445,1768.018,1321.073Z" transform="translate(-1013.999 -717.194)" fill="#233862"/>
      <path id="Path_12358" data-name="Path 12358" d="M1819.49,1317.5c-2.387,25.5-12.908,41.989-12.908,41.989l-3.591,3.268s-3.272-18.671-5.635-40.044c-2.251-20.314-5.341-41.815-8.829-48.376-5.221-9.805-9.065-29.858-11.837-51.041,3.881,1.614,17.078,5.792,40.3.554-2.131,19.689-5.1,36.105-5.792,39.792a2.182,2.182,0,0,0,.277,1.411C1819.845,1281.668,1821.086,1300.649,1819.49,1317.5Z" transform="translate(-1041.636 -717.195)" fill="#2b478b"/>
      <path id="Path_12359" data-name="Path 12359" d="M1785.277,1052.613a152.156,152.156,0,0,1-21.8,4.518c-16.081,2.226-38.559,3.028-58.633-4.518,0,0-1.655-29.871,3.1-45.443s6.979-23.024,6.979-23.024,19.056,4.778,38.41,1.076a62.578,62.578,0,0,0,8.117-2.1s11.94,25.349,15.221,36.209S1785.277,1052.613,1785.277,1052.613Z" transform="translate(-999.352 -576.383)" fill="#2b478b"/>
      <path id="Path_12360" data-name="Path 12360" d="M1847.455,1052.6a152.156,152.156,0,0,1-21.8,4.518c-23.814-13.5-12.2-70.333-12.2-70.333q1.061-.863,2.069-1.589a62.593,62.593,0,0,0,8.117-2.1s11.94,25.349,15.221,36.209S1847.455,1052.6,1847.455,1052.6Z" transform="translate(-1061.529 -576.365)" fill="#233862"/>
      <path id="Path_12361" data-name="Path 12361" d="M1811.009,872.154c0,5.813-5.933,9.387-12.3,11.125-6.123,1.655-12.639,1.655-14.679.285-3.517-2.358-9.247-28.547-10.922-36.544l-.472-2.292s-4.551,10.906-4.712,11.923c-.066.459-.12,1.088-.161,1.655-.05.67-.074,1.241-.074,1.241s-24.823,12.523-46.527,1.022c0,0-8.829-51.024-4.994-59.8,1.9-4.365,11.837-13.371,15.813-17.252.889-.873.8-2.6.455-4.183a1.829,1.829,0,0,1,2.238-2.168c2.557.666,7.157.55,12.085-1.067a29.214,29.214,0,0,0,7.385-3.612,1.125,1.125,0,0,1,1.75.8c.377,3.045,1.3,8.6,2.975,8.6,2.313,0,18.084,1.924,19.238,3.877.414.678,4.5,9.954,9.677,22.246a.059.059,0,0,1,0,.033C1797.514,831.063,1811.009,864.715,1811.009,872.154Z" transform="translate(-1005.589 -452.777)" fill="#ee9849"/>
      <path id="Path_12362" data-name="Path 12362" d="M1821.191,903.1s-4.551,10.906-4.712,11.923c-.066.459-.12,1.088-.161,1.655a22.548,22.548,0,0,1-7.6,4c-7.736,2.346-11.1-12.478-10.632-19.859s11.4-28.505,15.039-28.96S1821.191,903.1,1821.191,903.1Z" transform="translate(-1054.152 -511.146)" fill="#e58638"/>
      <path id="Path_12363" data-name="Path 12363" d="M1854.5,949.672l-.472-2.292a11.7,11.7,0,0,1,.472,2.292Z" transform="translate(-1086.979 -555.429)" fill="#e58638"/>
      <path id="Path_12364" data-name="Path 12364" d="M1748.372,982.417c-14.12,0-19.937-4.857-20.367-5.188l-.914-6.649c.136.1,19.077,11.473,48.405.579l-.621,5.039C1763.589,980.389,1755.7,982.417,1748.372,982.417Z" transform="translate(-1012.557 -569.031)" fill="#b64c41"/>
      <path id="Path_12365" data-name="Path 12365" d="M1913.88,922.767c0,5.813-5.933,9.387-12.3,11.125,8.771-10.446-10.426-73.642-10.914-75.272C1900.384,881.677,1913.88,915.329,1913.88,922.767Z" transform="translate(-1108.46 -503.391)" fill="#e58638"/>
      <path id="Path_12366" data-name="Path 12366" d="M1790.292,781.81s-11.812,7.48-20.744,5.709c0,0-2.147-1.353.828-2.718,2.78-1.274,9.242-5.052,7.823-8.775a29.214,29.214,0,0,0,7.385-3.612,1.125,1.125,0,0,1,1.75.8C1787.694,776.266,1788.612,781.81,1790.292,781.81Z" transform="translate(-1037.009 -452.736)" fill="#e58638"/>
      <path id="Path_12367" data-name="Path 12367" d="M1751.667,1546.109h-4.716c-1.576-.248-2.743-.7-4.365-.914-2.458-.323-3.591.683-3.814.914l-.046.05H1718.7c-.5-.72,0-2.387.451-3.612a2.859,2.859,0,0,1,1.878-1.717c2.122-.612,6.309-1.162,10.145-4.634,2.16-1.949,10.417-7.166,10.417-7.166h.046c.182,0,1.043.269,4.8,3.442,1.944,1.655,5.254-2.313,5.254-2.313a4.693,4.693,0,0,1,1.084,1.473,4.965,4.965,0,0,1,.414,3.074c-.3,1.8.666,5.159,1.436,7.447.468,1.374.86,2.35.86,2.35S1755.726,1545.6,1751.667,1546.109Z" transform="translate(-1007.516 -896.438)" fill="#233862"/>
      <path id="Path_12368" data-name="Path 12368" d="M1785.5,1531.62c-1.125.794-3.5,2.354-5.076,2.561-2.127.277-6.107-5.151-6.107-5.151h.046c.182,0,1.042.269,4.8,3.442,1.945,1.655,5.254-2.313,5.254-2.313a4.7,4.7,0,0,1,1.084,1.46Z" transform="translate(-1040.246 -896.438)" fill="#466aa5"/>
      <path id="Path_12369" data-name="Path 12369" d="M1751.667,1564.658h-4.716c-1.576-.248-2.743-.7-4.365-.914-2.458-.323-3.591.683-3.814.914l-.046.05H1718.7c-.5-.72,0-2.387.451-3.612.612-.542.782,2.346,1.117,2.809s16.338.165,17.265-.5a9.681,9.681,0,0,1,7.563-.927c3.364.827,8.32-1.241,9.545-1.8.468,1.374.86,2.35.86,2.35S1755.726,1564.154,1751.667,1564.658Z" transform="translate(-1007.516 -914.988)" fill="#466aa5"/>
      <path id="Path_12370" data-name="Path 12370" d="M1812.476,1546.109h-4.717c-1.58-.248-2.747-.7-4.365-.914-2.482-.323-3.591.683-3.819.914l-.041.05H1779.5c-.5-.72,0-2.387.455-3.612a2.843,2.843,0,0,1,1.874-1.717c2.127-.612,6.313-1.162,10.149-4.634,2.156-1.949,10.418-7.166,10.418-7.166h.041c.182,0,1.047.269,4.8,3.442,1.94,1.655,5.25-2.313,5.25-2.313a4.665,4.665,0,0,1,1.088,1.473,4.965,4.965,0,0,1,.414,3.074c-.3,1.8.666,5.159,1.436,7.447.468,1.374.861,2.35.861,2.35S1816.53,1545.6,1812.476,1546.109Z" transform="translate(-1043.161 -896.438)" fill="#233862"/>
      <path id="Path_12371" data-name="Path 12371" d="M1846.323,1531.62c-1.125.794-3.5,2.354-5.076,2.561-2.131.277-6.106-5.151-6.106-5.151h.041c.182,0,1.047.269,4.8,3.442,1.94,1.655,5.25-2.313,5.25-2.313A4.669,4.669,0,0,1,1846.323,1531.62Z" transform="translate(-1075.904 -896.438)" fill="#466aa5"/>
      <path id="Path_12372" data-name="Path 12372" d="M1812.476,1564.658h-4.717c-1.58-.248-2.747-.7-4.365-.914-2.482-.323-3.591.683-3.819.914l-.041.05H1779.5c-.5-.72,0-2.387.455-3.612.608-.542.782,2.346,1.117,2.809s16.338.165,17.26-.5a9.681,9.681,0,0,1,7.563-.927c3.364.827,8.32-1.241,9.549-1.8.468,1.374.86,2.35.86,2.35S1816.53,1564.154,1812.476,1564.658Z" transform="translate(-1043.161 -914.988)" fill="#466aa5"/>
      <path id="Path_12373" data-name="Path 12373" d="M1931.193,1156.15a6.826,6.826,0,0,0-4.348-5.076,26.549,26.549,0,0,0-16.88-.414c-12.333,3.624-13.541,11.2-12.726,16.656s-1.6,14.145-1.241,20.326,2.126,21.716,11.257,20.9,38.571-8.725,38.571-8.725,5.085-9.677-5.378-23.7A50.57,50.57,0,0,1,1931.193,1156.15Z" transform="translate(-1111.562 -673.916)" fill="#d37129"/>
      <path id="Path_12374" data-name="Path 12374" d="M1948.709,1138.9l-2.445.219a5.473,5.473,0,0,0-1.4-2.751,3.944,3.944,0,0,0-3.542-.865,3.693,3.693,0,0,0-2.933,1.907,5.931,5.931,0,0,0-.319,3.368l-2.379.55a9.72,9.72,0,0,1,.53-5.763,5.848,5.848,0,0,1,4.514-3.2,6.043,6.043,0,0,1,5.5,1.589A9.39,9.39,0,0,1,1948.709,1138.9Z" transform="translate(-1134.729 -663.809)" fill="#d37129"/>
      <path id="Path_12375" data-name="Path 12375" d="M1960.448,1196.505s-29.44,7.931-38.579,8.729-10.91-14.7-11.245-20.905,2.048-14.865,1.241-20.326a15.39,15.39,0,0,1-.186-3.335c.236-4.861,2.962-10.388,12.892-13.305a26.536,26.536,0,0,1,16.9.414,6.851,6.851,0,0,1,4.352,5.064c.108.476.2,1.055.335,1.626a50.9,50.9,0,0,0,8.928,18.357C1965.541,1186.833,1960.448,1196.505,1960.448,1196.505Z" transform="translate(-1120.14 -671.982)" fill="#f1a34f"/>
      <path id="Path_12376" data-name="Path 12376" d="M1921.42,1235.853l17.74-4.013s4.137,12.705-4.253,15.022S1923.042,1244.256,1921.42,1235.853Z" transform="translate(-1126.488 -722.202)" fill="#d86713" opacity="0.4"/>
      <path id="Path_12377" data-name="Path 12377" d="M1921.42,1235.853s4.092,3.947,9.623,2.557,8.117-6.57,8.117-6.57Z" transform="translate(-1126.488 -722.202)" fill="#d37129"/>
      <path id="Path_12378" data-name="Path 12378" d="M1973,1224.177l17.745-4.017s4.137,12.71-4.257,15.022S1974.626,1232.58,1973,1224.177Z" transform="translate(-1156.728 -715.354)" fill="#d86713" opacity="0.4"/>
      <path id="Path_12379" data-name="Path 12379" d="M1973,1224.177s4.1,3.943,9.627,2.553,8.117-6.57,8.117-6.57Z" transform="translate(-1156.728 -715.354)" fill="#d37129"/>
      <path id="Path_12380" data-name="Path 12380" d="M1947.375,1152.845c.108.476.2,1.055.335,1.626-2.346,4.841-6.793,11.026-14.319,12.461a21.662,21.662,0,0,1-20.161-6.264c.236-4.861,2.962-10.388,12.891-13.305a26.536,26.536,0,0,1,16.9.414A6.851,6.851,0,0,1,1947.375,1152.845Z" transform="translate(-1121.687 -671.982)" fill="#d86713" opacity="0.4"/>
      <path id="Path_12381" data-name="Path 12381" d="M1959.389,1196.765h0a1.5,1.5,0,0,1-1.787-1.125l-.3-1.324a1.5,1.5,0,0,1,1.13-1.787h0a1.493,1.493,0,0,1,1.783,1.125l.3,1.324a1.5,1.5,0,0,1-1.125,1.787Z" transform="translate(-1147.503 -699.133)" fill="#d86713"/>
      <path id="Path_12382" data-name="Path 12382" d="M1930.853,1093.64s2.044,4.82,4.174,6.16a11.9,11.9,0,0,1,4.592,7.17c.827,4.77-2.846,7.728-5.536,7.728s-5.258-3.666-6.839-12.412c-.087-.48-2.635-5.5-2.635-5.5Z" transform="translate(-1128.358 -641.178)" fill="#d9935c"/>
      <path id="Path_12383" data-name="Path 12383" d="M1024.772,653.572c-3.21-4.878-15.965-2.147-28.485,6.1s-20.065,18.882-16.855,23.76,15.965,2.147,28.489-6.1S1027.987,658.441,1024.772,653.572Z" transform="translate(-573.787 -381.757)" fill="#233862"/>
      <path id="Path_12384" data-name="Path 12384" d="M931.993,924.9l2.482.149c-.025-.054.96-43.168,4.741-60.61,7.033-32.5,25.464-57.921,25.651-58.161l-4.427-1.415a140.434,140.434,0,0,0-8.655,15.622c-4.551,9.2-11.886,24.521-15.122,42.365C933.462,880.484,931.89,924.682,931.993,924.9Z" transform="translate(-546.405 -471.872)" fill="#bc3f3f"/>
      <path id="Path_12385" data-name="Path 12385" d="M974.62,655.472s-16.156-3.446-23.909,9.693-8.188,35.994-13.359,43.441-14.29,38.989-4.6,46.043,69.414-.261,72.765-3.475-.2-36.316-6.036-45.923S1007.846,650.59,974.62,655.472Z" transform="translate(-544.35 -384.05)" fill="#a53d38"/>
      <path id="Path_12386" data-name="Path 12386" d="M1078.175,887.08c18.282-4.65,38.377-33.015,38.377-33.015l-5.147-4.464c-5.329,6.284-27.488,17.107-27.488,17.107.116-5.751-.033-11-.414-15.771-2.457-32.44-14.687-43.25-18.026-45.621a7.986,7.986,0,0,0-.828-.546s0,.236-.033.683c-.045.964-.136,2.9-.228,5.569C1063.707,830.88,1062.9,890.973,1078.175,887.08Z" transform="translate(-623.856 -471.82)" fill="#ffb27d"/>
      <path id="Path_12387" data-name="Path 12387" d="M1178.45,886.453c.079-.765.592-11.911,2.805-14.033s6.586-5.01,7.861-4.778,5.523,7.331,3.508,12.221-9.011,11.055-9.011,11.055Z" transform="translate(-690.9 -508.672)" fill="#ffb27d"/>
      <path id="Path_12388" data-name="Path 12388" d="M994.754,1226.749c1.113,4.431,2.338,8.647,3.587,12.569q.414,1.266.8,2.482c.137.414.269.8.414,1.192.265.778.525,1.543.782,2.284.339.972.674,1.92,1.009,2.834.244.683.488,1.345.728,2,3.723,9.929,6.814,16.243,6.814,16.243l7.389-.509a200.71,200.71,0,0,1-3.331-32.088c0-.674-.037-1.353-.05-2.044q-.041-2.2-.046-4.48v-1.9c.149-16.276,2.164-35.505,8.593-53.871a350.754,350.754,0,0,0,11.758-41.525c8.849-40.752,6.768-67.523,6.768-67.523l-41.554,4.861-1.936.228c-.178,19.085-.666,45-1.1,65.26-.074,3.517-.145,6.864-.215,9.975-.285,13.007-.5,21.9-.5,21.9C986.665,1181.835,989.57,1206.12,994.754,1226.749Z" transform="translate(-580.242 -622.869)" fill="#ffb27d"/>
      <path id="Path_12389" data-name="Path 12389" d="M953.755,871.113c7.861-17.612,11.613-22.593,11.741-28.133.108-4.385-2.069-9.1-6.251-20.686a42.921,42.921,0,0,1-2.069-8.382c-3.31-22.341,9.6-46.511,17.637-48.157,2.234-.592,6.024-8.663,5.978-21.675l1.005.2,16.917,3.351s-.385,5.325-.414,10.343c0,4.179.215,8.432,1.158,8.928,1.241.112,14.48,2.482,16.913,6.3,2.375,3.744-.269,4.092.654,17.728,1.241,18.2-11.6,39.8-.219,76.212C1028.423,904.293,949.411,880.844,953.755,871.113Z" transform="translate(-559.065 -436.238)" fill="#ffb27d"/>
      <path id="Path_12390" data-name="Path 12390" d="M1038.6,747.867s-.385,5.325-.414,10.343c-9.466-.269-14.48-8.9-16.52-13.69Z" transform="translate(-598.984 -436.496)" fill="#ef9e67"/>
      <path id="Path_12391" data-name="Path 12391" d="M1038.122,710.564s-22.395.368-22.411-13.583-2.925-23.276,11.381-24.1,17.083,4.5,18.2,9.152S1043.947,710.113,1038.122,710.564Z" transform="translate(-595.341 -394.444)" fill="#ffb27d"/>
      <path id="Path_12392" data-name="Path 12392" d="M1027.085,668.112s-6.131,16.367-15.539,18.783-13.5-.1-13.5-.1a26.637,26.637,0,0,0,8.717-15.721C1006.767,671.054,1022.459,660.322,1027.085,668.112Z" transform="translate(-585.136 -390.038)" fill="#a53d38"/>
      <path id="Path_12393" data-name="Path 12393" d="M1064.56,671.557s4.58,3.653,5.7,7.207,1.618,10.864,3.748,10.616c0,0,4.621-11.125-.571-17.418C1067.928,665.289,1064.56,671.557,1064.56,671.557Z" transform="translate(-624.129 -392.155)" fill="#a53d38"/>
      <path id="Path_12394" data-name="Path 12394" d="M883.58,919.909l6.723,2.015s22.18-36.8,24.2-46.374c.658-3.115,2.267-9.354,4.137-16.342,3.9-14.48,8.92-32.187,8.92-32.187l1.655-7.17,5.647-24.451s-10.811,1.1-17.132,3.748c-2.094.877-3.69,1.92-4.249,3.144-4.646,10.211-9.284,35.994-12.544,54.38-1.816,10.248-3.2,18.2-3.926,19.888C895.007,881.264,888.847,907.138,883.58,919.909Z" transform="translate(-518.024 -466.326)" fill="#ffb27d"/>
      <path id="Path_12395" data-name="Path 12395" d="M1043.6,670.357s-4.369,17.14-16.243,22.63c0,0,11.874-10.529,12.879-21.844S1043.6,670.357,1043.6,670.357Z" transform="translate(-602.32 -390.404)" fill="#a53d38"/>
      <path id="Path_12396" data-name="Path 12396" d="M943.451,1210.8c2.391,25.5,12.912,41.989,12.912,41.989l3.591,3.268s3.273-18.671,5.635-40.044c2.251-20.314,5.337-41.815,8.829-48.376,5.217-9.805,9.065-29.858,11.832-51.041,4.576-35.059,6.206-73.229,6.206-73.229l-42.133-2.069c-4.237,7.124-6.082,18.808-6.52,32.092-.463,13.971.637,29.709,2.164,43.776,2.131,19.689,5.1,36.105,5.792,39.792a2.206,2.206,0,0,1-.277,1.411C943.086,1174.965,941.874,1193.947,943.451,1210.8Z" transform="translate(-552.778 -610.492)" fill="#ffb27d"/>
      <path id="Path_12397" data-name="Path 12397" d="M1093.409,876.1c-.658,8.572-3.877,20.1-16.222,21.9-4.369.637-7.493-3.31-9.714-9.867-2.9-8.576-4.241-21.613-4.778-34.724-.509-12.412-.3-24.906,0-33.727,5.068-.571,14.369-4.865,17.219-5.933.083.087.161.178.236.269a2.134,2.134,0,0,1,.17.215,2.886,2.886,0,0,1,.252.414c1.241,2.338,1.415,15.465,2.027,27.856.53,10.848,1.39,21.125,3.566,23.144.989.9,7.062.935,7.062.935a48.825,48.825,0,0,1,.182,9.516Z" transform="translate(-622.855 -477.085)" fill="#ffb93e"/>
      <path id="Path_12398" data-name="Path 12398" d="M1063.14,887.085c.947,23.144,4.41,46.064,14.48,44.587,12.354-1.8,15.568-13.33,16.226-21.9-3.033-.153-8.374-.894-10.492-4.137-3.037-4.63-12.515-34.446-12.515-34.446S1067.12,877.892,1063.14,887.085Z" transform="translate(-623.297 -510.76)" fill="#ffa412"/>
      <path id="Path_12399" data-name="Path 12399" d="M967.51,984.152s-24.786,6.206-46.527-1.022c0,0-11.936,25.345-15.221,36.209s-28.092,149.883-28.092,149.883,54.611,15.792,90.882,2.155c0,0,10.695-148.629,5.941-164.2S967.51,984.152,967.51,984.152Z" transform="translate(-514.559 -576.388)" fill="#2b478b"/>
      <path id="Path_12400" data-name="Path 12400" d="M974.3,837.71c-1.816,17.918-6.793,42.2-6.793,42.2a40.043,40.043,0,0,1-8.332,3.273c-19.259,5.234-38.191-4.29-38.191-4.29s-.029-.554-.074-1.241c-.041-.554-.1-1.175-.161-1.634-.141-1.014-4.712-11.89-4.712-11.89s-.174.827-.476,2.288c-1.655,7.952-7.406,34.082-10.922,36.436-2.036,1.357-8.556,1.378-14.675-.29-6.367-1.729-12.3-5.3-12.3-11.092,0-7.418,13.491-40.958,23.21-63.949a.141.141,0,0,1,0-.037c5.176-12.254,8.183-20.781,12.139-21.733,0,0,26.627,10.835,41.372,9.176,5.068-.575,14.369-4.853,17.219-5.916.083.083.161.174.236.265s.116.141.17.215a2.534,2.534,0,0,1,.153.236c2.164,3.186,1.82,8.465,1.932,10.479C974.323,824.185,975.109,829.7,974.3,837.71Z" transform="translate(-514.559 -472.394)" fill="#ffb93e"/>
      <path id="Path_12401" data-name="Path 12401" d="M970.4,903.1s4.572,10.906,4.716,11.923c.066.459.12,1.088.161,1.655a22.511,22.511,0,0,0,7.6,4c7.732,2.346,11.092-12.478,10.633-19.859s-11.4-28.505-15.043-28.96S970.4,903.1,970.4,903.1Z" transform="translate(-568.925 -511.146)" fill="#ffa412"/>
      <path id="Path_12402" data-name="Path 12402" d="M969.26,949.672c.3-1.448.472-2.292.472-2.292a11.7,11.7,0,0,0-.472,2.292Z" transform="translate(-568.257 -555.429)" fill="#e58638"/>
      <path id="Path_12403" data-name="Path 12403" d="M1007.687,981.493c14.116,0,19.718-3.963,20.148-4.294l.91-6.648c-.132.1-19.077,11.472-48.405.579l.621,5.039C992.251,980.372,1000.352,981.493,1007.687,981.493Z" transform="translate(-574.753 -569.013)" fill="#163560"/>
      <path id="Path_12404" data-name="Path 12404" d="M877.67,922.767c0,5.813,5.929,9.387,12.3,11.125-8.775-10.446,10.422-73.642,10.914-75.272C891.161,881.677,877.67,915.329,877.67,922.767Z" transform="translate(-514.559 -503.391)" fill="#ffa412"/>
      <path id="Path_12405" data-name="Path 12405" d="M1020.351,1546.109h4.712c1.58-.248,2.747-.7,4.365-.914,2.482-.323,3.6.683,3.819.914l.046.05h20.028c.5-.72,0-2.387-.455-3.612a2.842,2.842,0,0,0-1.874-1.717c-2.123-.612-6.313-1.162-10.145-4.634-2.16-1.949-10.417-7.166-10.417-7.166h-.046c-.182,0-1.047.269-4.8,3.442-1.94,1.655-5.25-2.313-5.25-2.313a4.666,4.666,0,0,0-1.088,1.473,4.965,4.965,0,0,0-.414,3.074c.3,1.8-.662,5.159-1.431,7.447-.468,1.374-.861,2.35-.861,2.35S1016.313,1545.6,1020.351,1546.109Z" transform="translate(-595.973 -896.438)" fill="#233862"/>
      <path id="Path_12406" data-name="Path 12406" d="M1023.08,1531.62c1.125.794,3.5,2.354,5.081,2.561,2.126.277,6.107-5.151,6.107-5.151h-.046c-.182,0-1.047.269-4.8,3.442-1.94,1.655-5.25-2.313-5.25-2.313a4.667,4.667,0,0,0-1.088,1.46Z" transform="translate(-599.81 -896.438)" fill="#466aa5"/>
      <path id="Path_12407" data-name="Path 12407" d="M1020.329,1564.658h4.712c1.58-.248,2.747-.7,4.365-.914,2.482-.323,3.6.683,3.819.914l.045.05H1053.3c.5-.72,0-2.387-.455-3.612-.608-.542-.778,2.346-1.117,2.809s-16.338.165-17.26-.5a9.681,9.681,0,0,0-7.563-.927c-3.364.827-8.32-1.241-9.545-1.8-.468,1.374-.861,2.35-.861,2.35S1016.291,1564.154,1020.329,1564.658Z" transform="translate(-595.95 -914.988)" fill="#466aa5"/>
      <path id="Path_12408" data-name="Path 12408" d="M959.531,1546.109h4.716c1.576-.248,2.743-.7,4.365-.914,2.457-.323,3.591.683,3.819.914l.041.05H992.5c.5-.72,0-2.387-.451-3.612a2.859,2.859,0,0,0-1.878-1.717c-2.122-.612-6.309-1.162-10.144-4.634-2.156-1.949-10.417-7.166-10.417-7.166h-.041c-.182,0-1.047.269-4.8,3.442-1.944,1.655-5.254-2.313-5.254-2.313a4.694,4.694,0,0,0-1.084,1.473,4.964,4.964,0,0,0-.414,3.074c.3,1.8-.666,5.159-1.436,7.447-.468,1.374-.861,2.35-.861,2.35S955.476,1545.6,959.531,1546.109Z" transform="translate(-560.315 -896.438)" fill="#233862"/>
      <path id="Path_12409" data-name="Path 12409" d="M962.27,1531.62c1.125.794,3.5,2.354,5.076,2.561,2.127.277,6.107-5.151,6.107-5.151h-.041c-.182,0-1.047.269-4.8,3.442-1.945,1.655-5.254-2.313-5.254-2.313A4.7,4.7,0,0,0,962.27,1531.62Z" transform="translate(-564.159 -896.438)" fill="#466aa5"/>
      <path id="Path_12410" data-name="Path 12410" d="M959.508,1564.658h4.716c1.576-.248,2.743-.7,4.365-.914,2.458-.323,3.591.683,3.819.914l.041.05h20.028c.5-.72,0-2.387-.451-3.612-.608-.542-.782,2.346-1.117,2.809s-16.338.165-17.265-.5a9.673,9.673,0,0,0-7.559-.927c-3.364.827-8.324-1.241-9.549-1.8-.468,1.374-.861,2.35-.861,2.35S955.453,1564.154,959.508,1564.658Z" transform="translate(-560.292 -914.988)" fill="#466aa5"/>
      <path id="Path_12411" data-name="Path 12411" d="M872.144,1093.64s-2.044,4.82-4.17,6.16a11.915,11.915,0,0,0-4.592,7.17c-.828,4.77,2.842,7.728,5.531,7.728s5.258-3.666,6.839-12.412c.087-.48,2.64-5.5,2.64-5.5Z" transform="translate(-506.113 -641.178)" fill="#ffb27d"/>
      <path id="Path_12412" data-name="Path 12412" d="M1178.406,853.06l-.314,3.231-.993,10.178-.633,6.516h-12.995l-.794-6.516-1.254-10.178-.393-3.231Z" transform="translate(-680.688 -500.131)" fill="#ee9849"/>
      <path id="Path_12413" data-name="Path 12413" d="M1177.875,850.31H1158.55l.376-1.94H1177.4Z" transform="translate(-679.234 -497.382)" fill="#d17a33"/>
      <path id="Path_12414" data-name="Path 12414" d="M1178.649,860.87l-.993,10.178h-14.422l-1.254-10.178Z" transform="translate(-681.244 -504.71)" fill="#d17a33"/>
      <path id="Path_12415" data-name="Path 12415" d="M1195.218,867s-3.285-3.666-6.566-.865.219,8.779,3.066,10.417a23.754,23.754,0,0,1,3.761,2.482Z" transform="translate(-696.105 -507.179)" fill="#ffb27d"/>
      <path id="Path_12416" data-name="Path 12416" d="M1002.708,920.375l-2.482-.186c.029-.05,4.832-43.192,3.422-61.1-2.627-33.375-17.467-61.231-17.637-61.479l4.572-.827a144.453,144.453,0,0,1,6.487,16.756c3.285,9.789,8.494,26.064,9.309,44.3C1007.193,875.854,1002.828,920.16,1002.708,920.375Z" transform="translate(-578.077 -467.135)" fill="#bc3f3f"/>
      <path id="Path_12417" data-name="Path 12417" d="M954,1062.131s2.4-5.908,6.206-7.381l19.474,3.67s-4.807,4.576-5.258,7.559Z" transform="translate(-559.31 -618.378)" fill="#d2e4ff"/>
      <path id="Path_12418" data-name="Path 12418" d="M962.647,1104.9l-33.284-6.264a2.9,2.9,0,0,1-2.3-3.364L931.2,1073.2a2.9,2.9,0,0,1,3.368-2.3l33.288,6.276a2.9,2.9,0,0,1,2.3,3.364l-4.137,22.068a2.9,2.9,0,0,1-3.368,2.288Z" transform="translate(-543.489 -627.819)" fill="#912f2f"/>
      <rect id="Rectangle_3101" data-name="Rectangle 3101" width="15.92" height="20.405" transform="translate(391.271 431.483) rotate(0.5)" fill="#e58638"/>
      <rect id="Rectangle_3102" data-name="Rectangle 3102" width="15.92" height="20.405" transform="translate(390.348 431.488) rotate(0.5)" fill="#ee9849"/>
      <rect id="Rectangle_3103" data-name="Rectangle 3103" width="15.92" height="20.405" transform="matrix(0.794, 0.608, -0.608, 0.794, 403.328, 434.146)" fill="#578e9b"/>
      <rect id="Rectangle_3104" data-name="Rectangle 3104" width="15.92" height="20.405" transform="matrix(0.794, 0.608, -0.608, 0.794, 401.9, 433.068)" fill="#74acbe"/>
      <path id="Path_12419" data-name="Path 12419" d="M944.156,1101.53l-31.857-6.007a3.6,3.6,0,0,1-2.9-4.208l3.893-20.649a3.6,3.6,0,0,1,4.208-2.875l31.857,6.007a3.6,3.6,0,0,1,2.871,4.208l-3.889,20.653A3.6,3.6,0,0,1,944.156,1101.53Z" transform="translate(-533.128 -625.987)" fill="#bc3f3f"/>
      <path id="Path_12420" data-name="Path 12420" d="M970.275,653.321s-10.19-20.272,4.046-28.3,24.662-4.869,32.494,4.936Z" transform="translate(-566.781 -363.766)" fill="#233862"/>
      <path id="Path_12421" data-name="Path 12421" d="M1018.282,633.561c-2.929-4.7-13.181-3.939-25.556,1.125a102.264,102.264,0,0,0-15.163,7.861,97.736,97.736,0,0,0-16.429,12.7c-8.192,8.014-12.192,15.68-9.516,19.937a6.093,6.093,0,0,0,3.856,2.627c1.812-3.91,7.033-7.567,8.494-10.612a46.333,46.333,0,0,1,17-18.121c7.41-4.625,14.782-7.344,19.859-7.67,2.954-.19,5.13.414,6.086,1.961.745,1.2.666,2.817-.1,4.692a22.785,22.785,0,0,1,2.218,5.2C1017.025,645.339,1020.914,637.781,1018.282,633.561Z" transform="translate(-557.43 -369.607)" fill="#2b478b"/>
      <path id="Path_12422" data-name="Path 12422" d="M1840.356,296.18a59.454,59.454,0,1,0,59.452,59.456A59.524,59.524,0,0,0,1840.356,296.18Zm0,115.014a55.583,55.583,0,1,1,0,.017Z" transform="translate(-1044.104 -173.644)" fill="#f9ddbf"/>
      <path id="Path_12423" data-name="Path 12423" d="M1921.251,324.221a2.367,2.367,0,1,0-1.676-.692A2.371,2.371,0,0,0,1921.251,324.221Z" transform="translate(-1124.999 -187.304)" fill="#f9ddbf"/>
      <path id="Path_12424" data-name="Path 12424" d="M1921.245,550.68a2.367,2.367,0,1,0,1.675.695A2.371,2.371,0,0,0,1921.245,550.68Z" transform="translate(-1124.993 -322.852)" fill="#f9ddbf"/>
      <path id="Path_12425" data-name="Path 12425" d="M2031.111,435.08a2.371,2.371,0,1,0,2.371,2.371A2.371,2.371,0,0,0,2031.111,435.08Z" transform="translate(-1189.408 -255.078)" fill="#f9ddbf"/>
      <path id="Path_12426" data-name="Path 12426" d="M1977.138,530.741a2.371,2.371,0,1,0,3.347-.079,2.371,2.371,0,0,0-3.347.079Z" transform="translate(-1158.769 -310.732)" fill="#f9ddbf"/>
      <path id="Path_12427" data-name="Path 12427" d="M2014.628,495.1a2.371,2.371,0,1,0,3.347-.079,2.371,2.371,0,0,0-3.347.079Z" transform="translate(-1180.749 -289.837)" fill="#f9ddbf"/>
      <path id="Path_12428" data-name="Path 12428" d="M2017.373,384.913a2.371,2.371,0,1,0-3.165-1.109,2.371,2.371,0,0,0,3.165,1.109Z" transform="translate(-1180.75 -223.024)" fill="#f9ddbf"/>
      <path id="Path_12429" data-name="Path 12429" d="M1980.135,341.871a2.367,2.367,0,1,0,1.032,1.492A2.371,2.371,0,0,0,1980.135,341.871Z" transform="translate(-1158.767 -200.208)" fill="#f9ddbf"/>
      <path id="Path_12430" data-name="Path 12430" d="M1819.641,433.17a2.371,2.371,0,1,0,2.371,2.366A2.371,2.371,0,0,0,1819.641,433.17Z" transform="translate(-1065.427 -253.959)" fill="#f9ddbf"/>
      <path id="Path_12431" data-name="Path 12431" d="M1870.309,528.739a2.366,2.366,0,1,0,1.692-.656,2.371,2.371,0,0,0-1.692.656Z" transform="translate(-1096.092 -309.603)" fill="#f9ddbf"/>
      <path id="Path_12432" data-name="Path 12432" d="M1832.819,493.071a2.371,2.371,0,1,0,3.351.079A2.371,2.371,0,0,0,1832.819,493.071Z" transform="translate(-1074.113 -288.693)" fill="#f9ddbf"/>
      <path id="Path_12433" data-name="Path 12433" d="M1833.424,382.992a2.367,2.367,0,1,0-1.212-1.352A2.371,2.371,0,0,0,1833.424,382.992Z" transform="translate(-1074.11 -221.898)" fill="#f9ddbf"/>
      <path id="Path_12434" data-name="Path 12434" d="M1870.661,339.954a2.371,2.371,0,1,0,3.277.707,2.371,2.371,0,0,0-3.277-.707Z" transform="translate(-1096.092 -199.086)" fill="#f9ddbf"/>
      <path id="Path_12435" data-name="Path 12435" d="M1946.043,364.816l-19.37,13.388a2.187,2.187,0,0,0-.215-.12l-2.069-36.594v36.618a2.366,2.366,0,1,0,3.413,2.122,2.477,2.477,0,0,0-.029-.352Z" transform="translate(-1127.455 -200.208)" fill="#f9ddbf"/>
      <rect id="Rectangle_3105" data-name="Rectangle 3105" width="1107.821" height="2.937" rx="1.469" transform="translate(38.422 649.72)" fill="#2e3552"/>
    </g>
  </g>
</svg>
