<svg xmlns="http://www.w3.org/2000/svg" xmlns:xlink="http://www.w3.org/1999/xlink" width="735.448" height="689.938" viewBox="0 0 735.448 689.938">
  <defs>
    <linearGradient id="linear-gradient" x1="0.5" x2="0.5" y2="1" gradientUnits="objectBoundingBox">
      <stop offset="0" stop-color="#ff7e94"/>
      <stop offset="1" stop-color="#e64560"/>
    </linearGradient>
    <linearGradient id="linear-gradient-13" x1="0.5" x2="0.5" y2="1" gradientUnits="objectBoundingBox">
      <stop offset="0" stop-color="#333e73"/>
      <stop offset="1" stop-color="#112152"/>
    </linearGradient>
  </defs>
  <g id="Layer_2" data-name="Layer 2" transform="translate(0 -29.56)">
    <g id="Objects" transform="translate(0 -0.014)">
      <path id="Path_11555" data-name="Path 11555" d="M5.48,149.646l202.967-.582-51.761-10.556s2.057-58.022-23.3-46.483a45.209,45.209,0,0,0-26.408,36.964S97.427,105.765,83.74,114.21s-20.02,23.242-20.02,23.242-4.932-16.726-13.741-17.672c-7.517-.819-21.84,15.088-29.357,24.042Z" transform="translate(4.494 74.241)" fill="#ddcaca" opacity="0.33"/>
      <path id="Path_11556" data-name="Path 11556" d="M312.09,194.645l167.441-.473-42.7-7.844s1.729-43.152-19.183-34.58-21.84,27.464-21.84,27.464-7.844-17.254-19.183-10.92a43.243,43.243,0,0,0-16.544,17.272s-4.077-12.412-11.339-13.122c-6.206-.6-18.018,11.211-24.206,17.854Z" transform="translate(255.917 123.536)" fill="#ddcaca" opacity="0.33"/>
      <path id="Path_11557" data-name="Path 11557" d="M162.48,64.947l167.441-.51-42.734-8.59s1.82-47.921-19.165-38.348A37.31,37.31,0,0,0,246.182,48s-7.844-19.165-19.165-12.194a46.847,46.847,0,0,0-16.562,19.165s-4.059-13.8-11.32-14.56c-6.206-.673-18.018,12.449-24.206,19.838Z" transform="translate(133.235 13.338)" fill="#ddcaca" opacity="0.33"/>
      <path id="Path_11559" data-name="Path 11559" d="M290.525,337.041c-3.149-6.115,4.186-12.74,10.92-13.85s14.4-.291,19.765-4.55c7.189-5.678,6.825-18.091,14.778-22.623,6.388-3.64,14.851-.182,21.6-3.058,8.408-3.64,10.774-15.288,19.019-19.219,6.57-3.13,15.179.4,18.528,6.88s1.82,14.815-2.839,20.42c-3.64,4.368-9.1,7.444-11.284,12.74-3.549,8.19,2.038,18.109-1.219,26.408-6.006,15.343-34.435,10.72-39.367,26.427-1.092,3.513-.637,7.28-.928,10.92-.855,10.92-8.518,20.366-17.982,25.79s-20.548,7.28-31.432,8.044c-4.441.328-9.1.419-13.086-1.62a21.476,21.476,0,0,1-8.354-9.1c-13.068-23.66-18.455-54.6,21.84-63.482" transform="translate(212.434 223.547)" fill="url(#linear-gradient)"/>
      <path id="Path_11560" data-name="Path 11560" d="M205.118,357.93c7.025-4.641,3.13-16.052-3.367-21.4s-15.252-8.973-18.437-16.78c-4.259-10.41,3.64-23.442-2.166-33.106-4.641-7.735-15.779-9.1-21.276-16.271-6.843-8.882-2.311-22.841-8.772-32.014-5.132-7.28-16.38-8.681-23.951-3.8s-10.92,14.76-9.246,23.551c1.238,6.88,5.151,13.413,4.423,20.366-1.147,10.92-13.086,18.2-14.56,28.975-2.8,20.02,30.376,32.2,26.19,51.979-.928,4.4-3.64,8.172-5.587,12.249-5.642,12.14-3.167,26.918,3.64,38.42s17.581,20.166,28.774,27.537c4.568,3.021,9.519,5.933,14.979,6.133,5.151.2,10.083-2.057,14.451-4.768,28.265-17.49,52.635-47.32,14.888-81.063" transform="translate(88.231 190.01)" fill="url(#linear-gradient)"/>
      <g id="Group_4227" data-name="Group 4227">
        <path id="Path_11561" data-name="Path 11561" d="M263.665,392.282c9.828-4.241,18.673-12.085,26.008-19.656,19.784-20.421,32.069-47.1,38.511-74.62,5.842-24.843,7.134-50.542,5.915-75.967-.091-2.148-3.458-2.166-3.349,0,2.73,57.13-8.609,127.237-59.733,161.981a54.756,54.756,0,0,1-9.1,5.26c-1.984.855-.273,3.749,1.693,2.912Z" transform="translate(214.051 180.773)" fill="url(#linear-gradient)"/>
        <path id="Path_11562" data-name="Path 11562" d="M298.18,267.476s3.312-18.509,27.773-21.476C325.953,246,317,267.949,298.18,267.476Z" transform="translate(244.51 201.748)" fill="url(#linear-gradient)"/>
        <path id="Path_11563" data-name="Path 11563" d="M293.77,279.446s7.462-17.236,32-14.36C325.766,265.086,311.952,284.287,293.77,279.446Z" transform="translate(240.894 217.133)" fill="url(#linear-gradient)"/>
        <path id="Path_11564" data-name="Path 11564" d="M288,290.276s11.157-15.124,34.416-6.825C322.58,283.451,304.726,299.067,288,290.276Z" transform="translate(236.163 230.418)" fill="url(#linear-gradient)"/>
        <path id="Path_11565" data-name="Path 11565" d="M300.25,251.5s3.185-18.2,27.3-21.076C327.55,230.438,318.76,251.969,300.25,251.5Z" transform="translate(246.208 188.972)" fill="url(#linear-gradient)"/>
        <path id="Path_11566" data-name="Path 11566" d="M303.686,240.105s-13.723-12.376-3.349-34.325C300.337,205.78,313.824,224.672,303.686,240.105Z" transform="translate(243.099 168.767)" fill="url(#linear-gradient)"/>
        <path id="Path_11567" data-name="Path 11567" d="M309.861,247.322s-18.2-3.349-20.821-27.482C288.967,219.84,310.5,228.831,309.861,247.322Z" transform="translate(237.016 180.296)" fill="url(#linear-gradient)"/>
        <path id="Path_11568" data-name="Path 11568" d="M308.861,262.552s-18.2-3.349-20.821-27.482C287.967,235.07,309.5,244.043,308.861,262.552Z" transform="translate(236.195 192.785)" fill="url(#linear-gradient)"/>
        <path id="Path_11569" data-name="Path 11569" d="M305.377,277.454S287.5,272.831,286.54,248.57C286.54,248.57,307.4,259.053,305.377,277.454Z" transform="translate(234.965 203.855)" fill="url(#linear-gradient)"/>
        <path id="Path_11570" data-name="Path 11570" d="M300.847,291.7s-17.873-4.623-18.837-28.884C281.992,262.82,302.776,273.3,300.847,291.7Z" transform="translate(231.251 215.54)" fill="url(#linear-gradient)"/>
      </g>
      <rect id="Rectangle_3087" data-name="Rectangle 3087" width="261.026" height="511.823" rx="21.15" transform="translate(258.296 126.334)" fill="url(#linear-gradient-13)"/>
      <rect id="Rectangle_3088" data-name="Rectangle 3088" width="236.929" height="478.681" rx="14.81" transform="translate(270.344 141.385)" fill="#fff"/>
      <path id="Path_11571" data-name="Path 11571" d="M325.553,79.646h-15.4a8.572,8.572,0,0,0-8.572,8.572v6.115a8.536,8.536,0,0,1-8.554,8.554H224.4a8.554,8.554,0,0,1-8.572-8.554V88.218a8.554,8.554,0,0,0-8.554-8.572H163.59V75.26H325.7Z" transform="translate(134.145 61.739)" fill="url(#linear-gradient-13)"/>
      <g id="Group_4302" data-name="Group 4302" transform="translate(0 4)">
        <path id="Path_11572" data-name="Path 11572" d="M220.169,120.913a3.185,3.185,0,1,0-2.985,0,5.005,5.005,0,0,0-3.494,4.75v2.493h9.955v-2.493A5,5,0,0,0,220.169,120.913Z" transform="translate(174.31 82.256)" fill="#37366a"/>
        <text id="Connect_to_us" data-name="Connect to us" transform="translate(341 229)" fill="#37366a" font-size="15" font-family="Poppins-Medium, Poppins" font-weight="500"><tspan x="0" y="0">Connect to us</tspan></text>
      </g>
      <rect id="Rectangle_3089" data-name="Rectangle 3089" width="98.59" height="22.131" rx="0.98" transform="translate(338.285 527.737)" fill="#e64560"/>
      <text id="Register" transform="translate(370.572 540.925)" fill="#f3f4e9" font-size="7" font-family="Montserrat-Regular, Montserrat"><tspan x="0" y="0">Regis</tspan><tspan y="0" letter-spacing="-0.018em">t</tspan><tspan y="0">er</tspan></text>
      <g id="Group_4181" data-name="Group 4181" transform="translate(303.741 262.525)" opacity="0.57">
        <text id="Email_Address" data-name="Email Address" transform="translate(0 7)" fill="#37366a" font-size="7" font-family="Poppins-Medium, Poppins" font-weight="500"><tspan x="0" y="0">Email </tspan><tspan y="0" letter-spacing="-0.01em">A</tspan><tspan y="0">dd</tspan><tspan y="0" letter-spacing="-0.01em">r</tspan><tspan y="0">ess</tspan></text>
      </g>
      <text id="youremail_gmail.c" data-name="youremail@gmail.c" transform="translate(312.132 293.877)" fill="#37366a" font-size="7" font-family="Poppins-Medium, Poppins" font-weight="500"><tspan x="0" y="0" letter-spacing="-0.02em">y</tspan><tspan y="0">ou</tspan><tspan y="0" letter-spacing="-0.01em">r</tspan><tspan y="0">email@gmail</tspan><tspan y="0" letter-spacing="-0.02em">.</tspan><tspan y="0">c</tspan></text>
      <rect id="Rectangle_3090" data-name="Rectangle 3090" width="180.327" height="27.173" rx="2.76" transform="translate(303.741 277.904)" fill="none" stroke="#37366a" stroke-miterlimit="10" stroke-width="0.5"/>
      <g id="Group_4182" data-name="Group 4182" transform="translate(303.741 323.004)" opacity="0.52">
        <text id="Phone_No." data-name="Phone No." transform="translate(0 7)" fill="#37366a" font-size="7" font-family="Poppins-Medium, Poppins" font-weight="500" letter-spacing="-0.02em"><tspan x="0" y="0">Phone No.</tspan></text>
      </g>
      <text id="Enter_Number" data-name="Enter Number" transform="translate(312.132 354.137)" fill="#37366a" font-size="7" font-family="Poppins-Medium, Poppins" font-weight="500" letter-spacing="-0.059em"><tspan x="0" y="0">Enter Number</tspan></text>
      <rect id="Rectangle_3091" data-name="Rectangle 3091" width="180.327" height="27.173" rx="2.76" transform="translate(303.741 338.638)" fill="none" stroke="#37366a" stroke-miterlimit="10" stroke-width="0.5"/>
      <g id="Group_4183" data-name="Group 4183" transform="translate(303.741 386.868)" opacity="0.52">
        <text id="City" transform="translate(0 7)" fill="#37366a" font-size="7" font-family="Poppins-Medium, Poppins" font-weight="500"><tspan x="0" y="0">Ci</tspan><tspan y="0" letter-spacing="-0.01em">t</tspan><tspan y="0">y</tspan></text>
      </g>
      <text id="Your_City" data-name="Your City" transform="translate(312.132 417.983)" fill="#37366a" font-size="7" font-family="Poppins-Medium, Poppins" font-weight="500"><tspan x="0" y="0" letter-spacing="-0.059em">Y</tspan><tspan y="0">our Ci</tspan><tspan y="0" letter-spacing="-0.01em">t</tspan><tspan y="0">y</tspan></text>
      <rect id="Rectangle_3092" data-name="Rectangle 3092" width="180.327" height="27.173" rx="2.76" transform="translate(303.741 402.484)" fill="none" stroke="#37366a" stroke-miterlimit="10" stroke-width="0.5"/>
      <g id="Group_4184" data-name="Group 4184" transform="translate(303.741 451.042)" opacity="0.52">
        <text id="Message" transform="translate(0 7)" fill="#37366a" font-size="7" font-family="Poppins-Medium, Poppins" font-weight="500" letter-spacing="-0.01em"><tspan x="0" y="0">Message</tspan></text>
      </g>
      <text id="Type_Something" data-name="Type Something" transform="translate(312.132 482.157)" fill="#37366a" font-size="7" font-family="Poppins-Medium, Poppins" font-weight="500"><tspan x="0" y="0">Type Something</tspan></text>
      <rect id="Rectangle_3093" data-name="Rectangle 3093" width="180.327" height="27.173" rx="2.76" transform="translate(303.741 466.658)" fill="none" stroke="#37366a" stroke-miterlimit="10" stroke-width="0.5"/>
      <line id="Line_76" data-name="Line 76" y2="9.591" transform="translate(382.006 285.239)" fill="none" stroke="#50c3e2" stroke-miterlimit="10" stroke-width="0.5"/>
      <path id="Path_11573" data-name="Path 11573" d="M367.787,394.94c0-2.129-51.925-3.84-115.989-3.84s-116.007,1.711-116.007,3.84,51.925,3.84,116.007,3.84S367.787,397.051,367.787,394.94Z" transform="translate(111.349 320.731)" fill="#6756ad" opacity="0.25"/>
      <path id="Path_11574" data-name="Path 11574" d="M206.26,261.687s11.521,17.8,14.123,10.083l4.222-12.431s-3.276-5.369-5.023-3.64-4.15-1.42-4.15-1.42Z" transform="translate(169.135 208.537)" fill="#f5ba9a"/>
      <path id="Path_11575" data-name="Path 11575" d="M255.326,236.577l4.768-27.664c3.13-1,6.334-3.422,5.242-7.153a5.46,5.46,0,0,0-3.731-3.513c-.655-.255-3.986-1.2-4.222,0l1.82-9.955L226.77,172.64l-3,20.02c0-.309-3.149-1.019-3.64-.983a5.46,5.46,0,0,0-3.858,3.13,6.425,6.425,0,0,0,5.66,8.572s.564,8.918,2.621,12.067,11.612,5.351,11.612,5.351l-1.056,12.048Z" transform="translate(177.036 141.592)" fill="#f5ba9a"/>
      <path id="Path_11576" data-name="Path 11576" d="M265.614,212.485c-14.651-4.113-35.235-7.735-35.235-7.735L216.71,302.03l57.549-1.82Z" transform="translate(177.704 167.922)" fill="#68c3ea"/>
      <path id="Path_11577" data-name="Path 11577" d="M243.58,230.017a379.818,379.818,0,0,0,57.713,10.92c-4.386-20.02-6.771-35.181-12.5-52.107l21.6-5.46s18.2,63.118,12.631,71.545c-9.373,14.323-55.984,4.9-55.984,4.9l-22.058-3.931Z" transform="translate(199.738 150.39)" fill="#68c3ea"/>
      <path id="Path_11578" data-name="Path 11578" d="M195.3,233.913s61.753-30.212,64.592-29.12,5.26,15.124,5.26,15.124a544.182,544.182,0,0,1-57.021,30.321l31.5,42.879-15.688,11.248S180.7,255.771,182.34,245.725C183.578,237.954,195.3,233.913,195.3,233.913Z" transform="translate(149.484 167.934)" fill="#68c3ea"/>
      <path id="Path_11579" data-name="Path 11579" d="M296.067,203.248s-2.548-17.872-2.857-18.382-.309-3.64-4.9-2.912c0,0-.309-5.66-2.948-5.751a24.059,24.059,0,0,0-5.624.6s-2.985-14.56-4.914-17.017-5.078,4.477-.491,22.168c0,0,2.548,12.048,1.82,12.485-2.057,1.2-4.878.983-8.791-5.7-4.15-7.1-9.318-4.7-6.77.819s6.17,12.613,8.518,14.56,7.28,1.638,7.28,1.638l.728,2.311Z" transform="translate(213.135 130.658)" fill="#f5ba9a"/>
      <path id="Path_11580" data-name="Path 11580" d="M323.016,259.8c-6.934,105.251-30.467,235.145-30.467,235.145l23.041,9.755h-49.14l32.305-229.7H287.745L206.263,504.843H157.25l27.883-10.156L266.523,254.1Z" transform="translate(128.946 208.39)" fill="#594656"/>
      <path id="Path_11581" data-name="Path 11581" d="M261.766,202.054c2.748-5.46,5.951-18.782-2.366-22.5a83.881,83.881,0,0,1-12.121-6.9,21.058,21.058,0,0,0-17.272-3.112,15.853,15.853,0,0,0-2.73,1.019c-5.806,2.857-9.737,18.309-9.737,18.309l5.715,1.42s6.37,28.338,16.853,34.162l10.465,2.22,6.188,1.383Z" transform="translate(178.385 138.513)" fill="#b96944"/>
      <path id="Path_11582" data-name="Path 11582" d="M238.245,176.188a39.488,39.488,0,0,0-.2-5.078c0-.673-1.147-.692-1.074,0a39.478,39.478,0,0,1,.182,5.078.546.546,0,1,0,1.092,0Z" transform="translate(194.316 139.918)" fill="#b96944"/>
      <path id="Path_11583" data-name="Path 11583" d="M238.029,176.213a4.823,4.823,0,0,0,1.347-2,22.113,22.113,0,0,1,1.711-2.6c.419-.546-.51-1.092-.928-.546a19.109,19.109,0,0,0-1.383,2.038c-.364.6-.692,1.82-1.292,2.184s0,1.31.546.928Z" transform="translate(194.533 140.112)" fill="#b96944"/>
      <path id="Path_11584" data-name="Path 11584" d="M232.015,379.6c0-2.129-51.943-3.84-116.007-3.84S0,377.471,0,379.6s51.943,3.877,116.007,3.877S232.015,381.657,232.015,379.6Z" transform="translate(0 308.152)" fill="#6756ad" opacity="0.25"/>
      <path id="Path_11585" data-name="Path 11585" d="M103.674,157.021a51.067,51.067,0,0,0-7.007-.837c-4.15-.382-7.935,2.293-11.066,5.041a36.181,36.181,0,0,0-7.444,9.974c-2.075,3.64-4.022,8.026-2.8,12.1a10.21,10.21,0,0,1,.819,3.13c0,3.385-4.7,4.659-6.152,7.7-1.82,3.767,1.82,8.827-.619,12.176-1.238,1.674-3.64,2.2-4.8,3.913a7.79,7.79,0,0,0-.8,4.75,1.2,1.2,0,0,0,.291.928,1.438,1.438,0,0,0,.783.255c13.286,1.274,26.427-1.6,39.731-.328a22.37,22.37,0,0,0,4.8.127,22.9,22.9,0,0,0,6.57-2.184c11.484-5.242,22.969-6.607,34.2-12.376a2.475,2.475,0,0,0,1.2-.983,2.057,2.057,0,0,0,.127-1.2,7.808,7.808,0,0,0-5.314-6.516c-2.93-.928-6.425-.127-8.863-1.966a8.3,8.3,0,0,1-2.639-5.9c-.473-4.459,0-9.628-3.2-12.74-2.53-2.439-6.588-2.712-9.1-5.132a32.542,32.542,0,0,1-3.385-4.95c-3.44-4.75-9.264-7.517-15.288-4.987" transform="translate(52.246 127.999)" fill="#594656"/>
      <path id="Path_11586" data-name="Path 11586" d="M119.965,242.639,45.89,476.929,16.77,488.176H60l83.629-220.822a3.64,3.64,0,0,1,3.4-2.366h0a3.64,3.64,0,0,1,3.64,4.04l-22.04,219.147h43.789l-29.229-9.682s27.3-127.4,33.288-167.3-2.766-68.032-2.766-68.032S145.372,234.158,119.965,242.639Z" transform="translate(13.752 196.009)" fill="#53648c"/>
      <path id="Path_11587" data-name="Path 11587" d="M73.94,197.443c6.789-7.1,33.779-7.917,43.535-3.913s27.7,55.838,27.7,55.838l-17.836,7.007-11.084-43.316-34.726-4.787Z" transform="translate(60.631 156.756)" fill="url(#linear-gradient)"/>
      <path id="Path_11588" data-name="Path 11588" d="M120.419,217.33a57.057,57.057,0,0,0,3.64-12.74c.655-5.46-6.88-10.92-6.88-10.92L76.338,204.262l2.53,24.334-5.988,49.14,51.907,1.929-5.223-62.153" transform="translate(59.762 158.837)" fill="url(#linear-gradient)"/>
      <path id="Path_11589" data-name="Path 11589" d="M76.9,209.929a.8.8,0,0,1-.491-.164.819.819,0,0,1-.182-1.165l2.912-3.858a.819.819,0,0,1,1.165-.164.837.837,0,0,1,.164,1.165L77.553,209.6a.8.8,0,0,1-.655.328Z" transform="translate(62.369 167.639)" fill="#5d95ba"/>
      <path id="Path_11590" data-name="Path 11590" d="M62.27,246.93l9.373-5.46" transform="translate(51.062 198.033)" fill="#8fcaec"/>
      <path id="Path_11591" data-name="Path 11591" d="M91.565,218.85c-.564-5.46,2.2-10.92-6.552-14.433-12.067-4.823-14.56-46.447,7.153-46.538s20.712,27.3,20.639,35.527-7.28,10.228-9.1,13.177-.255,12.267-.255,12.267Z" transform="translate(62.207 129.488)" fill="#f5ba9a"/>
      <path id="Path_11592" data-name="Path 11592" d="M81.474,176.251a4.222,4.222,0,1,1-4.186-4.841A4.55,4.55,0,0,1,81.474,176.251Z" transform="translate(59.922 140.583)" fill="#f5ba9a"/>
      <ellipse id="Ellipse_364" data-name="Ellipse 364" cx="4.186" cy="4.841" rx="4.186" ry="4.841" transform="translate(172.136 308.244)" fill="#f5ba9a"/>
      <path id="Path_11593" data-name="Path 11593" d="M263.191,227.8l-6.461-16.38L74,283.147a38.73,38.73,0,1,0,7.571,23,36.544,36.544,0,0,0-.291-4.7l139.158-56.42,7.644,16.817,16.981-7.771L239.076,240.7l5.46-2.912L251,250.659l12.139-6.5-6.716-13.7ZM42.86,331.377a25.225,25.225,0,1,1,25.225-25.225A25.225,25.225,0,0,1,42.86,331.377Z" transform="translate(3.368 173.392)" fill="url(#linear-gradient-13)"/>
      <path id="Path_11594" data-name="Path 11594" d="M94.81,194.6s-46.064,41.023-46.319,48.631S75.627,290.9,75.627,290.9l13.7-8.663L70.149,246.288l31.213-29.757s1.019,6.916,3.513,8.791l1.383-27.3Z" transform="translate(39.761 159.599)" fill="url(#linear-gradient)"/>
      <path id="Path_11595" data-name="Path 11595" d="M108.4,169.264c-5.988.309-32.524,3-32.524,3s3.877-15.925,16.271-16.562C108.4,154.886,108.4,169.264,108.4,169.264Z" transform="translate(62.222 127.677)" fill="#594656"/>
      <path id="Path_11596" data-name="Path 11596" d="M76.408,180.314s21.494-2.02,25.262-12.176c0,0,7.153,9.1,11.339,8.681,0,0,.673-12.03-1.929-13.65s-35.6,1.729-35.6,1.729a52.781,52.781,0,0,0,.928,15.415Z" transform="translate(61.731 133.463)" fill="#594656"/>
      <path id="Path_11597" data-name="Path 11597" d="M63.72,250.717s5.879,12.394,6.206,12.74,1.056,2.6,4.2,1.019c0,0,1.511,4.022,3.458,3.513a18.417,18.417,0,0,0,3.931-1.711s2.348,3.149,4.1,1.474c2.057-1.929.109-4.1-1.347-6.425,0,0-4.55-8.172-4.1-8.663,1.219-1.329,3.312-1.82,7.644,2.166,4.623,4.2,7.826,1.31,4.732-2.111s-7.28-7.79-9.446-8.663a9.755,9.755,0,0,0-5.66.455L76.387,243Z" transform="translate(52.251 199.288)" fill="#f5ba9a"/>
      <path id="Path_11598" data-name="Path 11598" d="M136.733,233s-3.294,9.373-9.1,10.92-38.093,8.135-38.093,8.135v-12.74Z" transform="translate(73.424 191.087)" fill="#fb768d"/>
      <path id="Path_11599" data-name="Path 11599" d="M101.576,239.371H99.119a17.4,17.4,0,0,0-.892-2.311c-1.019-1.638-14.56-3.349-14.305-1.583s2.475,2.2,7.28,3.094c0,0-17.836,4.332-16.162,5.733s12.74-1.82,12.74-1.82-12.067,3.913-11.211,6.588c.491,1.547,12.74-2.075,12.74-2.075s-12.467,4.459-10.247,5.97,15.98-1.82,17.308-2.348,1.82-3.039,1.82-3.039l3.349-.582Z" transform="translate(61.443 192.506)" fill="#f5ba9a"/>
      <path id="Path_11600" data-name="Path 11600" d="M84,153.374a19.821,19.821,0,0,0,1.82,6.152c.473.71,1.638,0,1.165-.673a18.638,18.638,0,0,1-1.674-5.842c-.2-.819-1.492-.473-1.292.364Z" transform="translate(68.88 125.112)" fill="#594656"/>
      <path id="Path_11601" data-name="Path 11601" d="M86.149,158.508q1-1.82,2.184-3.549c.473-.71-.673-1.383-1.165-.673q-1.147,1.711-2.184,3.549a.673.673,0,0,0,1.165.673Z" transform="translate(69.626 126.294)" fill="#594656"/>
      <path id="Path_11602" data-name="Path 11602" d="M87.016,172.028a32.215,32.215,0,0,0,.182,4.586c.091.783,0,2.166.546,2.766s.965.309,1.365.382c1.456.218,2.93.382,4.386.582l-.218-.564a13.469,13.469,0,0,1-4.186,2.712c-.382.182,0,.746.346.582a13.85,13.85,0,0,0,4.3-2.821.346.346,0,0,0-.237-.582c-1.529-.2-4.641,0-5.46-1.638a15.124,15.124,0,0,1-.382-6.006.337.337,0,0,0-.673,0Z" transform="translate(71.324 140.821)" fill="#f49e78"/>
      <path id="Path_11603" data-name="Path 11603" d="M91.106,177.375c.182-1.529-.783-5.078,1.128-5.824s2.785.764,3.058,2.2l.491,2.712c0,.419.71.237.637-.182-.4-2.2-.491-5.988-3.786-5.46s-1.966,4.659-2.2,6.625c0,.419.619.419.673,0Z" transform="translate(74.096 140.06)" fill="#514540"/>
      <path id="Path_11604" data-name="Path 11604" d="M81.642,177.875c.182-1.529-.783-5.078,1.147-5.824s2.766.764,3.039,2.2l.491,2.712c0,.419.728.237.637-.182-.4-2.2-.491-5.988-3.786-5.46s-1.947,4.659-2.2,6.625c0,.419.619.419.673,0Z" transform="translate(66.343 140.47)" fill="#514540"/>
      <path id="Path_11605" data-name="Path 11605" d="M83.811,177.141c.71,5.46,10.1,6.661,13.559,3.294.309-.291-.164-.764-.473-.473-2.876,2.821-11.775,2.166-12.431-2.821,0-.419-.71-.419-.655,0Z" transform="translate(68.724 145.025)" fill="#f49e78"/>
      <path id="Path_11606" data-name="Path 11606" d="M84.025,178.236a1.274,1.274,0,0,1,1.4-.874c.437,0,.6-.564.182-.637a1.947,1.947,0,0,0-2.22,1.329c-.127.4.51.582.637.182Z" transform="translate(68.365 144.914)" fill="#f49e78"/>
      <g id="Group_4185" data-name="Group 4185" transform="translate(144.756 319.312)" opacity="0.28">
        <path id="Path_11607" data-name="Path 11607" d="M86.332,176.121c.309.746-1,1.966-3.021,2.384a5.459,5.459,0,0,1-2.548,0,1.82,1.82,0,0,1-1.147-.728.673.673,0,0,1,0-.637,2.056,2.056,0,0,1,.764-.673,7.917,7.917,0,0,1,2.293-.837C84.457,175.283,86.041,175.356,86.332,176.121Z" transform="translate(-79.536 -175.431)" fill="#f28279"/>
      </g>
      <g id="Group_4186" data-name="Group 4186" transform="translate(166.633 317.813)" opacity="0.28">
        <path id="Path_11608" data-name="Path 11608" d="M98.37,175.322c.291.746-1.019,1.966-3.021,2.384a5.461,5.461,0,0,1-2.566,0,1.82,1.82,0,0,1-1.147-.728.673.673,0,0,1,0-.637,2.057,2.057,0,0,1,.746-.655,7.9,7.9,0,0,1,2.293-.819C96.477,174.43,98.061,174.521,98.37,175.322Z" transform="translate(-91.556 -174.607)" fill="#f28279"/>
      </g>
      <path id="Path_11609" data-name="Path 11609" d="M76.076,172.69a2.129,2.129,0,0,0-1.82,2.493,2.421,2.421,0,0,0,2.257,2.275.328.328,0,0,0,0-.655c-1.82-.127-2.33-3.385-.364-3.44.437,0,.437-.692,0-.673Z" transform="translate(60.862 141.633)" fill="#f49e78"/>
      <path id="Path_11610" data-name="Path 11610" d="M74.294,173.953a3.04,3.04,0,0,0,2.621,1.147c.419,0,.419-.692,0-.655a2.457,2.457,0,0,1-2.148-.965C74.494,173.152,74.039,173.625,74.294,173.953Z" transform="translate(60.86 142.19)" fill="#f49e78"/>
      <path id="Path_11611" data-name="Path 11611" d="M96.807,175.608c1.438.346,2.239-.965,2.421-2.22a2.421,2.421,0,0,0-2.111-2.857.337.337,0,0,0,0,.673,1.82,1.82,0,0,1,1.474,1.82c0,.855-.491,2.129-1.62,1.82-.4-.109-.582.546-.164.637Z" transform="translate(79.187 139.861)" fill="#f49e78"/>
      <path id="Path_11612" data-name="Path 11612" d="M97.183,173.395a3.476,3.476,0,0,0,1.147-2.148c0-.419-.582-.6-.637-.164a3,3,0,0,1-.983,1.82c-.328.291.146.764.473.473Z" transform="translate(79.212 140.109)" fill="#f49e78"/>
    </g>
  </g>
</svg>
