<svg xmlns="http://www.w3.org/2000/svg" width="122.779" height="122.779" viewBox="0 0 122.779 122.779">
  <g id="Group_4306" data-name="Group 4306" transform="translate(-1077.853 -412.853)">
    <path id="Path_12251" data-name="Path 12251" d="M69.445,8.366A61.09,61.09,0,0,0,48.1,126.691l43.318-.238A61.09,61.09,0,0,0,69.445,8.366Z" transform="translate(1069.666 406.857)" fill="#fce3e7"/>
    <g id="Group_4263" data-name="Group 4263" transform="translate(-29 -3231)">
      <g id="doctor" transform="translate(1105 3642)">
        <g id="Group_4258" data-name="Group 4258" transform="translate(1.853 1.853)">
          <path id="Path_12204" data-name="Path 12204" d="M226.772,413.316h14.441v18.82H226.772Z" transform="translate(-172.603 -313.063)" fill="#c7c2c9"/>
          <path id="Path_12205" data-name="Path 12205" d="M122.868,191.411H14.911A7.411,7.411,0,0,1,7.5,184V121.1a7.411,7.411,0,0,1,7.411-7.411H122.868a7.411,7.411,0,0,1,7.411,7.411V184A7.411,7.411,0,0,1,122.868,191.411Z" transform="translate(-7.5 -87.452)" fill="#68c3ea"/>
          <path id="Path_12206" data-name="Path 12206" d="M451.911,113.684H444.5a7.411,7.411,0,0,1,7.411,7.411V184a7.411,7.411,0,0,1-7.411,7.411h7.411A7.411,7.411,0,0,0,459.322,184V121.1A7.411,7.411,0,0,0,451.911,113.684Z" transform="translate(-336.543 -87.452)" fill="#3ea3ce"/>
          <path id="Path_12207" data-name="Path 12207" d="M37.5,205.847V144.425a.741.741,0,0,1,.741-.741H144.715a.741.741,0,0,1,.741.741v61.422a.741.741,0,0,1-.741.741H38.241A.741.741,0,0,1,37.5,205.847Z" transform="translate(-30.089 -110.041)" fill="#ecf5ff"/>
          <path id="Path_12208" data-name="Path 12208" d="M448.911,143.684H441.5a.741.741,0,0,1,.741.741v61.422a.741.741,0,0,1-.741.741h7.411a.741.741,0,0,0,.741-.741V144.425a.741.741,0,0,0-.741-.741Z" transform="translate(-334.285 -110.041)" fill="#dceafc"/>
          <path id="Path_12209" data-name="Path 12209" d="M212.3,474.5H189.468a6.67,6.67,0,0,0-6.67,6.67.741.741,0,0,0,.741.741h34.686a.741.741,0,0,0,.741-.741A6.67,6.67,0,0,0,212.3,474.5Z" transform="translate(-139.492 -359.132)" fill="#655e67"/>
          <path id="Path_12210" data-name="Path 12210" d="M279.614,474.5H272.2a6.67,6.67,0,0,1,6.67,6.67.741.741,0,0,1-.741.741h7.411a.741.741,0,0,0,.741-.741A6.67,6.67,0,0,0,279.614,474.5Z" transform="translate(-206.811 -359.132)" fill="#544f56"/>
          <g id="Group_4257" data-name="Group 4257" transform="translate(23.117)">
            <g id="Group_4256" data-name="Group 4256">
              <path id="Path_12211" data-name="Path 12211" d="M177.621,250.94V230.9a12.347,12.347,0,0,0-8.417-11.7l-17.884-6.011a4.115,4.115,0,0,1-2.806-3.9v-6.7H130.184v6.7a4.115,4.115,0,0,1-2.806,3.9L109.494,219.2a12.347,12.347,0,0,0-8.417,11.7V250.94Z" transform="translate(-101.077 -154.393)" fill="#68c3ea"/>
              <g id="Group_4252" data-name="Group 4252" transform="translate(29.107 48.195)">
                <path id="Path_12212" data-name="Path 12212" d="M257.92,219.2l-17.884-6.011a4.115,4.115,0,0,1-2.806-3.9v-6.7H218.9v3.706h10.92v6.7a4.115,4.115,0,0,0,2.806,3.9l17.884,6.011a12.347,12.347,0,0,1,8.417,11.7v16.334h7.411V230.9A12.347,12.347,0,0,0,257.92,219.2Z" transform="translate(-218.899 -202.588)" fill="#3ea3ce"/>
              </g>
              <path id="Path_12213" data-name="Path 12213" d="M206.981,213.237l11.268,11.257a1.482,1.482,0,0,0,2.1,0l11.165-11.153-.447-.15a4.115,4.115,0,0,1-2.806-3.9v-6.7H209.925v6.7a4.115,4.115,0,0,1-2.806,3.9Z" transform="translate(-180.818 -154.394)" fill="#f1ccbd"/>
              <path id="Path_12214" data-name="Path 12214" d="M263.1,212.995a4.115,4.115,0,0,0,2.806,3.9l3.217,1.081,4.641-4.637-.447-.15a4.115,4.115,0,0,1-2.806-3.9v-6.7H263.1Z" transform="translate(-223.075 -154.393)" fill="#eaad9c"/>
              <g id="Group_4255" data-name="Group 4255" transform="translate(16.746)">
                <path id="Path_12215" data-name="Path 12215" d="M211.916,32.721H168.865V16.846A9.346,9.346,0,0,1,178.211,7.5h24.36a9.346,9.346,0,0,1,9.346,9.346Z" transform="translate(-168.865 -7.5)" fill="#112152"/>
                <path id="Path_12216" data-name="Path 12216" d="M282.714,7.5H275.3a9.346,9.346,0,0,1,9.346,9.346V32.721h7.411V16.846A9.346,9.346,0,0,0,282.714,7.5Z" transform="translate(-249.009 -7.5)" fill="#070f27"/>
                <g id="Group_4253" data-name="Group 4253" transform="translate(0 14.425)">
                  <path id="Path_12217" data-name="Path 12217" d="M190.315,103.15a21.666,21.666,0,0,1-21.45-21.737v-7.53a47.5,47.5,0,0,0,17.871-3.4,46.767,46.767,0,0,0,8.385-4.41,1.122,1.122,0,0,1,1.506.254,19.5,19.5,0,0,0,15.29,7.555v7.763A21.515,21.515,0,0,1,190.315,103.15Z" transform="translate(-168.865 -65.889)" fill="#f1ccbd"/>
                </g>
                <g id="Group_4254" data-name="Group 4254" transform="translate(8.479 20.9)">
                  <path id="Path_12218" data-name="Path 12218" d="M230.348,92.1v5.576a21.515,21.515,0,0,1-21.6,21.5,21.279,21.279,0,0,1-5.56-.756,21.25,21.25,0,0,0,12.971,4.462,21.515,21.515,0,0,0,21.6-21.5V93.621A19.726,19.726,0,0,1,230.348,92.1Z" transform="translate(-203.186 -92.103)" fill="#eaad9c"/>
                </g>
              </g>
              <ellipse id="Ellipse_385" data-name="Ellipse 385" cx="6.651" cy="6.644" rx="6.651" ry="6.644" transform="translate(55.02 76.22)" fill="#f1eff1"/>
            </g>
          </g>
        </g>
      </g>
      <path id="Path_12249" data-name="Path 12249" d="M37.5,64.6s.592,9.022.885,10.249a9.462,9.462,0,0,0-7.049,9.137v6.1a3.132,3.132,0,0,0,3.128,3.128H36.2a1.853,1.853,0,0,0,0-3.706H35.045v-5.52a5.746,5.746,0,0,1,5.736-5.74h.012a5.746,5.746,0,0,1,5.733,5.74v5.52H45.371a1.853,1.853,0,0,0,0,3.706H47.1a3.132,3.132,0,0,0,3.128-3.128v-6.1a9.46,9.46,0,0,0-8.067-9.344c-.341-1.2-.929-11.29-.929-11.29Z" transform="translate(1110 3641)" fill="#2e6e8a"/>
      <path id="Path_12250" data-name="Path 12250" d="M86.26,64.366s-.349,10.385-.914,11.952a8.5,8.5,0,1,0,3.806.28c.5-1.669.68-11.148.68-11.148Zm.379,15.56h0a4.791,4.791,0,1,1-4.8,4.791A4.8,4.8,0,0,1,86.643,79.926Z" transform="translate(1105 3642)" fill="#2e6e8a"/>
    </g>
  </g>
</svg>
