<svg xmlns="http://www.w3.org/2000/svg" width="845.796" height="1161.367" viewBox="0 0 845.796 1161.367">
  <g id="Group_4228" data-name="Group 4228" transform="translate(-86 -3538)">
    <ellipse id="Ellipse_374" data-name="Ellipse 374" cx="259.5" cy="523.5" rx="259.5" ry="523.5" transform="translate(444.095 3538) rotate(20)" fill="#fadadf"/>
    <g id="Group_4226" data-name="Group 4226" transform="translate(-77.602 -72.817)">
      <g id="Layer_2" data-name="Layer 2" transform="translate(365.79 3645)">
        <g id="Ñëîé_1" data-name="Ñëîé 1" transform="translate(0)">
          <path id="Path_12140" data-name="Path 12140" d="M440.415,134.982,238.091,18.187c-14.337-8.283-26.033-1.581-26.081,14.858L210.43,601.291c-.047,16.47,11.578,36.608,25.915,44.883L438.669,762.968c14.337,8.283,26.033,1.581,26.081-14.858l1.581-568.245C466.378,163.394,454.752,143.257,440.415,134.982Z" transform="translate(-44.129 -3.069)" fill="#c43049"/>
          <path id="Path_12141" data-name="Path 12141" d="M463.134,120.193,260.849,3.4c-10.519-6.07-15.7-3.114-24.658,1.889-3.446,1.92-10.156,5.635-13.791,7.9l10.748,573.28c-.047,16.47,11.578,36.608,25.907,44.883l200.917,130.1c6.417-4.133,27.314-12.7,27.456-28.167l1.581-568.206C489.1,148.582,477.486,128.476,463.134,120.193Z" transform="translate(-46.639 0)" fill="#e64560"/>
          <path id="Path_12142" data-name="Path 12142" d="M461.06,183.795c0-7.532-2.521-15.862-6.678-23.354-4.5-8.109-10.883-15.245-17.964-19.331L244.012,30.029c-7.413-4.276-13.293-8.441-19.576-4.687-6.765,4.031-5.208,11.681-5.232,18.826l-1.533,548.7c0,15.435,2.426,23.876,6.441,31.257,4.513,8.291,11,15.609,18.178,19.758L434.726,754.972c6.765,3.9,15.056,10.1,20.509,6.014,5.7-4.268,4.268-20.612,4.291-28.452Z" transform="translate(-45.647 -5.007)" fill="#fff"/>
          <path id="Path_12143" data-name="Path 12143" d="M551.724,771.085s-5.145,13.9-19.268,20.92c.616-120.5,1.146-575.872.719-583.357a38.725,38.725,0,0,0-3.327-11.855c-2.371-5.888,11.555-19.379,15.751-16,5.722,4.623,6.062,20.651,6.125,27.843C552.957,349.248,551.724,771.085,551.724,771.085Z" transform="translate(-111.045 -37.796)" fill="#b4253d"/>
          <g id="Group_4225" data-name="Group 4225" transform="translate(172.252 112.495)" opacity="0.11">
            <path id="Path_12144" data-name="Path 12144" d="M417.275,154.764,395.762,142.34,218.831,289.886l-.071,26.681Z" transform="translate(-218.128 -142.34)" fill="#fff"/>
            <path id="Path_12145" data-name="Path 12145" d="M218.007,578.665l-.047,19.316L460.725,403.939l.016-4.639Z" transform="translate(-217.96 -196.217)" fill="#fff"/>
            <path id="Path_12146" data-name="Path 12146" d="M218.345,454.693l-.055,19.766L461.063,278.671l.055-20.2Z" transform="translate(-218.029 -166.689)" fill="#fff"/>
          </g>
          <path id="Path_12147" data-name="Path 12147" d="M309.371,180.782,264.227,152.6c-.846-.53-1.541-.111-1.541.956l-.166,61.187a3.7,3.7,0,0,0,1.525,2.861l44.835,28.246c.861.537,1.581.126,1.581-.925l.474-61.25a3.73,3.73,0,0,0-1.565-2.893Zm-2,60.3-41.785-26.3.174-57.386,42.03,26.294Z" transform="translate(-55.051 -31.948)" fill="#73c7f2"/>
          <path id="Path_12148" data-name="Path 12148" d="M345.3,207.57l-.063,6.884,105.485,62.088.379-6.749Z" transform="translate(-72.395 -43.522)" fill="#2c90d4"/>
          <path id="Path_12149" data-name="Path 12149" d="M345.083,231.65l-.063,6.781,104.624,61.725.371-6.655Z" transform="translate(-72.349 -48.571)" fill="#73c7f2"/>
          <path id="Path_12150" data-name="Path 12150" d="M344.873,255.35l-.063,6.67,60.958,36.047.237-6.591Z" transform="translate(-72.305 -53.54)" fill="#73c7f2"/>
          <path id="Path_12151" data-name="Path 12151" d="M304.9,193.651a5.342,5.342,0,0,0-1.391-1.336c-1.091-.68-2.158-.53-2.7.545L287.718,218.61l-12.361-28.08a6.608,6.608,0,0,0-2.3-2.916,1.944,1.944,0,0,0-1.936-.253c-1.28.656-1.454,3.161-.4,5.532l15.222,34.585a6.63,6.63,0,0,0,2.3,2.916,3.239,3.239,0,0,0,.324.174,1.62,1.62,0,0,0,2.371-.7l15.23-29.851C306.939,198.48,306.362,195.627,304.9,193.651Z" transform="translate(-56.626 -39.253)" fill="#e64560"/>
          <path id="Path_12152" data-name="Path 12152" d="M308.886,306.306,264.2,278.028c-.838-.53-1.525-.126-1.533.909L262.51,338.9a3.667,3.667,0,0,0,1.51,2.821L308.4,370.054c.846.537,1.541.142,1.581-.885l.458-60.01a3.683,3.683,0,0,0-1.557-2.853Zm-1.976,59.061-41.366-26.381.174-56.24,41.6,26.342Z" transform="translate(-55.049 -58.246)" fill="#73c7f2"/>
          <path id="Path_12153" data-name="Path 12153" d="M344.453,333.07l-.063,6.742,104.4,62.365.364-6.607Z" transform="translate(-72.217 -69.836)" fill="#2c90d4"/>
          <path id="Path_12154" data-name="Path 12154" d="M344.235,356.66l-.055,6.647L447.729,425.3l.364-6.512Z" transform="translate(-72.173 -74.782)" fill="#73c7f2"/>
          <path id="Path_12155" data-name="Path 12155" d="M344.025,379.88l-.055,6.544,60.334,36.2.237-6.457Z" transform="translate(-72.129 -79.651)" fill="#73c7f2"/>
          <path id="Path_12156" data-name="Path 12156" d="M304.463,318.858a5.533,5.533,0,0,0-1.375-1.328c-1.083-.688-2.134-.553-2.679.5l-12.954,25.038L275.221,315.4a6.631,6.631,0,0,0-2.284-2.893,1.944,1.944,0,0,0-1.913-.269c-1.265.624-1.438,3.059-.4,5.422L285.7,351.775a6.607,6.607,0,0,0,2.276,2.893l.324.182a1.581,1.581,0,0,0,2.331-.656L305.7,325.157C306.487,323.624,305.925,320.818,304.463,318.858Z" transform="translate(-56.608 -65.44)" fill="#e64560"/>
          <path id="Path_12157" data-name="Path 12157" d="M307.454,425.625,263.2,397.276c-.83-.537-1.51-.15-1.517.869l-.158,58.8a3.691,3.691,0,0,0,1.5,2.79l43.95,28.4c.838.545,1.525.166,1.533-.838l.451-58.848A3.675,3.675,0,0,0,307.454,425.625ZM305.5,483.516l-40.955-26.444.166-55.141,41.192,26.4Z" transform="translate(-54.841 -83.247)" fill="#73c7f2"/>
          <path id="Path_12158" data-name="Path 12158" d="M342.673,452.36l-.063,6.615,103.351,62.6.364-6.473Z" transform="translate(-71.843 -94.848)" fill="#2c90d4"/>
          <path id="Path_12159" data-name="Path 12159" d="M342.463,475.5l-.063,6.512,102.513,62.23.356-6.386Z" transform="translate(-71.799 -99.699)" fill="#73c7f2"/>
          <path id="Path_12160" data-name="Path 12160" d="M342.255,498.26l-.055,6.417,59.733,36.339.229-6.338Z" transform="translate(-71.757 -104.472)" fill="#73c7f2"/>
          <path id="Path_12161" data-name="Path 12161" d="M306.946,553.886,263.17,525.435c-.79-.537-1.494-.166-1.5.83l-.158,57.567A3.667,3.667,0,0,0,263,586.59l43.468,28.452c.79.545,1.5.19,1.51-.79l.443-57.615A3.675,3.675,0,0,0,306.946,553.886Zm-1.928,56.651-40.528-26.515.166-53.987,40.757,26.476Z" transform="translate(-54.839 -110.118)" fill="#73c7f2"/>
          <path id="Path_12162" data-name="Path 12162" d="M341.813,580.6l-.063,6.473,102.245,62.855.356-6.338Z" transform="translate(-71.663 -121.736)" fill="#2c90d4"/>
          <path id="Path_12163" data-name="Path 12163" d="M341.605,603.25l-.055,6.378L442.957,672.1l.356-6.244Z" transform="translate(-71.621 -126.485)" fill="#73c7f2"/>
          <path id="Path_12164" data-name="Path 12164" d="M341.405,625.54l-.055,6.275,59.093,36.474.229-6.2Z" transform="translate(-71.579 -131.159)" fill="#73c7f2"/>
          <path id="Path_12165" data-name="Path 12165" d="M302.641,565.819a5.352,5.352,0,0,0-1.344-1.312c-1.067-.7-2.094-.593-2.624.4l-12.693,23.71L274,561.63a6.662,6.662,0,0,0-2.237-2.845,1.96,1.96,0,0,0-1.873-.324c-1.241.569-1.415,2.9-.387,5.2l14.763,33.194a6.608,6.608,0,0,0,2.237,2.837,2.59,2.59,0,0,0,.316.19,1.581,1.581,0,0,0,2.284-.561l14.755-27.456C304.624,570.442,304.071,567.74,302.641,565.819Z" transform="translate(-56.374 -117.071)" fill="#e64560"/>
          <path id="Path_12166" data-name="Path 12166" d="M306.533,671.475l-43.349-28.491c-.79-.537-1.486-.182-1.486.79l-.158,56.453a3.651,3.651,0,0,0,1.47,2.727l43.065,28.507c.79.537,1.494.2,1.5-.79l.435-56.493a3.643,3.643,0,0,0-1.478-2.7ZM304.621,727,264.5,700.432l.158-52.952,40.362,26.539Z" transform="translate(-54.845 -134.764)" fill="#73c7f2"/>
          <path id="Path_12167" data-name="Path 12167" d="M341.025,698.15l-.055,6.346,101.217,63.06.356-6.212Z" transform="translate(-71.5 -146.383)" fill="#2c90d4"/>
          <path id="Path_12168" data-name="Path 12168" d="M340.825,720.36l-.055,6.251,100.4,62.673.348-6.117Z" transform="translate(-71.458 -151.04)" fill="#73c7f2"/>
          <path id="Path_12169" data-name="Path 12169" d="M340.625,742.21l-.055,6.157,58.516,36.592.221-6.07Z" transform="translate(-71.416 -155.621)" fill="#73c7f2"/>
          <path id="Path_12170" data-name="Path 12170" d="M46.876,655.271c-.53.451-18.178-3.082-25.8,2.371-10.8,7.832-12.305,16.383-12.305,21.039,0,22.809-8.1,66.316-8.694,69.92s2.371,18.6,35.114,43.816c9-9.6,7.2-7.508,9.3-11.065C39.677,776.507,27.664,752.5,27.371,748.3s6.006-21.608,8.109-27.005S48.678,653.777,46.876,655.271Z" transform="translate(-0.01 -137.243)" fill="#e1ddb4"/>
          <path id="Path_12171" data-name="Path 12171" d="M50.687,629.143c.3,3.9-.466,19.2-1.5,19.2s-17.877-4.655-27.843,3.952c1.138,10.432,10.274,56.342,14.708,69.249s9.547,21.276,9.539,25.528c-.063,21.781-27.148,36.529-29.55,71.62-2.094,30.633,11.744,70.679,9.808,110.519-.419,8.6-14.819,47.42-14.827,61.234,0,31.811,16.723,81.088,18.3,97.526,1.5,15.609-9.555,30.91,1.976,36.015s22.034-10.2,26.231-11.065,19.806.9,24.01-1.8,17.7-8.694,11.7-14.408-26.081,1.2-33.613-4.5-8.4-14.732-9.9-22.2-2.371-61.819-.9-81.024,3.659-33.921,6.963-42.022,17.1-56.113,18.3-63.321,39.912-110.164,39.651-117.664,3.9-30.309,3.6-32.111c7.8,1.2,13.293-6.006,15.4-13.507s2.608-15.6-8.8-22.809-13.673-7.3-17.7-13.8c-5.256-8.464-17.111-16.8-20.406-17.7-1.5-7.508-4.805-23.109,2.371-29.708s9.9-4.5,11.4-12.305S50.687,629.143,50.687,629.143Z" transform="translate(-2.318 -130.32)" fill="#fbd1a9"/>
          <path id="Path_12172" data-name="Path 12172" d="M97.149,1221.648c-6.489-8.741-20.145-.656-29.242-2.648-2.134,7.113-31.961,13.641-35.565,6.773-1.992,10.551-5.643,16.6,1.581,25.583.174.04.6.237.79.269,9.033,1.581,21.133-9.824,27.3-11.8,4.086-1.32,18.968-1.723,23.489-3.77C90.439,1233.8,102.072,1228.3,97.149,1221.648Z" transform="translate(-6.221 -255.275)" fill="#e64560"/>
          <path id="Path_12173" data-name="Path 12173" d="M98.052,1223.69c-4.987,10.274-33.557,11.855-38.987,13.7s-16.5,11.357-27.385,11.238a22.345,22.345,0,0,0,2.632,4.031c.174.04.6.237.79.269,9.033,1.581,21.133-9.824,27.3-11.8,4.086-1.32,18.968-1.723,23.489-3.77C90.678,1235.189,101.64,1230,98.052,1223.69Z" transform="translate(-6.65 -256.574)" fill="#a10923"/>
          <path id="Path_12174" data-name="Path 12174" d="M55.792,979.984c3.3-8.109,17.1-56.113,18.3-63.321s39.912-110.132,39.651-117.632v-.19L45.51,779.13a7.528,7.528,0,0,1,.079.988c-.063,21.781-27.148,36.529-29.55,71.62-2.094,30.633,2.932,59.14,1,98.981-.419,8.6-6.014,58.958-6.022,72.773,0,29.605,7.113,72.37,10.393,91.678l31.858-3.122C52.473,1109.052,52.488,988.085,55.792,979.984Z" transform="translate(-2.318 -163.362)" fill="#061544"/>
          <path id="Path_12175" data-name="Path 12175" d="M73.766,810.158c-9.919,26.4-14.084,43.887-13.538,54.707s3.659,25.986,14.479,32.8C73.126,914.727,88.5,965.94,90.118,977.834a120.92,120.92,0,0,1,0,31.376c-1.083,8.117-4.979,38.449-3.074,54.8.885,7.548,14.226,51.98,15.293,61.242,2.2,19.395-9.927,31.076-2.648,41,3.556,4.853,24.69-.933,33.723-2.893s32.743-4.8,30.206-20.478c-2.426-15.016-25.575-.885-35.494-8.156-4.339-3.161-5.287-13.23-5.074-20.28s5.532-48.937,5.738-56.216-3.493-49.482-2.166-54.533,10.8-49.38,11.681-74.291-7.413-108.449-14.25-125.1C115.819,812.118,79.1,813.264,73.766,810.158Z" transform="translate(-12.626 -168.642)" fill="#fbd1a9"/>
          <path id="Path_12176" data-name="Path 12176" d="M52.573,567.933c-6.931,7.113-14.226,14-11.065,31.4,0,0,6.2,23.22,32.451,24.16,8.828.356,24.382-5.058,29.629-6.971,2.418-.877,4.276-19.157.711-24.31-1.383-4.947.616-14.036-3.027-19.568s-11.3-13.072-23.9-12.716S53.458,567.024,52.573,567.933Z" transform="translate(-8.552 -117.399)" fill="#fbd1a9"/>
          <path id="Path_12177" data-name="Path 12177" d="M245.348,600.733c-3.256-2.213-10.685,10.891-11.768,12.456-3.311,4.829-8.085,15.728-11.136,15.206-1.122-.19,0-5.967,0-6.489s.308-3.691-2.545-4.181c-1.114,1.581-2.134,6.323-3.454,10.092a18.758,18.758,0,0,0,1.581,11.191,20.653,20.653,0,0,1,1.5,5.019c.182,1.533-.719,6.093-5.825,13.333-5.856,8.291-17.719,24.5-19.015,31.36-3.738-1.3-18.351-3.438-43.713-6.662-16.731-4.742-35.565-13.167-40.093,6.726-1.288,5.627.213,21.947,13.7,23.654s72.252,2.742,78.306-.284,16.6-21.71,18.178-26.444c1.272-3.817,8.18-25.164,12.74-35.509,1.4-.877,5.6-8.694,11.065-17.19,1.051-3.043.593-11.855-5.216-19.885C241.855,607.491,248.225,602.678,245.348,600.733Z" transform="translate(-23.179 -125.905)" fill="#fbd1a9"/>
          <path id="Path_12178" data-name="Path 12178" d="M46.631,660.719a116.255,116.255,0,0,1-12.1-6.149c-4.9,0-10.14.711-13.436,3.106-10.82,7.8-12.329,16.352-12.329,21.007,0,22.809-8.1,66.316-8.694,69.92s2.371,18.6,35.114,43.816c9-9.6,7.2-7.508,9.3-11.065-4.813-4.845-16.826-28.847-17.119-33.052S33.378,726.7,35.48,721.3C37.147,716.943,44.711,675.759,46.631,660.719Z" transform="translate(-0.01 -137.245)" fill="#4794b5"/>
          <path id="Path_12179" data-name="Path 12179" d="M128.627,1058.234c.221-7.271,8.63-103.936,9.484-128.823s-7.39-108.449-14.226-125.1c-8.2,7.808-44.914,8.954-50.249,5.849-9.919,26.4-14.755,43.887-14.226,54.707s3.651,25.986,14.471,32.8C72.3,914.727,87.672,965.94,89.3,977.834a121.276,121.276,0,0,1,0,31.376c-1.083,8.117-4.315,38.449-2.371,54.8.79,7.058,6.014,44.732,8.385,57.354l32.878-3.082C127.947,1115.976,128.4,1065.513,128.627,1058.234Z" transform="translate(-12.456 -168.642)" fill="#112152"/>
          <path id="Path_12180" data-name="Path 12180" d="M107.8,690.556c-5.256-8.464-17.111-16.81-20.406-17.7-.119-.6-.253-1.257-.387-1.944-14.171-.9-36.2-8.939-49.4-16.968-4.971.253-10.44,1.517-14.668,5.177,1.138,10.432,10.274,56.342,14.708,69.249s9.547,21.252,9.539,25.5c-.055,20.082-23.07,34.2-28.547,63.8,6.007,2.893,28.231,22.082,107.018,17.387-2.758-24.358-7.113-54.446-10.353-62.278-.3-7.508,4.07-20.311,5.9-24.982,1.462-3.754,10.646-4.4,13.436-19.711C136.8,716.068,111.835,697.052,107.8,690.556Z" transform="translate(-3.916 -137.113)" fill="#68c3ea"/>
          <path id="Path_12181" data-name="Path 12181" d="M204.777,688.65c-4.742,7.113-9.294,14.495-10.069,18.557-3.738-1.3-18.351-3.438-43.713-6.662-16.731-4.742-35.565-13.167-40.093,6.726-1.288,5.627.213,21.948,13.7,23.655s72.252,2.742,78.306-.285,16.6-21.71,18.178-26.444c.3-.909.925-2.814,1.755-5.319C217.454,695.889,210.38,692.088,204.777,688.65Z" transform="translate(-23.183 -144.391)" fill="#4794b5"/>
          <path id="Path_12182" data-name="Path 12182" d="M71.281,549.55c-7.113,0-39.864,5.635-35.565,42.29,4.157,35.32-9.99,48.637-4.5,67.178.506,13.435,45.578,37.414,60.618,14.566,1.423-7.334-12.8-37.691-2.284-58.982-8.543-.142-5.532-9.2-4.536-10.677,2.189-3.209,5.169-2.5,6.046.609-.111-12.645,7.2-21.015,10.851-25.6C106.213,573.529,107.652,549.558,71.281,549.55Z" transform="translate(-6.284 -115.226)" fill="#072f53"/>
          <path id="Path_12183" data-name="Path 12183" d="M110.432,1231.942c-2.371,9.073-5.445,15.988-.885,22.216,3.556,4.853,24.69-.933,33.723-2.893s32.743-4.8,30.206-20.477c-1.581-9.839-12.124-7.113-21.971-6.18C149.071,1233.112,114.6,1236.985,110.432,1231.942Z" transform="translate(-22.484 -256.544)" fill="#e64560"/>
          <path id="Path_12184" data-name="Path 12184" d="M173.539,1232.87c-2.98,12.566-54.92,22.129-66.079,18.3a11.72,11.72,0,0,0,2.142,4.94c3.556,4.853,24.69-.933,33.723-2.893S175.926,1248.439,173.539,1232.87Z" transform="translate(-22.539 -258.499)" fill="#a10923"/>
          <path id="Path_12185" data-name="Path 12185" d="M214.316,731.378c-5.469,3.422-25.29,4.631-39.556,5.532,18.968.229,38.283-.205,41.619-1.873,5.619-2.814,15.1-19.134,17.68-25.227C228.313,717.508,220.062,727.79,214.316,731.378Z" transform="translate(-36.65 -148.828)" fill="#4794b5"/>
        </g>
      </g>
    </g>
  </g>
</svg>
