<svg xmlns="http://www.w3.org/2000/svg" width="120" height="126" viewBox="0 0 120 126">
  <g id="report" transform="translate(-0.234)">
    <ellipse id="Ellipse_386" data-name="Ellipse 386" cx="60" cy="60.5" rx="60" ry="60.5" transform="translate(0.234 5)" fill="#fce3e7"/>
    <path id="Path_12220" data-name="Path 12220" d="M68.278,157.809a1.239,1.239,0,0,1-1.235-1.235V71.247H58.87a1.239,1.239,0,0,0-1.235,1.235v82.646c3.3,4.547,4.975,12.344,4.975,12.344l74.938-.255a1.239,1.239,0,0,0,1.235-1.235v-8.173Z" transform="translate(-46.196 -53.646)" fill="#e64560"/>
    <path id="Path_12221" data-name="Path 12221" d="M62.329,72.482a1.239,1.239,0,0,1,1.235-1.235H58.87a1.239,1.239,0,0,0-1.235,1.235l-.3,94.99h5.389Z" transform="translate(-46.196 -53.646)" fill="#ae253c"/>
    <path id="Path_12222" data-name="Path 12222" d="M102.971,122.375a1.239,1.239,0,0,1-1.235-1.235V36H94.118a1.239,1.239,0,0,0-1.235,1.235v93.5a1.239,1.239,0,0,0,1.235,1.235H172.8a1.239,1.239,0,0,0,1.235-1.235v-8.358Z" transform="translate(-72.737 -27.105)" fill="#112152"/>
    <path id="Path_12223" data-name="Path 12223" d="M97.33,130.733v-93.5A1.239,1.239,0,0,1,98.565,36H94.118a1.239,1.239,0,0,0-1.235,1.235v93.5a1.239,1.239,0,0,0,1.235,1.235h4.447A1.239,1.239,0,0,1,97.33,130.733Z" transform="translate(-72.737 -27.105)" fill="#12308b"/>
    <path id="Path_12224" data-name="Path 12224" d="M207.031,94.735A1.239,1.239,0,0,1,205.8,95.97H127.118a1.239,1.239,0,0,1-1.235-1.235V1.235A1.239,1.239,0,0,1,127.118,0H205.8a1.239,1.239,0,0,1,1.235,1.235Z" transform="translate(-97.584)" fill="#d9eafc"/>
    <path id="Path_12225" data-name="Path 12225" d="M130.785,94.735V1.235A1.239,1.239,0,0,1,132.02,0h-4.9a1.239,1.239,0,0,0-1.235,1.235v93.5a1.239,1.239,0,0,0,1.235,1.235h4.9A1.239,1.239,0,0,1,130.785,94.735Z" transform="translate(-97.584)" fill="#c3ddf4"/>
    <g id="Group_4259" data-name="Group 4259" transform="translate(80.707 8.843)">
      <path id="Path_12226" data-name="Path 12226" d="M357.066,39.5H339.882a1.853,1.853,0,0,1,0-3.706h17.184a1.853,1.853,0,0,1,0,3.706Z" transform="translate(-338.029 -35.794)" fill="#db722c"/>
      <path id="Path_12227" data-name="Path 12227" d="M357.066,65H339.882a1.853,1.853,0,0,1,0-3.706h17.184a1.853,1.853,0,0,1,0,3.706Z" transform="translate(-338.029 -54.994)" fill="#db722c"/>
      <path id="Path_12228" data-name="Path 12228" d="M357.066,90.5H339.882a1.853,1.853,0,0,1,0-3.706h17.184a1.853,1.853,0,0,1,0,3.706Z" transform="translate(-338.029 -74.193)" fill="#db722c"/>
      <path id="Path_12229" data-name="Path 12229" d="M357.066,116H339.882a1.853,1.853,0,0,1,0-3.706h17.184a1.853,1.853,0,0,1,0,3.706Z" transform="translate(-338.029 -93.392)" fill="#db722c"/>
    </g>
    <g id="Group_4260" data-name="Group 4260" transform="translate(36.909 71.711)">
      <path id="Path_12230" data-name="Path 12230" d="M191.534,293.987H162.591a1.853,1.853,0,1,1,0-3.706h28.943a1.853,1.853,0,0,1,0,3.706Z" transform="translate(-160.738 -290.281)" fill="#52bbef"/>
      <path id="Path_12231" data-name="Path 12231" d="M191.534,319.485H162.591a1.853,1.853,0,1,1,0-3.706h28.943a1.853,1.853,0,0,1,0,3.706Z" transform="translate(-160.738 -309.48)" fill="#52bbef"/>
      <path id="Path_12232" data-name="Path 12232" d="M191.534,344.984H162.591a1.853,1.853,0,1,1,0-3.706h28.943a1.853,1.853,0,0,1,0,3.706Z" transform="translate(-160.738 -328.68)" fill="#52bbef"/>
    </g>
    <g id="Group_4261" data-name="Group 4261" transform="translate(35.435 38.733)">
      <path id="Path_12233" data-name="Path 12233" d="M329.078,160.494H302.711a1.853,1.853,0,1,1,0-3.706h26.367a1.853,1.853,0,0,1,0,3.706Z" transform="translate(-264.768 -156.788)" fill="#fe3745"/>
      <path id="Path_12234" data-name="Path 12234" d="M329.078,185.993H302.711a1.853,1.853,0,0,1,0-3.706h26.367a1.853,1.853,0,0,1,0,3.706Z" transform="translate(-264.768 -175.988)" fill="#fe3745"/>
      <path id="Path_12235" data-name="Path 12235" d="M329.078,211.491H302.711a1.853,1.853,0,1,1,0-3.706h26.367a1.853,1.853,0,0,1,0,3.706Z" transform="translate(-264.768 -195.187)" fill="#fe3745"/>
      <path id="Path_12236" data-name="Path 12236" d="M329.078,236.989H302.711a1.853,1.853,0,1,1,0-3.706h26.367a1.853,1.853,0,0,1,0,3.706Z" transform="translate(-264.768 -214.386)" fill="#fe3745"/>
      <path id="Path_12237" data-name="Path 12237" d="M154.77,171.72h7.224a7.224,7.224,0,0,1,7.224-7.224v-7.223A14.448,14.448,0,0,0,154.77,171.72Z" transform="translate(-154.77 -157.152)" fill="#fe3745"/>
    </g>
    <path id="Path_12238" data-name="Path 12238" d="M228.084,142.442v7.224a7.223,7.223,0,0,1,7.224,7.224h7.224A14.448,14.448,0,0,0,228.084,142.442Z" transform="translate(-174.538 -107.253)" fill="#91e0e8"/>
    <g id="Group_4262" data-name="Group 4262" transform="translate(35.435 10.447)">
      <path id="Path_12239" data-name="Path 12239" d="M176.441,215.755a7.224,7.224,0,1,1-14.447,0H154.77a14.448,14.448,0,0,0,28.9,0Z" transform="translate(-154.77 -172.902)" fill="#ffaf10"/>
      <path id="Path_12240" data-name="Path 12240" d="M170.151,60.283V43.031a.743.743,0,0,0-.741-.741h-4.492a.743.743,0,0,0-.741.741V60.283Z" transform="translate(-161.853 -42.29)" fill="#ffaf10"/>
    </g>
    <path id="Path_12241" data-name="Path 12241" d="M209.269,74.589V62.031a.743.743,0,0,0-.741-.741h-4.491a.743.743,0,0,0-.741.741V74.589Z" transform="translate(-155.872 -46.149)" fill="#fe3745"/>
    <path id="Path_12242" data-name="Path 12242" d="M248.385,91.907V85.031a.743.743,0,0,0-.741-.741h-4.491a.743.743,0,0,0-.741.741v6.876Z" transform="translate(-185.325 -63.467)" fill="#37c47a"/>
    <path id="Path_12243" data-name="Path 12243" d="M287.5,60.283V43.031a.743.743,0,0,0-.741-.741h-4.492a.743.743,0,0,0-.741.741V60.283Z" transform="translate(-214.778 -31.843)" fill="#91e0e8"/>
    <path id="Path_12244" data-name="Path 12244" d="M350.558,288.415a.742.742,0,0,1,.741-.741h3.35v-8.291a1.239,1.239,0,0,0-1.235-1.235H342.267a1.239,1.239,0,0,0-1.235,1.235V290.53a1.239,1.239,0,0,0,1.235,1.235h8.291Z" transform="translate(-259.583 -209.434)" fill="#fe3745"/>
    <path id="Path_12245" data-name="Path 12245" d="M386.856,322.736a1.239,1.239,0,0,1-1.235,1.235h-6.793a1.239,1.239,0,0,1-1.235-1.235v-6.793a1.239,1.239,0,0,1,1.235-1.235h6.793a1.239,1.239,0,0,1,1.235,1.235Z" transform="translate(-287.111 -236.962)" fill="#37c47a"/>
    <path id="Path_12246" data-name="Path 12246" d="M190.879,116H153.361a1.853,1.853,0,0,1,0-3.706h37.518a1.853,1.853,0,1,1,0,3.706Z" transform="translate(-116.879 -84.55)" fill="#52bbef"/>
  </g>
</svg>
